<svg width="137" height="27" viewBox="0 0 137 27" fill="none" xmlns="http://www.w3.org/2000/svg">
<path d="M123.24 26.2352H13.1176C5.90155 26.2352 0 20.3336 0 13.1176C0 5.90428 5.90155 0 13.1176 0H123.243C130.456 0 136.36 5.90155 136.36 13.1176C136.358 20.3336 130.456 26.2352 123.24 26.2352Z" fill="#212121"/>
<path d="M10.2354 13.1174C10.2354 17.4672 13.7725 21.0043 18.1223 21.0043C20.1922 21.0043 21.8257 20.2243 22.9711 19.3298L21.3076 17.4726C20.394 18.1326 19.3249 18.5035 18.1223 18.5035C15.1524 18.5035 12.7361 16.0873 12.7361 13.1174C12.7361 10.1502 15.1524 7.73127 18.1223 7.73127C18.8913 7.73127 19.6195 7.89489 20.2822 8.1867L21.2721 5.89044C20.3067 5.46773 19.2404 5.23047 18.1223 5.23047C13.7725 5.23047 10.2354 8.77031 10.2354 13.1174Z" fill="#FDFAF5"/>
<path d="M13.917 13.1173C13.917 15.4354 15.8015 17.3198 18.1195 17.3198C19.0086 17.3198 19.9058 17.0035 20.4812 16.5699C20.4812 16.5699 18.9186 14.8272 18.7822 14.68C18.6431 14.7481 18.3595 14.819 18.1195 14.819C17.1814 14.819 16.4178 14.0554 16.4178 13.1173C16.4178 12.1792 17.1868 11.391 18.125 11.391C18.3677 11.391 18.6077 11.4483 18.8177 11.541L19.8049 9.27747C19.3031 9.06475 18.7468 8.91748 18.1195 8.91748C15.8042 8.91476 13.917 10.7992 13.917 13.1173Z" fill="#FDFAF5"/>
<path d="M21.2557 11.4839C21.4711 11.9121 21.6593 12.4957 21.6593 13.1175C21.6593 13.9056 21.3266 14.7592 20.8848 15.3265L22.5729 17.1864C23.5137 16.1801 24.1601 14.721 24.1601 13.1175C24.1601 12.1684 23.9228 11.2139 23.5246 10.4258L21.2557 11.4839Z" fill="#FDFAF5"/>
<path d="M20.5547 10.5513L24.8363 8.54407C24.2036 7.61411 23.3418 6.76597 22.4582 6.23145L20.541 10.5376L20.5547 10.5513Z" fill="#FDFAF5"/>
<path d="M34.4845 6.54532L33.8163 7.33892C33.5081 7.07166 33.1809 6.92167 32.78 6.92167C32.0464 6.92167 31.5282 7.51346 31.5282 8.9343C31.5282 10.3279 32.0382 10.9224 32.8045 10.9224C33.2627 10.9224 33.5981 10.696 33.9309 10.437L34.5499 11.2387C34.1736 11.6233 33.5409 11.9805 32.7391 11.9805C31.1519 11.9805 30.0938 10.9115 30.0938 8.9343C30.0938 6.99803 31.2119 5.91262 32.6982 5.91262C33.4836 5.90989 34.0099 6.14443 34.4845 6.54532Z" fill="#FDFAF5"/>
<path d="M36.4452 9.35658V11.8356H35.0762V6.05127H36.4452V8.28753H38.1824V6.05127H39.5514V11.8383H38.1824V9.35658H36.4452Z" fill="#FDFAF5"/>
<path d="M41.6103 10.5949L41.3185 11.8385H39.9004L41.6458 6.0542H43.3066L45.052 11.8385H43.5984L43.2984 10.5949H41.6103ZM42.4557 7.04415L41.8476 9.59949H43.0666L42.4557 7.04415Z" fill="#FDFAF5"/>
<path d="M49.7919 11.8385L49.691 9.57495C49.6501 8.76499 49.6337 7.93048 49.6747 7.21324L48.7802 11.2303H47.4875L46.5357 7.21324C46.593 8.06411 46.593 8.78408 46.5603 9.59404L46.4593 11.8385H45.123L45.5567 6.0542H47.2857L48.1529 9.97857L48.9629 6.0542H50.7001L51.1337 11.8385H49.7919Z" fill="#FDFAF5"/>
<path d="M56.3101 10.1502C56.3101 11.4701 55.241 11.8356 53.7874 11.8356H51.9248V6.05127H53.5611C55.1128 6.05127 56.0646 6.44398 56.0646 7.52938C56.0646 8.26299 55.5383 8.64752 55.0038 8.77297C55.6501 8.89841 56.3101 9.21476 56.3101 10.1502ZM53.2966 8.36389H53.8065C54.3738 8.36389 54.6738 8.14572 54.6738 7.66302C54.6738 7.18031 54.3574 7.01941 53.6975 7.01941H53.2966V8.36389ZM54.9001 10.0765C54.9001 9.49293 54.4911 9.27476 53.8993 9.27476H53.2993V10.8456H53.8011C54.4392 10.8429 54.9001 10.7092 54.9001 10.0765Z" fill="#FDFAF5"/>
<path d="M58.3632 9.62384V11.8356H56.9941V6.05127H58.8895C60.4576 6.05127 61.2676 6.61034 61.2676 7.81301C61.2676 8.57388 60.9076 9.03204 60.1576 9.37567L61.6276 11.8383H60.084L58.8977 9.62656H58.3632V9.62384ZM58.9386 8.68024C59.5386 8.68024 59.8576 8.42116 59.8576 7.81301C59.8576 7.25394 59.5331 7.01123 58.8568 7.01123H58.3632V8.68024H58.9386Z" fill="#FDFAF5"/>
<path d="M63.4276 7.02759V8.41298H65.2057V9.37294H63.4276V10.8511H65.6066V11.8356H62.0586V6.05127H65.6066L65.4648 7.02759H63.4276Z" fill="#FDFAF5"/>
<path d="M72.8768 8.91478C72.8768 11.2438 71.4751 11.8356 69.997 11.8356H68.2598V6.05127H69.8715C71.4151 6.05127 72.8768 6.52852 72.8768 8.91478ZM69.6288 10.8429H70.0788C70.9051 10.8429 71.456 10.4502 71.456 8.91478C71.456 7.36303 70.8642 7.04395 70.0624 7.04395H69.6288V10.8429Z" fill="#FDFAF5"/>
<path d="M74.9794 7.02759V8.41298H76.7575V9.37294H74.9794V10.8511H77.1584V11.8356H73.6104V6.05127H77.1584L77.0166 7.02759H74.9794Z" fill="#FDFAF5"/>
<path d="M83.9356 6.54532L83.2675 7.33892C82.9593 7.07166 82.6321 6.92167 82.2312 6.92167C81.4976 6.92167 80.9794 7.51346 80.9794 8.9343C80.9794 10.3279 81.4894 10.9224 82.2557 10.9224C82.7139 10.9224 83.0493 10.696 83.382 10.437L84.0011 11.2387C83.6247 11.6233 82.992 11.9805 82.1903 11.9805C80.6031 11.9805 79.5449 10.9115 79.5449 8.9343C79.5449 6.99803 80.6631 5.91262 82.1494 5.91262C82.9348 5.90989 83.4611 6.14443 83.9356 6.54532Z" fill="#FDFAF5"/>
<path d="M89.3108 8.93953C89.3108 10.8349 88.3345 11.9776 86.6982 11.9776C85.0701 11.9776 84.0938 10.8676 84.0938 8.93953C84.0938 7.05234 85.0701 5.90967 86.6982 5.90967C88.3345 5.90967 89.3108 7.01144 89.3108 8.93953ZM85.5282 8.93953C85.5282 10.4095 85.9455 10.9767 86.6982 10.9767C87.4836 10.9767 87.8763 10.4095 87.8763 8.93953C87.8763 7.47778 87.4754 6.91053 86.6982 6.91053C85.9291 6.91326 85.5282 7.48051 85.5282 8.93953Z" fill="#FDFAF5"/>
<path d="M94.3613 11.8385L94.2604 9.57495C94.2195 8.76499 94.2031 7.93048 94.244 7.21324L93.3495 11.2303H92.0568L91.105 7.21324C91.1623 8.06411 91.1623 8.78408 91.1296 9.59404L91.0287 11.8385H89.6924L90.126 6.0542H91.855L92.7222 9.97857L93.5322 6.0542H95.2694L95.703 11.8385H94.3613Z" fill="#FDFAF5"/>
<path d="M100.896 11.8385L100.796 9.57495C100.755 8.76499 100.738 7.93048 100.779 7.21324L99.8846 11.2303H98.592L97.6402 7.21324C97.6975 8.06411 97.6975 8.78408 97.6647 9.59404L97.5638 11.8385H96.2275L96.6612 6.0542H98.3902L99.2574 9.97857L100.067 6.0542H101.805L102.238 11.8385H100.896Z" fill="#FDFAF5"/>
<path d="M104.4 7.02759V8.41298H106.178V9.37294H104.4V10.8511H106.579V11.8356H103.031V6.05127H106.579L106.437 7.02759H104.4Z" fill="#FDFAF5"/>
<path d="M108.706 9.62384V11.8356H107.337V6.05127H109.232C110.803 6.05127 111.613 6.61034 111.613 7.81301C111.613 8.57388 111.253 9.03204 110.503 9.37567L111.973 11.8383H110.43L109.243 9.62656H108.706V9.62384ZM109.281 8.68024C109.881 8.68024 110.2 8.42116 110.2 7.81301C110.2 7.25394 109.876 7.01123 109.2 7.01123H108.706V8.68024H109.281Z" fill="#FDFAF5"/>
<path d="M116.446 6.54532L115.778 7.33892C115.47 7.07166 115.143 6.92167 114.742 6.92167C114.008 6.92167 113.49 7.51346 113.49 8.9343C113.49 10.3279 114 10.9224 114.766 10.9224C115.225 10.9224 115.56 10.696 115.893 10.437L116.512 11.2387C116.135 11.6233 115.503 11.9805 114.701 11.9805C113.114 11.9805 112.056 10.9115 112.056 8.9343C112.056 6.99803 113.174 5.91262 114.66 5.91262C115.443 5.90989 115.969 6.14443 116.446 6.54532Z" fill="#FDFAF5"/>
<path d="M118.404 7.02759V8.41298H120.182V9.37294H118.404V10.8511H120.583V11.8356H117.035V6.05127H120.583L120.441 7.02759H118.404Z" fill="#FDFAF5"/>
<path d="M31.7304 15.3757V16.7611H33.5085V17.7211H31.7304V19.1992H33.9093V20.1837H30.3613V14.3994H33.9093L33.7675 15.3757H31.7304Z" fill="#FDFAF5"/>
<path d="M37.0647 15.4492V20.1835H35.6956V15.4492H34.2012V14.3965H38.6273L38.4937 15.4492H37.0647Z" fill="#FDFAF5"/>
<path d="M45.6034 17.2629C45.6034 19.5919 44.2016 20.1837 42.7235 20.1837H40.9863V14.3994H42.5981C44.1416 14.3994 45.6034 14.8739 45.6034 17.2629ZM42.3554 19.191H42.8053C43.6317 19.191 44.1825 18.7983 44.1825 17.2629C44.1825 15.7112 43.5908 15.3921 42.789 15.3921H42.3554V19.191Z" fill="#FDFAF5"/>
<path d="M47.5034 14.4649C47.5034 14.6831 47.4379 14.8822 47.2607 15.2421L46.7261 16.3439H46.0498L46.4016 15.0322C46.2107 14.8985 46.0934 14.724 46.0934 14.4567C46.0934 14.0804 46.4016 13.7886 46.8025 13.7886C47.2034 13.7886 47.5034 14.0804 47.5034 14.4649Z" fill="#FDFAF5"/>
<path d="M48.2812 20.1837V14.3994H49.6503V20.1837H48.2812Z" fill="#FDFAF5"/>
<path d="M53.3649 20.1837L51.6959 15.7003C51.7613 16.2266 51.8704 16.9957 51.8704 18.062V20.1837H50.6514V14.3994H52.3531L54.0658 18.891C53.9894 18.4247 53.883 17.6638 53.883 16.7366V14.3994H55.1103V20.1837H53.3649Z" fill="#FDFAF5"/>
<path d="M60.7167 17.2629C60.7167 19.5919 59.3149 20.1837 57.8368 20.1837H56.0996V14.3994H57.7114C59.2549 14.3994 60.7167 14.8739 60.7167 17.2629ZM57.4686 19.191H57.9186C58.7449 19.191 59.2958 18.7983 59.2958 17.2629C59.2958 15.7112 58.704 15.3921 57.9023 15.3921H57.4686V19.191Z" fill="#FDFAF5"/>
<path d="M63.6216 20.3255C62.1107 20.3255 61.3662 19.4828 61.3662 18.2638V14.3994H62.7352V18.2065C62.7352 18.9483 63.0025 19.3083 63.6188 19.3083C64.2461 19.3083 64.5133 18.9483 64.5133 18.2065V14.3994H65.8824V18.2638C65.8824 19.4337 65.1324 20.3255 63.6216 20.3255Z" fill="#FDFAF5"/>
<path d="M70.6655 14.9991L70.0219 15.7409C69.6292 15.4164 69.2283 15.2582 68.7619 15.2582C68.2847 15.2582 67.9847 15.4573 67.9847 15.8254C67.9847 16.1936 68.2029 16.3436 69.1028 16.6272C70.1964 16.979 70.8237 17.429 70.8237 18.498C70.8237 19.5753 69.9728 20.3252 68.5274 20.3252C67.5265 20.3252 66.8066 19.9571 66.332 19.4989L67.0329 18.7299C67.442 19.098 67.9083 19.3053 68.4865 19.3053C69.0537 19.3053 69.4055 19.038 69.4055 18.5962C69.4055 18.1708 69.1874 17.9772 68.3447 17.7208C67.0493 17.3199 66.5747 16.7854 66.5747 15.9263C66.5747 14.9064 67.4611 14.2573 68.661 14.2573C69.5473 14.2573 70.1555 14.5137 70.6655 14.9991Z" fill="#FDFAF5"/>
<path d="M73.8039 15.4492V20.1835H72.4349V15.4492H70.9404V14.3965H75.3666L75.233 15.4492H73.8039Z" fill="#FDFAF5"/>
<path d="M77.2001 17.972V20.1837H75.8311V14.3994H77.7264C79.2945 14.3994 80.1045 14.9585 80.1045 16.1612C80.1045 16.922 79.7445 17.3802 78.9946 17.7238L80.4645 20.1864H78.9209L77.7346 17.9747H77.2001V17.972ZM77.7755 17.0284C78.3755 17.0284 78.6946 16.7693 78.6946 16.1612C78.6946 15.6021 78.37 15.3594 77.6937 15.3594H77.2001V17.0284H77.7755Z" fill="#FDFAF5"/>
<path d="M80.8975 20.1837V14.3994H82.2665V20.1837H80.8975Z" fill="#FDFAF5"/>
<path d="M84.6366 15.3757V16.7611H86.4147V17.7211H84.6366V19.1992H86.8156V20.1837H83.2676V14.3994H86.8156L86.6738 15.3757H84.6366Z" fill="#FDFAF5"/>
</svg>
