<svg width="101" height="29" viewBox="0 0 101 29" fill="none" xmlns="http://www.w3.org/2000/svg">
<path d="M82.1953 9.17787C80.8637 9.17787 80.2323 11.4871 80.6356 14.8992C81.1236 19.0528 84.9152 19.0389 87.483 17.988L87.4795 20.038C85.902 20.458 84.6146 20.5635 83.5005 20.5635C77.0279 20.5635 76.3683 15.3607 76.3683 13.8051C76.3683 11.1639 77.3268 7.51332 82.4571 7.51332C85.8596 7.51332 87.8013 9.6774 87.8332 12.5778H83.7374C83.7303 10.7681 83.3413 9.18305 82.1953 9.18305V9.17787ZM95.9362 12.1543V11.8951C95.8832 10.6263 95.6179 9.17614 94.5038 9.17614C93.4286 9.17614 93.0643 10.3913 92.9122 12.0731L92.9033 12.1526H95.9345L95.9362 12.1543ZM100.262 13.9693H92.8573L92.8609 14.0453C93.1262 19.1617 97.0203 19.0528 99.7685 17.9863L99.7667 20.0398C98.1928 20.4598 97.0963 20.5652 95.8796 20.5652C89.5839 20.5652 88.6467 15.9968 88.6467 13.6599C88.6467 10.9582 89.8492 7.50641 94.6594 7.51159C98.2087 7.51332 100.262 9.7016 100.262 12.7386V13.9658V13.9693ZM55.9868 18.4495L55.9727 13.627L55.8913 13.6339C54.8302 13.7255 53.274 14.1922 53.274 16.2837C53.2722 18.2404 54.2467 18.4098 55.1751 18.4478L55.9886 18.4495H55.9868ZM60.2612 20.178L53.3412 20.1763C50.7911 20.1728 48.9554 19.1599 48.959 16.3978C48.9625 14.1508 50.2924 13.0687 51.8274 12.5433C52.5967 12.2805 53.4155 12.1595 54.1441 12.1025C54.8727 12.0454 55.5058 12.0558 55.8984 12.0541H55.9727V11.6634C55.9762 8.7734 53.0247 9.0828 51.357 9.55814C51.0387 9.6532 50.7504 9.75346 50.5081 9.85198V7.96273C51.9813 7.62395 52.984 7.50814 54.5491 7.50814C58.2504 7.50814 60.2612 9.20552 60.2612 12.042V20.1763V20.178ZM48.8812 9.31787C47.8696 9.36281 46.3169 9.71543 46.3169 12.0247L46.3098 20.178H42.0196L42.0249 11.8916C42.0284 9.40257 44.3592 7.50986 48.0075 7.50986H48.8776L48.8794 9.31787H48.8812ZM41.9577 2.76687L41.9559 4.54203L40.7056 4.57315C40.2759 4.60772 39.8673 4.67686 39.5136 4.81859C38.7921 5.11244 38.3111 5.70877 38.3111 6.88761V7.93335H41.3352L41.3334 9.73099H38.3023L38.3058 20.178H34.0208V7.85384C34.0208 3.29924 37.2164 2.76514 41.0893 2.76514H41.9559L41.9577 2.76687ZM74.4619 20.1798H70.1504L70.1415 12.8025C70.1415 9.89519 69.0133 9.74308 67.4429 9.73444H67.1387L67.1422 20.1798H62.8449L62.8414 7.87631C63.1897 7.89878 64.3516 7.93508 68.2263 7.93508C74.4389 7.93508 74.4566 10.7525 74.4583 13.0428L74.4601 20.1815L74.4619 20.1798ZM29.1328 28.1274C27.6084 28.1274 26.374 26.9174 26.374 25.4258C26.374 23.9341 27.6119 22.7241 29.1328 22.7241C30.6537 22.7241 31.8916 23.9341 31.8916 25.4258C31.8916 26.9174 30.6537 28.1274 29.1328 28.1274Z" fill="#838383"/>
<path d="M31.2804 7.93208L31.2734 20.1785H26.9849L26.9884 7.93208H31.2804ZM29.1335 5.40156C27.6091 5.40156 26.3747 4.19161 26.3747 2.70164C26.3747 1.21168 27.6127 0 29.1335 0C30.6544 0 31.8923 1.20995 31.8923 2.70164C31.8923 4.19334 30.6544 5.40156 29.1335 5.40156ZM7.27012 13.9092C7.27012 11.237 6.63348 9.59144 4.66695 9.59144H4.31326V18.4897H4.72885C6.63878 18.4897 7.26835 16.7094 7.26835 13.9092H7.27012ZM0.00176846 20.1768V2.7656H4.31326L4.31149 7.93381H5.67674C8.66543 7.93381 10.1421 9.07461 10.876 10.3831C11.6188 11.7002 11.6188 13.2005 11.6188 13.9403C11.6188 15.8832 10.991 20.1802 6.0658 20.1802L0 20.1768H0.00176846ZM17.8101 9.58798V18.4897H18.1638C20.1321 18.4897 20.7634 16.8442 20.7634 14.1685C20.7634 11.3718 20.1321 9.58798 18.2239 9.58798H17.8101ZM25.1174 14.172C25.1174 14.91 25.1174 16.4121 24.3746 17.7292C23.6372 19.0377 22.1605 20.1785 19.1754 20.1785H17.8101V25.3467H13.5004V7.9338L19.5662 7.93381C24.4931 7.93208 25.1191 12.2291 25.1191 14.1737L25.1174 14.172Z" fill="#212121"/>
</svg>
