<svg width="80" height="80" viewBox="0 0 80 80" fill="none" xmlns="http://www.w3.org/2000/svg">
<circle cx="40" cy="40" r="39" stroke="#212121" stroke-width="2"/>
<path fill-rule="evenodd" clip-rule="evenodd" d="M58.0895 23.4298C58.4352 22.9991 58.3662 22.3697 57.9354 22.024C57.5046 21.6784 56.8752 21.7474 56.5296 22.1782C52.489 27.2139 49.2458 32.9162 46.1581 38.8046C45.2553 40.5264 44.3672 42.2611 43.4765 44.0008L43.4762 44.0012C41.4991 47.863 39.509 51.75 37.3157 55.5784C35.7676 54.0728 34.1938 52.6801 32.6587 51.3217L32.6587 51.3216C31.9168 50.6651 31.1839 50.0165 30.4673 49.3671C27.9519 47.0873 25.5835 44.752 23.5065 41.8715C23.1835 41.4235 22.5585 41.3222 22.1105 41.6452C21.6625 41.9683 21.5612 42.5933 21.8843 43.0412C24.083 46.0906 26.5721 48.536 29.1242 50.849C29.8771 51.5313 30.631 52.1985 31.3844 52.8651L31.3847 52.8654L31.3848 52.8655C33.2059 54.4769 35.0236 56.0855 36.8153 57.8986C37.0007 58.0862 37.242 58.1851 37.4862 58.1949C37.846 58.2121 38.2029 58.0336 38.3976 57.7012C40.879 53.4632 43.1044 49.1166 45.2838 44.86L45.2841 44.8593C46.1688 43.1314 47.0458 41.4184 47.9294 39.7334C51.0036 33.8706 54.1745 28.3092 58.0895 23.4298Z" fill="#212121"/>
</svg>
