<svg width="310" height="310" viewBox="0 0 310 310" fill="none" xmlns="http://www.w3.org/2000/svg">
<g clip-path="url(#clip0)">
<path d="M106.451 67.0752C114.881 30.4148 107.101 7.58259 102.157 0.749023L235.632 18.436C241.096 39.3388 240.706 57.8298 230.168 96.4196C221.738 127.291 226.656 180.567 230.168 203.345L94.352 184.453C86.5465 138.225 95.9131 112.901 106.451 67.0752Z" fill="white" stroke="black" stroke-width="1.67105"/>
<circle cx="168.859" cy="63.661" r="26.0184" fill="#212121" stroke="black" stroke-width="0.836952"/>
<path d="M165.332 28.4622C167.152 25.9807 170.318 25.1996 171.673 25.1191C182.771 27.5513 174.765 33.356 172.282 39.9532C171.279 42.6206 181.012 43.3128 183.123 47.4382C185.189 51.4751 184.246 54.2886 184.246 60.2553C183.902 65.3213 182.308 69.5414 180.151 77.5837C179.004 81.8585 177.878 85.4806 176.792 88.402C176.792 88.402 172.127 90.0601 165.815 89.4606C159.504 88.8612 157.071 86.6752 157.071 86.6752L158.289 77.5837C159.463 69.9507 156.557 61.4401 154.958 58.1389C153.221 63.8686 149.42 75.7792 148.113 77.5837C146.48 79.8393 145.002 79.2171 144.147 78.206C143.291 77.1948 135.669 61.2501 134.035 58.1389C132.729 55.65 129.913 51.035 128.669 49.0387L131.469 46.9387C132.117 47.9239 134.175 50.8899 137.224 54.8722C140.273 58.8545 143.68 65.0872 145.002 67.7057C146.509 62.189 148.2 53.8251 149.897 48.3224C152.143 41.0352 155.686 41.3331 157.83 41.7111C160.328 42.1514 163.567 42.3358 165.332 41.7111C166.358 41.3479 167.279 39.8325 167.417 38.1093C167.555 36.3861 163.475 38.2994 162.84 35.805C162.435 34.2153 164.187 30.0116 165.332 28.4622Z" fill="white"/>
<path d="M171.673 25.1191L171.648 24.6958C171.687 24.6935 171.726 24.6966 171.764 24.7049L171.673 25.1191ZM165.332 28.4622L165.674 28.7129L165.673 28.7142L165.332 28.4622ZM162.84 35.805L162.429 35.9096V35.9096L162.84 35.805ZM167.417 38.1093L166.994 38.0755V38.0755L167.417 38.1093ZM165.332 41.7111L165.473 42.1109L165.332 41.7111ZM157.83 41.7111L157.757 42.1288L157.83 41.7111ZM149.897 48.3224L149.492 48.1974L149.897 48.3224ZM145.002 67.7057L145.411 67.8175C145.365 67.9868 145.219 68.1101 145.045 68.1277C144.87 68.1453 144.703 68.0535 144.624 67.8969L145.002 67.7057ZM137.224 54.8722L137.561 54.6144L137.224 54.8722ZM131.469 46.9387L131.214 46.5994C131.308 46.5292 131.426 46.5008 131.541 46.5209C131.657 46.541 131.759 46.6078 131.823 46.7056L131.469 46.9387ZM128.669 49.0387L128.309 49.2631C128.192 49.0763 128.238 48.8315 128.414 48.6994L128.669 49.0387ZM134.035 58.1389L134.411 57.9418L134.035 58.1389ZM144.147 78.206L144.47 77.932L144.147 78.206ZM148.113 77.5837L147.77 77.335L148.113 77.5837ZM154.958 58.1389L154.552 58.0159C154.603 57.8488 154.751 57.7298 154.925 57.7161C155.099 57.7024 155.263 57.7969 155.34 57.954L154.958 58.1389ZM158.289 77.5837L157.868 77.5274L157.87 77.5193L158.289 77.5837ZM157.071 86.6752L156.788 86.9906C156.683 86.8969 156.632 86.7578 156.651 86.6189L157.071 86.6752ZM172.282 39.9532L172.679 40.1025L172.282 39.9532ZM184.246 60.2553H184.67C184.67 60.2649 184.67 60.2744 184.669 60.284L184.246 60.2553ZM183.123 47.4382L183.501 47.245L183.123 47.4382ZM176.792 88.402L177.189 88.5498C177.145 88.6674 177.052 88.7596 176.934 88.8016L176.792 88.402ZM180.151 77.5837L179.741 77.4738L180.151 77.5837ZM165.815 89.4606L165.775 89.8828H165.775L165.815 89.4606ZM171.698 25.5425C171.07 25.5797 169.989 25.7835 168.845 26.2793C167.704 26.7744 166.527 27.5496 165.674 28.7129L164.99 28.2114C165.957 26.8933 167.272 26.0372 168.508 25.5012C169.742 24.966 170.921 24.739 171.648 24.6958L171.698 25.5425ZM163.251 35.7003C163.373 36.1797 163.644 36.431 164.007 36.5844C164.4 36.75 164.895 36.7982 165.437 36.8227C165.937 36.8453 166.528 36.8458 166.961 36.964C167.188 37.026 167.432 37.134 167.61 37.3436C167.798 37.5652 167.864 37.8429 167.84 38.1432L166.994 38.0755C167.005 37.945 166.974 37.9055 166.963 37.8922C166.941 37.8668 166.884 37.8221 166.738 37.7822C166.424 37.6965 165.982 37.6963 165.399 37.67C164.859 37.6456 164.224 37.5967 163.677 37.3657C163.101 37.1224 162.624 36.6775 162.429 35.9096L163.251 35.7003ZM167.84 38.1432C167.766 39.0669 167.483 39.9387 167.073 40.635C166.67 41.3227 166.116 41.8837 165.473 42.1109L165.191 41.3113C165.575 41.1753 165.995 40.7971 166.342 40.2054C166.685 39.6225 166.931 38.875 166.994 38.0755L167.84 38.1432ZM165.473 42.1109C164.518 42.449 163.206 42.5578 161.849 42.5345C160.481 42.511 159.024 42.3522 157.757 42.1288L157.904 41.2935C159.134 41.5103 160.546 41.6638 161.863 41.6865C163.191 41.7093 164.38 41.598 165.191 41.3113L165.473 42.1109ZM157.757 42.1288C156.701 41.9426 155.405 41.7991 154.106 42.5139C152.807 43.2286 151.409 44.857 150.302 48.4473L149.492 48.1974C150.631 44.5006 152.127 42.6344 153.697 41.7708C155.267 40.9072 156.815 41.1016 157.904 41.2935L157.757 42.1288ZM150.302 48.4473C149.459 51.1833 148.615 54.6368 147.791 58.1067C146.969 61.5697 146.167 65.0502 145.411 67.8175L144.593 67.594C145.344 64.8446 146.141 61.3847 146.966 57.9109C147.789 54.444 148.639 50.9642 149.492 48.1974L150.302 48.4473ZM144.624 67.8969C143.304 65.2841 139.912 59.08 136.888 55.13L137.561 54.6144C140.635 58.6289 144.056 64.8902 145.381 67.5146L144.624 67.8969ZM136.888 55.13C133.834 51.1417 131.769 48.1673 131.114 47.1718L131.823 46.7056C132.464 47.6804 134.517 50.638 137.561 54.6144L136.888 55.13ZM131.723 47.2779L128.923 49.378L128.414 48.6994L131.214 46.5994L131.723 47.2779ZM129.028 48.8144C130.272 50.8092 133.096 55.4369 134.411 57.9418L133.66 58.336C132.361 55.863 129.554 51.2609 128.309 49.2631L129.028 48.8144ZM134.411 57.9418C135.231 59.5038 137.55 64.2784 139.763 68.7726C140.871 71.0231 141.954 73.2059 142.813 74.8886C143.243 75.7302 143.615 76.4443 143.906 76.9781C144.051 77.2453 144.175 77.4646 144.274 77.6309C144.378 77.8057 144.442 77.8989 144.47 77.932L143.823 78.4799C143.744 78.3866 143.648 78.2368 143.546 78.0654C143.439 77.8855 143.309 77.6555 143.161 77.3838C142.865 76.8401 142.489 76.1182 142.058 75.2742C141.196 73.5857 140.111 71.3982 139.002 69.1473C136.782 64.6385 134.473 59.8851 133.66 58.336L134.411 57.9418ZM144.47 77.932C144.858 78.3905 145.334 78.6958 145.838 78.6958C146.328 78.6958 146.994 78.406 147.77 77.335L148.457 77.8324C147.599 79.017 146.71 79.5439 145.838 79.5439C144.981 79.5439 144.29 79.0325 143.823 78.4799L144.47 77.932ZM147.77 77.335C147.907 77.1463 148.094 76.7963 148.326 76.2892C148.553 75.7898 148.812 75.1624 149.095 74.4364C149.659 72.9847 150.308 71.1542 150.973 69.1969C152.301 65.2832 153.684 60.8778 154.552 58.0159L155.364 58.2619C154.494 61.1297 153.108 65.5445 151.776 69.4696C151.11 71.4318 150.456 73.2754 149.885 74.7435C149.6 75.4774 149.334 76.1213 149.097 76.6411C148.864 77.1531 148.647 77.57 148.457 77.8324L147.77 77.335ZM155.34 57.954C156.956 61.291 159.9 69.8938 158.708 77.6482L157.87 77.5193C159.025 70.0077 156.158 61.5892 154.576 58.3238L155.34 57.954ZM158.709 77.64L157.491 86.7315L156.651 86.6189L157.869 77.5274L158.709 77.64ZM171.886 39.8038C172.523 38.1109 173.51 36.4781 174.434 34.9725C175.37 33.447 176.227 32.0701 176.671 30.8312C177.11 29.6059 177.108 28.6211 176.465 27.7961C175.79 26.9298 174.337 26.137 171.583 25.5334L171.764 24.7049C174.559 25.3174 176.267 26.1623 177.134 27.2746C178.033 28.4281 177.955 29.7628 177.47 31.1174C176.989 32.4583 176.073 33.9216 175.157 35.416C174.228 36.9302 173.284 38.4969 172.679 40.1025L171.886 39.8038ZM183.822 60.2553C183.822 58.7526 183.881 57.4493 183.938 56.2827C183.994 55.1123 184.046 54.0894 184.035 53.1279C184.014 51.223 183.742 49.5783 182.746 47.6314L183.501 47.245C184.57 49.335 184.86 51.1155 184.883 53.1182C184.895 54.1106 184.841 55.1621 184.785 56.3235C184.729 57.4887 184.67 58.7746 184.67 60.2553H183.822ZM182.746 47.6314C182.274 46.7085 181.354 45.9427 180.186 45.271C179.023 44.6019 177.668 44.0558 176.378 43.5431C175.109 43.0386 173.876 42.5573 173.031 42.0272C172.608 41.7619 172.237 41.4581 172.013 41.0942C171.773 40.7068 171.711 40.2673 171.886 39.8038L172.679 40.1025C172.603 40.3059 172.625 40.4716 172.734 40.6487C172.858 40.8493 173.1 41.0695 173.481 41.3086C174.245 41.7875 175.389 42.2372 176.691 42.7549C177.973 43.2643 179.385 43.8314 180.609 44.5358C181.829 45.2375 182.918 46.1052 183.501 47.245L182.746 47.6314ZM176.394 88.2543C177.474 85.3491 178.596 81.7405 179.741 77.4738L180.56 77.6936C179.411 81.9766 178.281 85.6121 177.189 88.5498L176.394 88.2543ZM179.741 77.4738C181.912 69.3826 183.482 65.2377 183.823 60.2265L184.669 60.284C184.321 65.405 182.705 69.7001 180.56 77.6936L179.741 77.4738ZM162.429 35.9096C162.304 35.418 162.353 34.7808 162.481 34.1237C162.612 33.4531 162.836 32.7076 163.107 31.9722C163.644 30.5089 164.385 29.0295 164.991 28.2101L165.673 28.7142C165.134 29.4442 164.426 30.8415 163.903 32.2648C163.642 32.9727 163.433 33.673 163.314 34.2861C163.191 34.9128 163.173 35.3971 163.251 35.7003L162.429 35.9096ZM157.071 86.6752C157.355 86.3597 157.354 86.3596 157.354 86.3594C157.354 86.3594 157.354 86.3592 157.354 86.3592C157.354 86.359 157.354 86.3589 157.354 86.3588C157.353 86.3587 157.353 86.3586 157.354 86.3587C157.354 86.359 157.355 86.3597 157.356 86.3609C157.359 86.3634 157.364 86.3679 157.372 86.3743C157.387 86.3871 157.412 86.4075 157.447 86.4347C157.518 86.4891 157.629 86.5705 157.783 86.6715C158.09 86.8735 158.572 87.1544 159.249 87.4556C160.603 88.0578 162.744 88.7429 165.856 89.0385L165.775 89.8828C162.576 89.5789 160.345 88.8714 158.904 88.2306C158.184 87.9104 157.663 87.6073 157.317 87.3807C157.145 87.2674 157.016 87.1733 156.929 87.1058C156.885 87.072 156.852 87.045 156.828 87.0254C156.817 87.0157 156.807 87.0078 156.801 87.002C156.797 86.9991 156.795 86.9966 156.792 86.9947C156.791 86.9938 156.79 86.993 156.79 86.9923C156.789 86.9919 156.789 86.9916 156.789 86.9913C156.788 86.9912 156.788 86.991 156.788 86.9909C156.788 86.9908 156.788 86.9906 157.071 86.6752ZM165.856 89.0385C168.966 89.3338 171.671 89.073 173.598 88.7383C174.561 88.571 175.328 88.3856 175.853 88.2426C176.115 88.1711 176.316 88.1103 176.451 88.0677C176.519 88.0464 176.569 88.0297 176.603 88.0185C176.619 88.0129 176.632 88.0087 176.639 88.006C176.643 88.0046 176.646 88.0036 176.648 88.003C176.649 88.0028 176.649 88.0026 176.65 88.0025C176.65 88.0024 176.65 88.0024 176.65 88.0024C176.65 88.0024 176.65 88.0024 176.65 88.0024C176.65 88.0024 176.65 88.0024 176.792 88.402C176.934 88.8016 176.934 88.8017 176.933 88.8017C176.933 88.8018 176.933 88.8018 176.933 88.8019C176.933 88.802 176.932 88.8021 176.932 88.8022C176.931 88.8025 176.93 88.8029 176.929 88.8034C176.926 88.8044 176.922 88.8058 176.917 88.8076C176.906 88.8111 176.892 88.8161 176.873 88.8225C176.835 88.8353 176.779 88.8536 176.707 88.8765C176.562 88.9223 176.349 88.9863 176.076 89.0609C175.528 89.2101 174.735 89.4016 173.743 89.574C171.76 89.9184 168.977 90.1869 165.775 89.8828L165.856 89.0385Z" fill="#212121"/>
<path d="M177.781 43.7295C176.086 44.5426 171.666 46.0303 166.533 44.4593C162.737 43.2977 162.231 42.0777 163.746 42.0186" stroke="#212121" stroke-width="0.762364" stroke-linecap="round" stroke-linejoin="round"/>
<path d="M182.104 85.1312C176.96 76.0414 175.41 56.1004 175.763 49.1245L184.429 54.1295V76.4642C185.698 75.3368 189.08 72.7296 192.462 71.3204C195.844 69.9111 200.73 65.7068 202.75 63.7808L205.639 66.5994C203.032 69.4179 188.446 81.608 185.839 84.0742C183.753 86.0472 182.48 85.6009 182.104 85.1312Z" fill="white"/>
<path d="M151.169 54.5907C149.062 52.9141 150.052 50.7386 150.81 49.8604C153.325 47.5252 154.822 50.4592 155.121 52.1956C155.421 53.9321 153.804 56.6864 151.169 54.5907Z" fill="#1B4942"/>
<path fill-rule="evenodd" clip-rule="evenodd" d="M150.182 71.5289C150.036 71.9324 149.569 73.227 149.216 74.1996C148.879 75.1308 148.348 76.254 148.148 76.6692C147.81 76.5516 147.448 76.3492 147.064 76.0438C144.956 74.3673 145.946 72.1917 146.705 71.3135C148.275 69.855 149.449 70.452 150.182 71.5289Z" fill="#1B4942"/>
<path fill-rule="evenodd" clip-rule="evenodd" d="M156.188 41.8296C155.79 42.8703 155.775 44.2591 157.224 45.412C159.859 47.5077 161.475 44.7533 161.176 43.0169C161.14 42.8102 161.088 42.5865 161.018 42.3568L156.188 41.8296Z" fill="#1B4942"/>
<path d="M171.126 51.764C169.019 50.0875 170.009 47.9119 170.767 47.0337C173.282 44.6985 174.779 47.6325 175.078 49.369C175.378 51.1054 173.761 53.8597 171.126 51.764Z" fill="#1B4942"/>
<path d="M161.736 56.6395C159.628 54.963 160.618 52.7874 161.376 51.9092C163.891 49.574 165.388 52.508 165.688 54.2444C165.987 55.9809 164.37 58.7352 161.736 56.6395Z" fill="#1B4942"/>
<path d="M177.611 74.39C175.503 72.7135 176.493 70.5379 177.251 69.6597C179.766 67.3245 181.263 70.2585 181.563 71.9949C181.862 73.7314 180.245 76.4857 177.611 74.39Z" fill="#1B4942"/>
<path d="M163.474 69.5453C161.366 67.8687 162.356 65.6932 163.115 64.815C165.63 62.4798 167.126 65.4138 167.426 67.1502C167.725 68.8866 166.109 71.641 163.474 69.5453Z" fill="#1B4942"/>
<path d="M176.376 62.1298C174.269 60.4532 175.259 58.2777 176.017 57.3995C178.532 55.0643 180.029 57.9982 180.328 59.7347C180.628 61.4711 179.011 64.2255 176.376 62.1298Z" fill="#1B4942"/>
<path fill-rule="evenodd" clip-rule="evenodd" d="M181.03 45.8042C182.276 46.5707 183.185 47.9217 183.758 50.3548L183.91 51.2286C183.224 51.6655 182.273 51.6688 181.13 50.7599C179.023 49.0834 180.013 46.9078 180.771 46.0296C180.859 45.9482 180.945 45.8731 181.03 45.8042Z" fill="#1B4942"/>
<path fill-rule="evenodd" clip-rule="evenodd" d="M189.266 73.3724C190.258 72.8287 191.531 72.1448 192.361 71.741C193.066 71.3981 193.555 71.1423 193.864 70.9722C194.035 71.3891 194.154 71.8144 194.218 72.1852C194.517 73.9216 192.9 76.6759 190.266 74.5802C189.784 74.1966 189.463 73.7868 189.266 73.3724Z" fill="#1B4942"/>
<path d="M168.482 79.7489C166.374 78.0723 167.364 75.8968 168.123 75.0186C170.637 72.6834 172.134 75.6174 172.434 77.3538C172.733 79.0903 171.116 81.8446 168.482 79.7489Z" fill="#1B4942"/>
<path fill-rule="evenodd" clip-rule="evenodd" d="M158.809 76.8066C160.153 76.9477 160.963 78.7728 161.175 79.9999C161.446 81.5714 160.147 83.9765 157.945 82.866C157.97 82.6935 157.996 82.5119 158.024 82.3193C158.115 81.6835 158.224 80.9278 158.365 79.9817C158.531 78.8623 158.697 77.6859 158.809 76.8066Z" fill="#1B4942"/>
<path fill-rule="evenodd" clip-rule="evenodd" d="M177.371 85.8636L177.301 85.7003L176.61 87.9629C176.61 87.9629 176.284 88.2678 175.218 88.4453C174.455 88.5726 173.576 88.7376 173.14 88.8208C171.869 87.257 172.721 85.4649 173.392 84.688C175.393 82.8301 176.749 84.3076 177.371 85.8636Z" fill="#1B4942"/>
<path fill-rule="evenodd" clip-rule="evenodd" d="M138.251 65.6798C138.888 65.0257 139.183 63.9613 139.04 63.1302C138.776 61.5961 137.576 59.1274 135.566 60.183L138.251 65.6798Z" fill="#1B4942"/>
<path fill-rule="evenodd" clip-rule="evenodd" d="M132.019 48.478C131.34 49.4989 130.782 51.3715 132.646 52.854C133.823 53.7906 134.797 53.7585 135.488 53.2814L132.019 48.478Z" fill="#1B4942"/>
<path fill-rule="evenodd" clip-rule="evenodd" d="M147.538 59.1439L146.153 64.9339C147.961 66.4376 149.783 64.4925 149.928 62.9306C150.068 61.4273 149.588 58.8462 147.538 59.1439Z" fill="#1B4942"/>
<path fill-rule="evenodd" clip-rule="evenodd" d="M180.794 83.483C181.822 82.9908 182.346 81.5623 182.164 80.5086C181.901 78.9817 180.712 76.5287 178.719 77.5469C179.297 79.248 180.374 82.3798 180.794 83.483Z" fill="#1B4942"/>
<path d="M175.763 49.1245C175.41 56.1004 176.96 76.0414 182.104 85.1312C182.48 85.6009 183.753 86.0472 185.839 84.0742C188.446 81.608 203.032 69.4179 205.639 66.5994L202.75 63.7808C200.73 65.7068 195.844 69.9111 192.462 71.3204C189.08 72.7296 185.698 75.3368 184.429 76.4642V54.1295" stroke="#212121" stroke-width="0.848165" stroke-linecap="round" stroke-linejoin="round"/>
<path d="M202.953 63.7509C204.208 62.2694 205.744 60.6729 206.618 59.9248C206.814 59.757 207.842 55.6454 208.402 55.5357C208.573 55.5021 208.637 56.2559 208.698 57.0993L209.119 59.32C211.88 59.0217 215.862 59.0518 216.108 59.0512C216.46 59.0504 211.981 60.2503 211.42 60.4515C210.859 60.6526 215.625 60.2037 216.425 60.335C217.19 60.4607 212.376 61.5483 211.356 61.5442C212.347 61.6629 217.531 62.367 216.61 62.4185L216.61 62.4185C215.545 62.4781 211.283 62.7165 211.739 62.7915C212.196 62.8666 217.282 64.7577 216.254 64.5888C215.226 64.42 209.259 63.7246 208.402 63.5839C207.716 63.4713 205.872 65.7008 205.315 66.235L202.953 63.7509Z" fill="white"/>
<path d="M208.402 55.5357C207.842 55.6454 206.814 59.757 206.618 59.9248C205.744 60.6729 204.208 62.2694 202.953 63.7509L205.315 66.235C205.872 65.7008 207.716 63.4713 208.402 63.5839C209.259 63.7246 215.226 64.42 216.254 64.5888C217.282 64.7577 212.196 62.8666 211.739 62.7915C211.283 62.7165 215.545 62.4781 216.61 62.4185C217.676 62.3589 210.556 61.4241 211.242 61.5366C211.927 61.6492 217.224 60.4664 216.425 60.335C215.625 60.2037 210.859 60.6526 211.42 60.4515C211.981 60.2503 216.46 59.0504 216.108 59.0512C215.862 59.0518 211.88 59.0217 209.119 59.32M208.402 55.5357C208.787 55.4602 208.629 59.3728 209.119 59.32M208.402 55.5357L209.119 59.32" stroke="#212121" stroke-width="0.848165" stroke-linecap="round" stroke-linejoin="round"/>
<path d="M131.469 46.9253C130.47 45.2599 129.213 43.4355 128.472 42.5557C127.546 41.456 119.596 40.2135 119.249 40.1556C118.902 40.0977 123.127 42.0077 123.648 42.2971C124.169 42.5865 119.539 41.3711 118.728 41.3711C117.953 41.3711 122.527 43.2245 123.534 43.3857C122.537 43.3423 117.308 43.1969 118.207 43.3969C119.249 43.6284 123.417 44.5545 122.954 44.5545C122.49 44.5545 117.166 45.5963 118.207 45.5963C119.249 45.5963 125.25 45.8773 126.119 45.8773C126.813 45.8773 128.272 48.3763 128.735 48.9937L131.469 46.9253Z" fill="white" stroke="#212121" stroke-width="0.848165" stroke-linecap="round" stroke-linejoin="round"/>
<path d="M174.355 58.7607C173.906 63.0682 168.35 66.3014 164.844 60.5991C161.606 55.3336 163.365 53.4358 164.4 54.6534C165.124 55.5045 165.384 58.3628 163.805 60.5991C160.736 64.9472 156.025 61.7047 157.31 57.8479" stroke="#212121" stroke-width="0.848165" stroke-linecap="round" stroke-linejoin="round"/>
<path d="M170.973 31.0354C168.722 29.9902 162.711 26.3646 162.209 25.3931C163.214 24.4777 170.973 23.6502 176.122 24.8631C180.241 25.8335 180.113 32.7577 179.534 36.0985C182.157 35.0783 189.721 32.6374 198.991 31.0354C210.578 29.0329 227.63 31.0354 226.974 43.3129C226.318 55.5904 208.829 56.8671 200.74 47.248C192.651 37.6288 182.595 43.7501 177.348 40.4708C173.15 37.8474 172.12 31.714 172.129 28.9752L170.973 31.0354Z" fill="#FFB359" stroke="#FFB359" stroke-width="0.848165" stroke-linecap="round" stroke-linejoin="round"/>
<path d="M173.946 33.8966C174.289 32.5788 172.825 32.6187 172.049 32.8033L170.841 35.4139C171.733 35.4573 173.602 35.2145 173.946 33.8966Z" fill="white"/>
<path d="M122.203 102.326C124.794 99.6728 131.088 96.662 135.53 105.843C141.083 117.318 161.072 102.326 163.294 107.138C165.515 111.951 168.106 111.025 172.178 110.47C176.25 109.915 180.877 107.694 183.654 110.47C185.875 112.691 193.464 113 196.98 112.876" stroke="black" stroke-width="1.67105" stroke-linecap="round" stroke-linejoin="round"/>
<path d="M120.656 118.429C123.248 115.776 129.541 112.765 133.983 121.946C139.536 133.421 159.526 118.429 161.747 123.241C163.968 128.054 166.559 127.128 170.631 126.573C174.703 126.018 179.33 123.797 182.107 126.573C184.328 128.794 191.917 129.103 195.433 128.979" stroke="black" stroke-width="1.67105" stroke-linecap="round" stroke-linejoin="round"/>
<path d="M118.773 134.532C121.365 131.879 127.658 128.869 132.1 138.049C137.653 149.525 157.643 134.532 159.864 139.345C162.085 144.157 164.676 143.232 168.748 142.676C172.82 142.121 177.448 139.9 180.224 142.676C182.445 144.898 190.034 145.206 193.551 145.083" stroke="black" stroke-width="1.67105" stroke-linecap="round" stroke-linejoin="round"/>
<path d="M118.773 134.532C121.365 131.879 127.658 128.869 132.1 138.049C137.653 149.525 157.643 134.532 159.864 139.345C162.085 144.157 164.676 143.232 168.748 142.676C172.82 142.121 177.448 139.9 180.224 142.676C182.445 144.898 190.034 145.206 193.551 145.083" stroke="black" stroke-width="1.67105" stroke-linecap="round" stroke-linejoin="round"/>
<circle cx="120.658" cy="146.973" r="55.5369" fill="white" stroke="#212121" stroke-width="1.67105"/>
<circle cx="120.656" cy="146.974" r="48.3519" fill="#1B4942" stroke="#212121" stroke-width="1.67105"/>
<path d="M83.8132 178.132C83.2323 150.635 86.7985 122.3 88.6542 111.569C95.1088 105.356 112.859 94.3352 132.223 99.9507C156.427 106.97 170.95 129.238 168.772 152.475C166.593 175.712 144.083 197.254 119.636 195.559C100.079 194.204 87.6053 183.376 83.8132 178.132Z" fill="white" stroke="black" stroke-width="1.67105"/>
<path d="M104.293 145.957C106.884 143.304 113.177 140.293 117.62 149.474C123.172 160.95 143.162 145.957 145.383 150.77C147.605 155.582 150.196 154.657 154.268 154.101C158.34 153.546 165.199 151.325 167.976 154.101" stroke="black" stroke-width="1.67105" stroke-linecap="round" stroke-linejoin="round"/>
<path d="M104.582 123.307C107.73 120.084 115.376 116.426 120.773 127.58C127.519 141.522 151.806 123.307 154.504 129.154C157.203 135.001 161.91 133.834 166.857 133.159" stroke="black" stroke-width="1.67105" stroke-linecap="round" stroke-linejoin="round"/>
<path d="M104.293 104.697C107.636 101.274 115.756 97.3895 121.488 109.235C126.806 120.225 142.385 112.401 151.236 110.176" stroke="black" stroke-width="1.67105" stroke-linecap="round" stroke-linejoin="round"/>
<rect x="79.4918" y="185.836" width="10.9643" height="87.3012" rx="4.18619" transform="rotate(42.3642 79.4918 185.836)" fill="white" stroke="#212121" stroke-width="1.67105"/>
</g>
<path d="M104.565 288.928C131.72 285.853 158.844 282.177 185.909 278.376C191.996 277.521 198.189 276.741 204.125 275.204" stroke="#FFB359" stroke-width="3.85627" stroke-linecap="round" stroke-linejoin="round"/>
<path d="M90.7282 300.498C133.124 296.173 175.23 289.156 217.602 284.528" stroke="#FFB359" stroke-width="3.85627" stroke-linecap="round" stroke-linejoin="round"/>
<defs>
<clipPath id="clip0">
<rect width="308.502" height="258.16" fill="white" transform="translate(0.75 0.749023)"/>
</clipPath>
</defs>
</svg>
