<svg width="240" height="241" viewBox="0 0 240 241" fill="none" xmlns="http://www.w3.org/2000/svg">
<g clip-path="url(#clip0)">
<path d="M133.795 85.9206L124.432 67.9912L123.894 67.6461L110.831 68.3454L108.66 70.2195L107.049 86.6029L113.258 85.3466L120.763 90.1508L129.087 85.3466L133.795 85.9206Z" fill="#212121" stroke="#212121"/>
<path d="M71.3887 51.6918C77.9468 23.1717 71.8947 5.40933 68.0489 0.0931396L171.886 13.8528C176.137 30.1142 175.833 44.4993 167.635 74.5204C161.077 98.5372 164.903 139.983 167.635 157.704L61.9765 143.006C55.9042 107.043 63.191 87.3419 71.3887 51.6918Z" fill="white" stroke="black" stroke-width="1.3"/>
<circle r="20.2411" transform="matrix(-1 0 0 1 121.636 48.4947)" fill="#212121" stroke="black" stroke-width="0.65111"/>
<path d="M124.376 21.1116C122.96 19.1812 120.497 18.5735 119.442 18.5109C110.809 20.403 117.037 24.9188 118.968 30.0511C119.749 32.1263 112.177 32.6647 110.535 35.8741C108.928 39.0146 109.661 41.2034 109.661 45.8452C109.929 49.7863 111.169 53.0693 112.847 59.3259C113.74 62.6515 114.616 65.4693 115.46 67.7421C115.46 67.7421 119.089 69.0319 123.999 68.5656C128.909 68.0993 130.802 66.3986 130.802 66.3986L129.855 59.3259C128.942 53.3878 131.202 46.7669 132.446 44.1987C133.797 48.6562 136.754 57.9221 137.771 59.3259C139.042 61.0807 140.191 60.5966 140.857 59.81C141.522 59.0234 147.452 46.6191 148.723 44.1987C149.74 42.2625 151.93 38.6723 152.898 37.1192L150.72 35.4855C150.215 36.2519 148.614 38.5593 146.242 41.6574C143.87 44.7554 141.22 49.6042 140.191 51.6413C139.019 47.3495 137.703 40.8428 136.383 36.5619C134.636 30.8929 131.88 31.1246 130.212 31.4187C128.268 31.7612 125.749 31.9047 124.376 31.4187C123.577 31.1361 122.861 29.9572 122.753 28.6167C122.646 27.2761 125.82 28.7645 126.314 26.824C126.629 25.5873 125.266 22.317 124.376 21.1116Z" fill="white"/>
<path d="M119.442 18.5109L119.462 18.1816C119.432 18.1798 119.401 18.1822 119.372 18.1886L119.442 18.5109ZM124.376 21.1116L124.11 21.3067L124.11 21.3077L124.376 21.1116ZM126.314 26.824L126.634 26.9054L126.314 26.824ZM124.376 31.4187L124.266 31.7297L124.376 31.4187ZM130.212 31.4187L130.154 31.0938L130.212 31.4187ZM136.383 36.5619L136.699 36.4647L136.383 36.5619ZM140.191 51.6413L139.873 51.7282C139.909 51.8599 140.022 51.9559 140.158 51.9696C140.294 51.9832 140.424 51.9119 140.486 51.79L140.191 51.6413ZM146.242 41.6574L145.98 41.4568L146.242 41.6574ZM150.72 35.4855L150.918 35.2215C150.845 35.1669 150.753 35.1448 150.663 35.1605C150.573 35.1761 150.494 35.2281 150.444 35.3042L150.72 35.4855ZM152.898 37.1192L153.178 37.2937C153.269 37.1484 153.233 36.958 153.096 36.8553L152.898 37.1192ZM148.723 44.1987L148.431 44.0454L148.723 44.1987ZM137.771 59.3259L138.038 59.1324L137.771 59.3259ZM132.446 44.1987L132.762 44.103C132.722 43.973 132.607 43.8805 132.472 43.8698C132.337 43.8592 132.208 43.9326 132.149 44.0549L132.446 44.1987ZM129.855 59.3259L130.182 59.2821L130.181 59.2758L129.855 59.3259ZM130.802 66.3986L131.023 66.644C131.104 66.5711 131.144 66.4629 131.129 66.3548L130.802 66.3986ZM118.968 30.0511L119.277 29.9349L118.968 30.0511ZM109.661 45.8452L109.331 45.8452C109.331 45.8526 109.332 45.8601 109.332 45.8675L109.661 45.8452ZM110.535 35.8741L110.241 35.7238H110.241L110.535 35.8741ZM115.46 67.7421L115.151 67.857C115.185 67.9485 115.258 68.0202 115.35 68.0529L115.46 67.7421ZM112.847 59.3259L112.529 59.4114L112.847 59.3259ZM123.999 68.5656L123.968 68.2372H123.968L123.999 68.5656ZM119.423 18.8402C119.911 18.8692 120.753 19.0277 121.642 19.4135C122.53 19.7986 123.446 20.4016 124.11 21.3067L124.642 20.9165C123.89 19.8912 122.866 19.2251 121.905 18.8081C120.945 18.3918 120.028 18.2151 119.462 18.1816L119.423 18.8402ZM125.995 26.7426C125.9 27.1155 125.689 27.311 125.406 27.4303C125.101 27.5592 124.715 27.5967 124.294 27.6157C123.905 27.6333 123.445 27.6337 123.108 27.7256C122.932 27.7739 122.742 27.8579 122.604 28.021C122.458 28.1934 122.406 28.4094 122.425 28.643L123.082 28.5904C123.074 28.4888 123.098 28.4581 123.107 28.4477C123.124 28.428 123.168 28.3932 123.282 28.3622C123.526 28.2955 123.87 28.2954 124.323 28.2749C124.743 28.2559 125.237 28.2179 125.663 28.0382C126.111 27.8489 126.482 27.5027 126.634 26.9054L125.995 26.7426ZM122.425 28.643C122.482 29.3616 122.703 30.0398 123.021 30.5815C123.335 31.1165 123.766 31.553 124.266 31.7297L124.486 31.1077C124.187 31.0019 123.86 30.7076 123.59 30.2473C123.323 29.7938 123.132 29.2123 123.082 28.5904L122.425 28.643ZM124.266 31.7297C125.009 31.9927 126.029 32.0774 127.085 32.0592C128.15 32.041 129.283 31.9174 130.269 31.7436L130.154 31.0938C129.197 31.2625 128.099 31.3819 127.074 31.3995C126.041 31.4172 125.116 31.3307 124.486 31.1077L124.266 31.7297ZM130.269 31.7436C131.09 31.5988 132.098 31.4872 133.109 32.0432C134.119 32.5992 135.207 33.866 136.068 36.6591L136.699 36.4647C135.812 33.5888 134.648 32.1369 133.427 31.4651C132.206 30.7933 131.001 30.9445 130.154 31.0938L130.269 31.7436ZM136.068 36.6591C136.724 38.7876 137.381 41.4743 138.022 44.1737C138.661 46.8677 139.285 49.5754 139.873 51.7282L140.509 51.5544C139.925 49.4154 139.305 46.7238 138.664 44.0213C138.023 41.3242 137.362 38.6171 136.699 36.4647L136.068 36.6591ZM140.486 51.79C141.512 49.7574 144.151 44.9309 146.504 41.8579L145.98 41.4568C143.589 44.5799 140.928 49.4509 139.897 51.4926L140.486 51.79ZM146.504 41.8579C148.88 38.7552 150.486 36.4413 150.995 35.6668L150.444 35.3042C149.945 36.0625 148.349 38.3634 145.98 41.4568L146.504 41.8579ZM150.522 35.7494L152.7 37.3831L153.096 36.8553L150.918 35.2215L150.522 35.7494ZM152.618 36.9447C151.651 38.4966 149.454 42.0967 148.431 44.0454L149.015 44.3521C150.025 42.4282 152.209 38.848 153.178 37.2937L152.618 36.9447ZM148.431 44.0454C147.793 45.2606 145.989 48.975 144.267 52.4712C143.405 54.2221 142.562 55.9202 141.894 57.2292C141.56 57.884 141.27 58.4395 141.044 58.8548C140.931 59.0626 140.835 59.2332 140.758 59.3626C140.676 59.4986 140.627 59.5711 140.605 59.5969L141.109 60.0231C141.17 59.9505 141.245 59.8339 141.324 59.7006C141.408 59.5607 141.508 59.3818 141.624 59.1704C141.854 58.7474 142.147 58.1858 142.482 57.5292C143.152 56.2156 143.997 54.5139 144.859 52.7627C146.586 49.2552 148.382 45.5572 149.015 44.3521L148.431 44.0454ZM140.605 59.5969C140.303 59.9536 139.933 60.191 139.541 60.191C139.16 60.191 138.641 59.9656 138.038 59.1324L137.504 59.5194C138.171 60.4409 138.863 60.8509 139.541 60.8509C140.207 60.8509 140.745 60.453 141.109 60.0231L140.605 59.5969ZM138.038 59.1324C137.932 58.9856 137.786 58.7133 137.606 58.3188C137.429 57.9303 137.227 57.4422 137.008 56.8774C136.569 55.7481 136.063 54.3241 135.546 52.8014C134.513 49.7567 133.437 46.3295 132.762 44.103L132.13 44.2944C132.807 46.5255 133.885 49.9599 134.922 53.0135C135.44 54.54 135.949 55.9742 136.393 57.1164C136.614 57.6873 136.821 58.1882 137.005 58.5926C137.187 58.9909 137.356 59.3152 137.504 59.5194L138.038 59.1324ZM132.149 44.0549C130.891 46.6509 128.601 53.3435 129.529 59.376L130.181 59.2758C129.282 53.4321 131.512 46.8829 132.743 44.3426L132.149 44.0549ZM129.528 59.3697L130.475 66.4424L131.129 66.3548L130.182 59.2821L129.528 59.3697ZM119.277 29.9349C118.782 28.6179 118.013 27.3476 117.295 26.1763C116.567 24.9896 115.9 23.9184 115.554 22.9546C115.213 22.0014 115.214 21.2353 115.715 20.5934C116.24 19.9195 117.37 19.3028 119.513 18.8332L119.372 18.1886C117.198 18.6651 115.869 19.3224 115.194 20.1877C114.495 21.0851 114.555 22.1235 114.933 23.1773C115.307 24.2205 116.019 25.3588 116.732 26.5214C117.455 27.6994 118.19 28.9182 118.66 30.1673L119.277 29.9349ZM109.991 45.8452C109.991 44.6762 109.945 43.6623 109.901 42.7547C109.857 41.8442 109.817 41.0484 109.825 40.3004C109.842 38.8185 110.053 37.539 110.828 36.0244L110.241 35.7238C109.409 37.3497 109.183 38.7348 109.165 40.2929C109.157 41.0649 109.199 41.8829 109.242 42.7864C109.286 43.6929 109.331 44.6933 109.331 45.8452L109.991 45.8452ZM110.828 36.0244C111.196 35.3064 111.911 34.7107 112.82 34.1881C113.724 33.6676 114.779 33.2428 115.782 32.8439C116.77 32.4514 117.729 32.077 118.386 31.6646C118.715 31.4582 119.004 31.2218 119.178 30.9387C119.364 30.6374 119.413 30.2955 119.277 29.9349L118.66 30.1673C118.719 30.3255 118.702 30.4544 118.617 30.5922C118.521 30.7483 118.332 30.9195 118.036 31.1056C117.442 31.4781 116.552 31.8279 115.538 32.2307C114.541 32.627 113.443 33.0682 112.491 33.6162C111.542 34.162 110.695 34.8371 110.241 35.7238L110.828 36.0244ZM115.77 67.6271C114.93 65.367 114.057 62.5597 113.166 59.2404L112.529 59.4114C113.423 62.7433 114.302 65.5716 115.151 67.857L115.77 67.6271ZM113.166 59.2404C111.477 52.9458 110.255 49.7212 109.99 45.8228L109.332 45.8675C109.603 49.8514 110.86 53.1928 112.529 59.4114L113.166 59.2404ZM126.634 26.9054C126.732 26.523 126.693 26.0272 126.593 25.516C126.492 24.9943 126.317 24.4144 126.107 23.8422C125.688 22.7039 125.112 21.553 124.641 20.9155L124.11 21.3077C124.53 21.8756 125.08 22.9626 125.488 24.0699C125.69 24.6206 125.853 25.1654 125.946 25.6424C126.041 26.1299 126.055 26.5067 125.995 26.7426L126.634 26.9054ZM130.802 66.3986C130.582 66.1532 130.582 66.1531 130.582 66.153C130.582 66.153 130.582 66.1529 130.582 66.1528C130.582 66.1527 130.582 66.1526 130.582 66.1525C130.583 66.1524 130.583 66.1524 130.582 66.1525C130.582 66.1526 130.582 66.1532 130.581 66.1541C130.578 66.1561 130.574 66.1596 130.568 66.1645C130.556 66.1745 130.537 66.1904 130.509 66.2116C130.455 66.2539 130.369 66.3172 130.249 66.3958C130.009 66.5529 129.635 66.7715 129.108 67.0058C128.055 67.4742 126.389 68.0073 123.968 68.2372L124.031 68.894C126.52 68.6576 128.255 68.1072 129.376 67.6087C129.936 67.3596 130.342 67.1238 130.611 66.9475C130.745 66.8594 130.845 66.7862 130.913 66.7336C130.947 66.7074 130.973 66.6863 130.991 66.6711C131 66.6635 131.007 66.6574 131.013 66.6529C131.015 66.6506 131.017 66.6487 131.019 66.6472C131.02 66.6465 131.021 66.6459 131.021 66.6453C131.021 66.6451 131.022 66.6448 131.022 66.6446C131.022 66.6445 131.022 66.6443 131.022 66.6443C131.022 66.6441 131.023 66.644 130.802 66.3986ZM123.968 68.2372C121.549 68.4669 119.444 68.264 117.945 68.0036C117.196 67.8735 116.599 67.7292 116.191 67.618C115.987 67.5624 115.83 67.5151 115.725 67.482C115.673 67.4654 115.633 67.4524 115.608 67.4437C115.595 67.4393 115.585 67.4361 115.579 67.4339C115.576 67.4329 115.574 67.4321 115.572 67.4317C115.572 67.4314 115.571 67.4313 115.571 67.4312C115.571 67.4311 115.571 67.4311 115.571 67.4311C115.571 67.4311 115.571 67.4311 115.571 67.4311C115.571 67.4312 115.571 67.4312 115.46 67.7421C115.35 68.0529 115.35 68.0529 115.35 68.053C115.35 68.053 115.35 68.0531 115.35 68.0531C115.351 68.0532 115.351 68.0533 115.351 68.0534C115.352 68.0536 115.353 68.0539 115.354 68.0543C115.356 68.0551 115.359 68.0562 115.363 68.0575C115.371 68.0603 115.383 68.0642 115.397 68.0692C115.427 68.0791 115.47 68.0934 115.527 68.1112C115.639 68.1468 115.805 68.1966 116.017 68.2546C116.443 68.3707 117.06 68.5197 117.832 68.6537C119.375 68.9217 121.54 69.1306 124.031 68.894L123.968 68.2372Z" fill="#212121"/>
<path d="M114.691 32.9888C116.01 33.6214 119.449 34.7788 123.442 33.5566C126.395 32.6529 126.789 31.7038 125.61 31.6578" stroke="#212121" stroke-width="0.593084" stroke-linecap="round" stroke-linejoin="round"/>
<path d="M111.326 65.1975C115.328 58.1261 116.534 42.6129 116.26 37.186L109.517 41.0797V58.455C108.531 57.578 105.899 55.5497 103.268 54.4534C100.637 53.357 96.8363 50.0863 95.2649 48.588L93.0174 50.7806C95.0456 52.9733 106.393 62.4567 108.421 64.3753C110.044 65.9101 111.034 65.563 111.326 65.1975Z" fill="white"/>
<path d="M135.393 41.4388C137.033 40.1345 136.263 38.442 135.673 37.7588C133.716 35.9421 132.552 38.2246 132.319 39.5755C132.086 40.9264 133.344 43.0691 135.393 41.4388Z" fill="#1B4942"/>
<path fill-rule="evenodd" clip-rule="evenodd" d="M136.163 54.616C136.277 54.9305 136.64 55.937 136.914 56.6933C137.176 57.418 137.589 58.2922 137.745 58.6149C138.008 58.5234 138.29 58.3659 138.589 58.1284C140.228 56.8241 139.458 55.1316 138.868 54.4484C137.646 53.3137 136.733 53.7782 136.163 54.616Z" fill="#1B4942"/>
<path fill-rule="evenodd" clip-rule="evenodd" d="M131.49 31.5107C131.8 32.3204 131.812 33.4012 130.684 34.2983C128.635 35.9286 127.377 33.7859 127.61 32.435C127.638 32.274 127.679 32.0998 127.733 31.9208L131.49 31.5107Z" fill="#1B4942"/>
<path d="M119.87 39.2393C121.51 37.9351 120.739 36.2426 120.149 35.5594C118.193 33.7427 117.028 36.0252 116.795 37.3761C116.563 38.7269 117.82 40.8697 119.87 39.2393Z" fill="#1B4942"/>
<path d="M127.176 43.0323C128.816 41.728 128.046 40.0355 127.456 39.3523C125.5 37.5356 124.335 39.8181 124.102 41.169C123.869 42.5199 125.127 44.6626 127.176 43.0323Z" fill="#1B4942"/>
<path d="M114.825 56.8413C116.465 55.537 115.694 53.8446 115.104 53.1614C113.148 51.3447 111.983 53.6272 111.751 54.9781C111.518 56.3289 112.775 58.4717 114.825 56.8413Z" fill="#1B4942"/>
<path d="M125.821 53.0727C127.461 51.7684 126.691 50.076 126.101 49.3928C124.144 47.5761 122.98 49.8586 122.747 51.2095C122.514 52.5603 123.771 54.7031 125.821 53.0727Z" fill="#1B4942"/>
<path d="M115.784 47.3033C117.424 45.999 116.653 44.3065 116.063 43.6233C114.107 41.8066 112.942 44.0891 112.71 45.44C112.477 46.7909 113.734 48.9336 115.784 47.3033Z" fill="#1B4942"/>
<path fill-rule="evenodd" clip-rule="evenodd" d="M112.162 34.6024C111.193 35.1987 110.486 36.2497 110.04 38.1428L109.921 38.8222C110.455 39.1626 111.195 39.1655 112.085 38.4581C113.724 37.1538 112.954 35.4614 112.364 34.7782C112.296 34.7147 112.228 34.6561 112.162 34.6024Z" fill="#1B4942"/>
<path fill-rule="evenodd" clip-rule="evenodd" d="M105.76 56.0491C104.988 55.6262 103.998 55.0947 103.353 54.7807C102.803 54.5134 102.423 54.3142 102.182 54.1818C102.049 54.5065 101.957 54.8377 101.907 55.1264C101.674 56.4772 102.932 58.62 104.981 56.9896C105.357 56.6909 105.606 56.3718 105.76 56.0491Z" fill="#1B4942"/>
<path d="M121.926 61.0106C123.566 59.7063 122.796 58.0138 122.206 57.3306C120.25 55.5139 119.085 57.7964 118.852 59.1473C118.619 60.4982 119.877 62.6409 121.926 61.0106Z" fill="#1B4942"/>
<path fill-rule="evenodd" clip-rule="evenodd" d="M129.451 58.7217C128.405 58.8306 127.775 60.2511 127.61 61.206C127.399 62.4287 128.41 64.3003 130.123 63.4352C130.104 63.3011 130.083 63.1599 130.062 63.0102C129.991 62.5156 129.906 61.9277 129.797 61.1917C129.667 60.3209 129.538 59.4057 129.451 58.7217Z" fill="#1B4942"/>
<path fill-rule="evenodd" clip-rule="evenodd" d="M115.036 65.7072L115.064 65.6407L115.602 67.4009C115.602 67.4009 115.855 67.6381 116.684 67.7762C117.279 67.8753 117.963 68.0039 118.302 68.0685C119.291 66.8518 118.628 65.4575 118.106 64.853C116.576 63.4317 115.53 64.5195 115.036 65.7072Z" fill="#1B4942"/>
<path fill-rule="evenodd" clip-rule="evenodd" d="M145.444 50.0645C144.95 49.5556 144.72 48.7281 144.832 48.0819C145.038 46.8887 145.97 44.9687 147.533 45.7886L145.444 50.0645Z" fill="#1B4942"/>
<path fill-rule="evenodd" clip-rule="evenodd" d="M150.29 36.682C150.819 37.476 151.254 38.9335 149.803 40.0872C148.887 40.8163 148.129 40.7909 147.591 40.4191L150.29 36.682Z" fill="#1B4942"/>
<path fill-rule="evenodd" clip-rule="evenodd" d="M138.216 44.9806L139.293 49.484C137.886 50.6553 136.469 49.1417 136.355 47.9263C136.246 46.7565 136.62 44.7478 138.216 44.9806Z" fill="#1B4942"/>
<path fill-rule="evenodd" clip-rule="evenodd" d="M112.345 63.9148C111.545 63.5316 111.138 62.4206 111.279 61.6011C111.484 60.4133 112.409 58.5054 113.959 59.2968C113.509 60.62 112.672 63.0564 112.345 63.9148Z" fill="#1B4942"/>
<path d="M116.26 37.186C116.534 42.6129 115.328 58.1261 111.326 65.1975C111.034 65.563 110.044 65.9101 108.421 64.3753C106.393 62.4567 95.0456 52.9733 93.0174 50.7806L95.2649 48.588C96.8363 50.0863 100.637 53.357 103.268 54.4534C105.899 55.5497 108.531 57.578 109.517 58.455V41.0797" stroke="#212121" stroke-width="0.659833" stroke-linecap="round" stroke-linejoin="round"/>
<path d="M95.1105 48.5649C94.1337 47.4123 92.9387 46.1703 92.2591 45.5884C92.1066 45.4578 91.3064 42.2592 90.8712 42.1738C90.7382 42.1477 90.6884 42.7341 90.6408 43.3902L90.3135 45.1178C88.1656 44.8858 85.0673 44.9092 84.8764 44.9087C84.6025 44.9081 88.0869 45.8416 88.5233 45.9981C88.9597 46.1546 85.2518 45.8053 84.6298 45.9075C84.0348 46.0052 87.7792 46.8514 88.5727 46.8482C87.8023 46.9405 83.7694 47.4883 84.4853 47.5283L84.4854 47.5283C85.3144 47.5747 88.6302 47.7601 88.2747 47.8185C87.9193 47.8769 83.9628 49.3481 84.7626 49.2168C85.5624 49.0854 90.2048 48.5444 90.8712 48.4349C91.4044 48.3474 92.8396 50.0818 93.2729 50.4974L95.1105 48.5649Z" fill="white"/>
<path d="M90.8712 42.1738C91.3064 42.2592 92.1066 45.4578 92.2591 45.5884C92.9387 46.1703 94.1337 47.4123 95.1105 48.5649L93.2729 50.4974C92.8396 50.0818 91.4044 48.3474 90.8712 48.4349C90.2048 48.5444 85.5624 49.0854 84.7626 49.2168C83.9628 49.3481 87.9193 47.8769 88.2747 47.8185C88.6302 47.7601 85.3143 47.5747 84.4853 47.5283C83.6563 47.482 89.1952 46.7547 88.662 46.8423C88.1288 46.9299 84.0077 46.0097 84.6298 45.9075C85.2518 45.8053 88.9597 46.1546 88.5233 45.9981C88.0869 45.8416 84.6025 44.9081 84.8764 44.9087C85.0673 44.9092 88.1656 44.8858 90.3135 45.1178M90.8712 42.1738C90.5717 42.1151 90.6943 45.159 90.3135 45.1178M90.8712 42.1738L90.3135 45.1178" stroke="#212121" stroke-width="0.659833" stroke-linecap="round" stroke-linejoin="round"/>
<path d="M152.962 37.0329C153.914 35.8597 154.913 34.4556 155.359 33.68C155.917 32.7105 154.712 26.5683 154.662 26.299C154.611 26.0298 154.339 29.6267 154.266 30.0845C154.193 30.5423 153.85 26.8339 153.634 26.2414C153.428 25.6748 153.289 29.5112 153.439 30.2904C153.206 29.5503 151.922 25.6884 152.015 26.3993L152.015 26.3994C152.123 27.2227 152.554 30.5156 152.431 30.1771C152.308 29.8385 150.13 26.2226 150.407 26.9843C150.684 27.7459 152.074 32.2081 152.305 32.8428C152.49 33.3506 151.051 35.0818 150.723 35.5845L152.962 37.0329Z" fill="white" stroke="#212121" stroke-width="0.659833" stroke-linecap="round" stroke-linejoin="round"/>
<path d="M117.357 44.6829C117.707 48.0339 122.029 50.5491 124.757 46.113C127.276 42.0167 125.907 40.5404 125.102 41.4875C124.539 42.1497 124.337 44.3733 125.565 46.113C127.953 49.4956 131.618 46.9732 130.618 43.9727" stroke="#212121" stroke-width="0.659833" stroke-linecap="round" stroke-linejoin="round"/>
<path d="M119.988 23.1136C121.74 22.3005 126.416 19.48 126.807 18.7242C126.025 18.012 119.988 17.3683 115.983 18.3119C112.778 19.0668 112.878 24.4535 113.329 27.0525C111.288 26.2588 105.403 24.3599 98.192 23.1136C89.1781 21.5558 75.9123 23.1136 76.4225 32.6649C76.9327 42.2163 90.5386 43.2095 96.8314 35.7263C103.124 28.243 110.948 33.0051 115.029 30.454C118.295 28.4131 119.097 23.6416 119.089 21.5109L119.988 23.1136Z" fill="#FFB359" stroke="#FFB359" stroke-width="0.659833" stroke-linecap="round" stroke-linejoin="round"/>
<path d="M117.676 25.3394C117.409 24.3142 118.548 24.3453 119.152 24.4889L120.091 26.5198C119.398 26.5535 117.944 26.3647 117.676 25.3394Z" fill="white"/>
<path d="M83.6484 79.1153C85.6643 77.0514 90.5601 74.7091 94.0159 81.8512C98.3357 90.7788 113.887 79.1154 115.615 82.8592C117.343 86.603 119.359 85.8831 122.527 85.4511C125.694 85.0191 129.294 83.2912 131.454 85.4511C133.182 87.179 139.086 87.419 141.822 87.323" stroke="black" stroke-width="1.3" stroke-linecap="round" stroke-linejoin="round"/>
<path d="M82.4434 91.6425C84.4593 89.5786 89.355 87.2363 92.8108 94.3784C97.1306 103.306 112.682 91.6426 114.41 95.3864C116.138 99.1302 118.154 98.4103 121.321 97.9783C124.489 97.5463 128.089 95.8184 130.249 97.9783C131.977 99.7062 137.881 99.9462 140.617 99.8502" stroke="black" stroke-width="1.3" stroke-linecap="round" stroke-linejoin="round"/>
<path d="M80.9785 104.17C82.9944 102.107 87.8902 99.7643 91.346 106.906C95.6658 115.834 111.217 104.171 112.945 107.914C114.673 111.658 116.689 110.938 119.857 110.506C123.024 110.074 126.624 108.346 128.784 110.506C130.512 112.234 136.416 112.474 139.152 112.378" stroke="black" stroke-width="1.3" stroke-linecap="round" stroke-linejoin="round"/>
<path d="M80.9785 104.17C82.9944 102.107 87.8902 99.7643 91.346 106.906C95.6658 115.834 111.217 104.171 112.945 107.914C114.673 111.658 116.689 110.938 119.857 110.506C123.024 110.074 126.624 108.346 128.784 110.506C130.512 112.234 136.416 112.474 139.152 112.378" stroke="black" stroke-width="1.3" stroke-linecap="round" stroke-linejoin="round"/>
<path d="M49.0898 164.93C49.0898 157.891 52.221 154.008 53.7866 151.728H71.878C70.4864 154.432 69.0584 158.177 71.878 167.531C74.862 177.429 73.8265 185.09 72.8988 188.165C69.8881 184.066 64.2203 180.544 60.6569 179.02C57.5953 182.583 51.6699 185.723 46.4805 187.041C51.6991 180.042 49.0898 171.293 49.0898 164.93Z" fill="white" stroke="#212121" stroke-width="1.3"/>
<path d="M54.8499 163.828C54.6714 158.498 57.0553 153.541 58.2696 151.728L64.882 153.374C64.2036 158.088 64.3063 163.351 65.8162 169.139C68.2006 178.279 67.6913 180.57 67.6009 182.858C65.5387 181.336 61.8765 179.555 60.7006 179.059C58.8917 181.077 54.995 183.516 54.0215 184.056C57.552 177.546 55.0729 170.49 54.8499 163.828Z" fill="#212121"/>
<path d="M60.8473 113.917C61.6025 113.452 62.5548 113.452 63.31 113.917L65.428 115.22C66.1958 115.692 67.1111 115.864 67.9978 115.701L70.5159 115.24C71.4055 115.077 72.3097 115.44 72.841 116.172L74.1464 117.97L74.6725 117.589L74.1464 117.97C74.6975 118.73 75.5197 119.248 76.4425 119.417L78.8005 119.849C79.7342 120.02 80.4733 120.736 80.6738 121.664L81.077 123.53C81.2871 124.502 81.8847 125.346 82.7315 125.867L84.5034 126.958C85.3521 127.48 85.7791 128.481 85.5688 129.455L85.2044 131.143C84.9855 132.157 85.2085 133.216 85.8177 134.056L86.8728 135.511C87.4699 136.334 87.4699 137.447 86.8728 138.27L85.8177 139.725C85.2085 140.565 84.9855 141.624 85.2044 142.638L85.5688 144.326C85.7791 145.3 85.3521 146.301 84.5034 146.823L82.7315 147.914C81.8847 148.435 81.2871 149.279 81.077 150.251L80.6738 152.117C80.4733 153.045 79.7342 153.761 78.8005 153.932L76.4425 154.364C75.5197 154.533 74.6975 155.051 74.1464 155.811L72.841 157.61C72.3097 158.342 71.4055 158.704 70.5159 158.541L67.9978 158.08C67.1111 157.917 66.1958 158.089 65.428 158.561L63.31 159.864C62.5548 160.329 61.6025 160.329 60.8473 159.864L58.7293 158.561C57.9615 158.089 57.0461 157.917 56.1594 158.08L53.6414 158.541C52.7517 158.704 51.8475 158.342 51.3163 157.61L50.0108 155.811C49.4598 155.051 48.6376 154.533 47.7148 154.364L45.3568 153.932C44.423 153.761 43.684 153.045 43.4834 152.117L43.0802 150.251C42.8702 149.279 42.2726 148.435 41.4257 147.914L39.6538 146.823C38.8052 146.301 38.3782 145.3 38.5885 144.326L38.9528 142.638C39.1718 141.624 38.9488 140.565 38.3395 139.725L37.2844 138.27C36.6874 137.447 36.6874 136.334 37.2844 135.511L38.3395 134.056C38.9488 133.216 39.1718 132.157 38.9528 131.143L38.5885 129.455C38.3782 128.481 38.8051 127.48 39.6538 126.958L41.4257 125.867C42.2726 125.346 42.8702 124.502 43.0802 123.53L43.4834 121.664C43.684 120.736 44.423 120.02 45.3568 119.849L47.7148 119.417C48.6376 119.248 49.4598 118.73 50.0108 117.97L51.3163 116.172C51.8475 115.44 52.7517 115.077 53.6414 115.24L56.1594 115.701C57.0461 115.864 57.9615 115.692 58.7293 115.22L60.8473 113.917Z" fill="white" stroke="#212121" stroke-width="1.3" stroke-linecap="round" stroke-linejoin="round"/>
<path d="M60.8479 117.614C61.6031 117.15 62.5554 117.15 63.3106 117.614L64.7236 118.484C65.4914 118.956 66.4068 119.128 67.2935 118.965L68.98 118.656C69.8697 118.494 70.7739 118.856 71.3051 119.588L72.1395 120.737C72.6905 121.497 73.5127 122.015 74.4355 122.184L75.9621 122.464C76.8958 122.635 77.6349 123.351 77.8354 124.279L78.0731 125.379C78.2832 126.351 78.8807 127.195 79.7276 127.716L80.7947 128.373C81.6433 128.895 82.0703 129.896 81.86 130.87L81.6609 131.792C81.442 132.806 81.665 133.866 82.2743 134.706L82.8584 135.511C83.4555 136.334 83.4554 137.448 82.8584 138.271L82.2743 139.076C81.665 139.916 81.442 140.975 81.6609 141.989L81.86 142.911C82.0703 143.885 81.6433 144.886 80.7947 145.409L79.7276 146.065C78.8807 146.586 78.2832 147.431 78.0731 148.403L77.8354 149.503C77.6349 150.431 76.8958 151.147 75.9621 151.318L74.4355 151.598C73.5127 151.767 72.6905 152.285 72.1395 153.044L71.3051 154.194C70.7739 154.926 69.8697 155.288 68.98 155.125L67.2935 154.816C66.4068 154.654 65.4914 154.825 64.7236 155.298L63.3106 156.167C62.5554 156.632 61.6031 156.632 60.8479 156.167L59.4348 155.298C58.6671 154.825 57.7517 154.654 56.865 154.816L55.1785 155.125C54.2888 155.288 53.3846 154.926 52.8534 154.194L52.019 153.044C51.468 152.285 50.6457 151.767 49.723 151.598L48.1964 151.318C47.2627 151.147 46.5236 150.431 46.3231 149.503L46.0854 148.403C45.8753 147.431 45.2777 146.586 44.4309 146.065L43.3638 145.409C42.5152 144.886 42.0882 143.885 42.2985 142.911L42.4975 141.989C42.7165 140.975 42.4935 139.916 41.8842 139.076L41.3001 138.271C40.703 137.448 40.703 136.334 41.3001 135.511L41.8842 134.706C42.4935 133.866 42.7165 132.806 42.4975 131.792L42.2985 130.87C42.0882 129.896 42.5152 128.895 43.3638 128.373L44.4309 127.716C45.2777 127.195 45.8753 126.351 46.0854 125.379L46.3231 124.279C46.5236 123.351 47.2627 122.635 48.1964 122.464L49.723 122.184C50.6457 122.015 51.468 121.497 52.019 120.737L52.8534 119.588C53.3846 118.856 54.2888 118.494 55.1785 118.656L56.865 118.965C57.7517 119.128 58.6671 118.956 59.4348 118.484L60.8479 117.614Z" fill="white" stroke="#212121" stroke-width="1.3" stroke-linecap="round" stroke-linejoin="round"/>
<g clip-path="url(#clip1)">
<path fill-rule="evenodd" clip-rule="evenodd" d="M70.9783 128.957C71.203 128.677 71.1581 128.268 70.8781 128.043C70.5981 127.819 70.189 127.863 69.9644 128.143C67.9942 130.599 66.4152 133.376 64.9166 136.234C64.477 137.072 64.0453 137.916 63.6128 138.76L63.6128 138.76L63.6128 138.76C62.6868 140.569 61.7569 142.385 60.7374 144.178C60.033 143.501 59.3192 142.869 58.6247 142.255L58.6246 142.255C58.2657 141.937 57.912 141.624 57.5675 141.312C56.3505 140.209 55.2118 139.085 54.2144 137.702C54.0044 137.411 53.5982 137.345 53.307 137.555C53.0158 137.765 52.95 138.171 53.1599 138.462C54.2364 139.955 55.4536 141.15 56.6945 142.275C57.0627 142.609 57.4302 142.934 57.7966 143.258L57.7966 143.258C58.6721 144.033 59.5413 144.802 60.4004 145.67C60.4434 145.717 60.4939 145.758 60.5517 145.792C60.6642 145.858 60.7885 145.886 60.9097 145.88C61.0649 145.873 61.2182 145.811 61.3375 145.693C61.386 145.645 61.4254 145.592 61.4556 145.534C62.6558 143.483 63.7341 141.377 64.7877 139.319L64.7877 139.319C65.2163 138.481 65.6409 137.652 66.0679 136.838C67.5578 133.996 69.0898 131.311 70.9783 128.957Z" fill="#212121"/>
</g>
</g>
<path d="M80.7625 224.282C101.888 221.89 122.99 219.03 144.044 216.074C148.78 215.409 153.598 214.801 158.216 213.606" stroke="#FFB359" stroke-width="3" stroke-linecap="round" stroke-linejoin="round"/>
<path d="M70.0002 233.284C102.982 229.919 135.739 224.46 168.702 220.86" stroke="#FFB359" stroke-width="3" stroke-linecap="round" stroke-linejoin="round"/>
<defs>
<clipPath id="clip0">
<rect width="240" height="200.837" fill="white" transform="translate(0 0.0931396)"/>
</clipPath>
<clipPath id="clip1">
<rect width="19.4008" height="19.4008" fill="white" transform="translate(52.3789 127.19)"/>
</clipPath>
</defs>
</svg>
