<svg width="322" height="162" viewBox="0 0 322 162" fill="none" xmlns="http://www.w3.org/2000/svg">
<path fill-rule="evenodd" clip-rule="evenodd" d="M65.75 13.0584C57.4967 23.6703 49.3641 34.3502 41.3237 45.1577C35.5996 52.8519 30.1983 60.6057 24.7575 68.4163L24.7572 68.4168C21.0154 73.7883 17.255 79.1866 13.358 84.6108C12.0742 86.3978 10.7318 88.3632 9.47787 90.321C11.6933 90.1333 14.2483 89.9529 15.9635 89.9529C29.8513 89.9529 43.6978 90.6672 57.4367 91.376L57.4728 91.3779C60.2359 91.5204 62.9947 91.6627 65.75 91.7991V91.6125V91.3468V91.0812V90.8157V90.5504V90.2852V90.0201V89.7552V89.4904V89.2257V88.9611V88.6966V88.4322V88.168V87.9038V87.6398V87.3758V87.1119V86.8481V86.5844V86.3208V86.0573V85.7938V85.5304V85.2671V85.0038V84.7406V84.4774V84.2143V83.9512V83.6882V83.4253V83.1623V82.8994V82.6366V82.3737V82.1109V81.8481V81.5854V81.3226V81.0599V80.7971V80.5344V80.2716V80.0089V79.7461V79.4834V79.2206V78.9578V78.695V78.4322V78.1693V77.9064V77.6435V77.3805V77.1175V76.8544V76.5913V76.3282V76.065V75.8017V75.5384V75.2749V75.0115V74.7479V74.4843V74.2206V73.9568V73.6929V73.429V73.1649V72.9008V72.6365V72.3721V72.1077V71.8431V71.5784V71.3136V71.0486V70.7836V70.5184V70.253V69.9876V69.722V69.4562V69.1903V68.9243V68.6581V68.3917V68.1252V67.8585V67.5917V67.3247V67.0575V66.7901V66.5225V66.2548V65.9869V65.7187V65.4504V65.1819V64.9132V64.6443V64.3751V64.1058V63.8362V63.5664V63.2964V63.0262V62.7557V62.485V62.2141V61.9429V61.6715V61.3998V61.1279V60.8557V60.5833V60.3106V60.0376V59.7644V59.4909V59.2171V58.943V58.6687V58.394V58.1191V57.8439V57.5684V57.2926V57.0165V56.74V56.4633V56.1862V55.9089V55.6312V55.3532V55.0748V54.7961V54.5171V54.2378V53.9581V53.678V53.3977V53.1169V52.8358V52.5544V52.2725V51.9903V51.7078V51.4249V51.1415V50.8578V50.5738V50.2893V50.0045V49.7192V49.4336V49.1475V48.861V48.5742V48.2869V47.9992V47.7111V47.4226V47.1336V46.8442V46.5544V46.2641V45.9734V45.6823V45.3907V45.0986V44.8061V44.5132V44.2197V43.9259V43.6315V43.3367V43.0414V42.7456V42.4493V42.1526V41.8554V41.5576V41.2594V40.9607V40.6614V40.3617V40.0615V39.7607V39.4594V39.1576V38.8553V38.5525V38.2491V37.9452V37.6407V37.3357V37.0302V36.7241V36.4174V36.1102V35.8025V35.4942V35.1853V34.8758V34.5658V34.2552V33.944V33.6322V33.3199V33.0069V32.6934V32.3793V32.0645V31.7492V31.4332V31.1166V30.7995V30.4817V30.1632V29.8442V29.5245V29.2042V28.8833V28.5617V28.2395V27.9166V27.5931V27.2689V26.9441V26.6186V26.2924V25.9656V25.6381V25.3099V24.9811V24.6515V24.3213V23.9904V23.6588V23.3265V22.9935V22.6598V22.3254V21.9903V21.6545V21.3179V20.9807V20.6427V20.304V19.9646V19.6244V19.2835V18.9418V18.5994V18.2563V17.9124V17.5677V17.2223V16.8761V16.5292V16.1815V15.833V15.4838V15.1337V14.7829V14.4313V14.0789V13.7257V13.3717V13.0584ZM72.75 99.1369C81.3436 99.5168 89.9671 99.7935 98.6043 99.7935C100.537 99.7935 102.104 98.2265 102.104 96.2935C102.104 94.3605 100.537 92.7935 98.6043 92.7935C89.9935 92.7935 81.3848 92.5142 72.75 92.1299V91.8784V91.6125V91.3468V91.0812V90.8157V90.5504V90.2852V90.0201V89.7552V89.4904V89.2257V88.9611V88.6966V88.4322V88.168V87.9038V87.6398V87.3758V87.1119V86.8481V86.5844V86.3208V86.0573V85.7938V85.5304V85.2671V85.0038V84.7406V84.4774V84.2143V83.9512V83.6882V83.4253V83.1623V82.8994V82.6366V82.3737V82.1109V81.8481V81.5854V81.3226V81.0599V80.7971V80.5344V80.2716V80.0089V79.7461V79.4834V79.2206V78.9578V78.695V78.4322V78.1693V77.9064V77.6435V77.3805V77.1175V76.8544V76.5913V76.3282V76.065V75.8017V75.5384V75.2749V75.0115V74.7479V74.4843V74.2206V73.9568V73.6929V73.429V73.1649V72.9008V72.6365V72.3721V72.1077V71.8431V71.5784V71.3136V71.0486V70.7836V70.5184V70.253V69.9876V69.722V69.4562V69.1903V68.9243V68.6581V68.3917V68.1252V67.8585V67.5917V67.3247V67.0575V66.7901V66.5225V66.2548V65.9869V65.7187V65.4504V65.1819V64.9132V64.6443V64.3751V64.1058V63.8362V63.5664V63.2964V63.0262V62.7557V62.485V62.2141V61.9429V61.6715V61.3998V61.1279V60.8557V60.5833V60.3106V60.0376V59.7644V59.4909V59.2171V58.943V58.6687V58.394V58.1191V57.8439V57.5684V57.2926V57.0165V56.74V56.4633V56.1862V55.9089V55.6312V55.3532V55.0748V54.7961V54.5171V54.2378V53.9581V53.678V53.3977V53.1169V52.8358V52.5544V52.2725V51.9903V51.7078V51.4249V51.1415V50.8578V50.5738V50.2893V50.0045V49.7192V49.4336V49.1475V48.861V48.5742V48.2869V47.9992V47.7111V47.4226V47.1336V46.8442V46.5544V46.2641V45.9734V45.6823V45.3907V45.0986V44.8061V44.5132V44.2197V43.9259V43.6315V43.3367V43.0414V42.7456V42.4493V42.1526V41.8554V41.5576V41.2594V40.9607V40.6614V40.3617V40.0615V39.7607V39.4594V39.1576V38.8553V38.5525V38.2491V37.9452V37.6407V37.3357V37.0302V36.7241V36.4174V36.1102V35.8025V35.4942V35.1853V34.8758V34.5658V34.2552V33.944V33.6322V33.3199V33.0069V32.6934V32.3793V32.0645V31.7492V31.4332V31.1166V30.7995V30.4817V30.1632V29.8442V29.5245V29.2042V28.8833V28.5617V28.2395V27.9166V27.5931V27.2689V26.9441V26.6186V26.2924V25.9656V25.6381V25.3099V24.9811V24.6515V24.3213V23.9904V23.6588V23.3265V22.9935V22.6598V22.3254V21.9903V21.6545V21.3179V20.9807V20.6427V20.304V19.9646V19.6244V19.2835V18.9418V18.5994V18.2563V17.9124V17.5677V17.2223V16.8761V16.5292V16.1815V15.833V15.4838V15.1337V14.7829V14.4313V14.0789V13.7257V13.3717V13.0169V12.6614V12.305V11.9478V11.5897V11.2309V10.8712V10.5107V10.1494V9.78729V9.42431V9.06049V8.69583V8.33032V7.96396V7.59675V7.22868V6.85976V6.48997V6.11931V5.74778V5.37538V5.0021V4.62795V4.2529V3.87697V3.50015C72.75 1.56715 71.183 0.000149649 69.25 0.000149649C69.1711 0.000149649 69.0929 0.0027547 69.0154 0.0078834C67.8998 -0.0670064 66.7678 0.392818 66.0251 1.33853C55.7452 14.4295 45.657 27.6058 35.7075 40.9795C29.9573 48.7086 24.4067 56.6743 18.8892 64.5926L18.889 64.5928C15.1525 69.9551 11.4312 75.2956 7.67312 80.5264C5.406 83.682 2.92532 87.4221 0.976729 90.8321C0.927692 90.9179 0.882312 91.0058 0.840711 91.0954L4.01558 92.5686C0.840711 91.0954 0.840578 91.0957 0.840442 91.096L0.840156 91.0966L0.839533 91.098L0.838088 91.1011L0.834411 91.1091L0.824036 91.1317C0.815836 91.1497 0.805074 91.1734 0.792184 91.2021C0.766512 91.2594 0.731817 91.3379 0.69172 91.4315C0.613831 91.6134 0.505165 91.8768 0.401042 92.1652C0.308333 92.422 0.167931 92.8374 0.0831165 93.2836C0.0433981 93.4926 -0.0204144 93.8877 0.0063769 94.3592C0.0248808 94.6849 0.123316 95.9478 1.24417 96.9286C2.17278 97.7411 3.21689 97.8483 3.52526 97.8757C3.97124 97.9153 4.36343 97.8838 4.60143 97.8573C4.86222 97.8282 5.08828 97.7871 5.24063 97.7562L5.2495 97.7544L5.39177 97.7394C5.60755 97.7168 5.9209 97.6844 6.30826 97.6455C7.08361 97.5676 8.15232 97.4638 9.32674 97.3602C11.7266 97.1484 14.399 96.9529 15.9635 96.9529C29.653 96.9529 43.3315 97.6576 57.1122 98.3686L57.1648 98.3713C60.0223 98.5187 62.8842 98.6663 65.75 98.8077V98.8547V99.1258V99.3973V99.6689V99.9409V100.213V100.485V100.758V101.031V101.304V101.578V101.852V102.126V102.4V102.675V102.95V103.225V103.5V103.776V104.052V104.329V104.605V104.883V105.16V105.438V105.716V105.994V106.273V106.552V106.831V107.111V107.391V107.671V107.952V108.233V108.514V108.796V109.078V109.361V109.644V109.927V110.211V110.495V110.779V111.064V111.35V111.635V111.921V112.208V112.495V112.782V113.07V113.358V113.646V113.935V114.225V114.514V114.805V115.095V115.386V115.678V115.97V116.263V116.556V116.849V117.143V117.437V117.732V118.027V118.323V118.619V118.916V119.213V119.511V119.809V120.108V120.407V120.707V121.007V121.308V121.609V121.911V122.213V122.516V122.82V123.124V123.428V123.733V124.039V124.345V124.651V124.959V125.266V125.575V125.883V126.193V126.503V126.814V127.125V127.437V127.749V128.062V128.375V128.689V129.004V129.32V129.636V129.952V130.269V130.587V130.906V131.225V131.544V131.865V132.185V132.507V132.829V133.152V133.476V133.8V134.125V134.45V134.776V135.103V135.431V135.759V136.088V136.417V136.747V137.078V137.41V137.742V138.075V138.409V138.743V139.078V139.414V139.751V140.088V140.426V140.765V141.104V141.444V141.785V142.127V142.469V142.812V143.156V143.501V143.846V144.193V144.54V144.887V145.236V145.585V145.935V146.286V146.637V146.99V147.343V147.697V148.052V148.407V148.764V149.121V149.479V149.838V150.198V150.558V150.919V151.281V151.644V152.008V152.373V152.738V153.105V153.472V153.84V154.209V154.579V154.949V155.321V155.693V156.067V156.441V156.816V157.192V157.569C65.75 159.502 67.317 161.069 69.25 161.069C71.183 161.069 72.75 159.502 72.75 157.569V157.192V156.816V156.441V156.067V155.693V155.321V154.949V154.579V154.209V153.84V153.472V153.105V152.738V152.373V152.008V151.644V151.281V150.919V150.558V150.198V149.838V149.479V149.121V148.764V148.407V148.052V147.697V147.343V146.99V146.637V146.286V145.935V145.585V145.236V144.887V144.54V144.193V143.846V143.501V143.156V142.812V142.469V142.127V141.785V141.444V141.104V140.765V140.426V140.088V139.751V139.414V139.078V138.743V138.409V138.075V137.742V137.41V137.078V136.747V136.417V136.088V135.759V135.431V135.103V134.776V134.45V134.125V133.8V133.476V133.152V132.829V132.507V132.185V131.865V131.544V131.225V130.906V130.587V130.269V129.952V129.636V129.32V129.004V128.689V128.375V128.062V127.749V127.437V127.125V126.814V126.503V126.193V125.883V125.575V125.266V124.959V124.651V124.345V124.039V123.733V123.428V123.124V122.82V122.516V122.213V121.911V121.609V121.308V121.007V120.707V120.407V120.108V119.809V119.511V119.213V118.916V118.619V118.323V118.027V117.732V117.437V117.143V116.849V116.556V116.263V115.97V115.678V115.386V115.095V114.805V114.514V114.225V113.935V113.646V113.358V113.07V112.782V112.495V112.208V111.921V111.635V111.35V111.064V110.779V110.495V110.211V109.927V109.644V109.361V109.078V108.796V108.514V108.233V107.952V107.671V107.391V107.111V106.831V106.552V106.273V105.994V105.716V105.438V105.16V104.883V104.605V104.329V104.052V103.776V103.5V103.225V102.95V102.675V102.4V102.126V101.852V101.578V101.304V101.031V100.758V100.485V100.213V99.9409V99.6689V99.3973V99.1369ZM4.32206 90.9254L4.32219 90.9254L4.52499 92.805L4.32206 90.9254ZM3.82599 90.9004L3.83542 90.8994L3.83549 90.8994L3.84434 90.8972L3.8526 90.8952L3.84794 90.8961L3.8335 90.8989L3.82447 90.9005L3.82599 90.9004ZM284.734 13.0584C276.481 23.6703 268.348 34.3502 260.308 45.1577C254.584 52.8519 249.183 60.6057 243.742 68.4163L243.742 68.4168C240 73.7883 236.239 79.1866 232.342 84.6108C231.059 86.3978 229.716 88.3632 228.462 90.321C230.678 90.1333 233.233 89.9529 234.948 89.9529C248.836 89.9529 262.682 90.6672 276.421 91.376L276.457 91.3779C279.22 91.5204 281.979 91.6627 284.734 91.7991V91.6125V91.3468V91.0812V90.8157V90.5504V90.2852V90.0201V89.7552V89.4904V89.2257V88.9611V88.6966V88.4322V88.168V87.9038V87.6398V87.3758V87.1119V86.8481V86.5844V86.3208V86.0573V85.7938V85.5304V85.2671V85.0038V84.7406V84.4774V84.2143V83.9512V83.6882V83.4253V83.1623V82.8994V82.6366V82.3737V82.1109V81.8481V81.5854V81.3226V81.0599V80.7971V80.5344V80.2716V80.0089V79.7461V79.4834V79.2206V78.9578V78.695V78.4322V78.1693V77.9064V77.6435V77.3805V77.1175V76.8544V76.5913V76.3282V76.065V75.8017V75.5384V75.2749V75.0115V74.7479V74.4843V74.2206V73.9568V73.6929V73.429V73.1649V72.9008V72.6365V72.3721V72.1077V71.8431V71.5784V71.3136V71.0486V70.7836V70.5184V70.253V69.9876V69.722V69.4562V69.1903V68.9243V68.6581V68.3917V68.1252V67.8585V67.5917V67.3247V67.0575V66.7901V66.5225V66.2548V65.9869V65.7187V65.4504V65.1819V64.9132V64.6443V64.3751V64.1058V63.8362V63.5664V63.2964V63.0262V62.7557V62.485V62.2141V61.9429V61.6715V61.3998V61.1279V60.8557V60.5833V60.3106V60.0376V59.7644V59.4909V59.2171V58.943V58.6687V58.394V58.1191V57.8439V57.5684V57.2926V57.0165V56.74V56.4633V56.1862V55.9089V55.6312V55.3532V55.0748V54.7961V54.5171V54.2378V53.9581V53.678V53.3977V53.1169V52.8358V52.5544V52.2725V51.9903V51.7078V51.4249V51.1415V50.8578V50.5738V50.2893V50.0045V49.7192V49.4336V49.1475V48.861V48.5742V48.2869V47.9992V47.7111V47.4226V47.1336V46.8442V46.5544V46.2641V45.9734V45.6823V45.3907V45.0986V44.8061V44.5132V44.2197V43.9259V43.6315V43.3367V43.0414V42.7456V42.4493V42.1526V41.8554V41.5576V41.2594V40.9607V40.6614V40.3617V40.0615V39.7607V39.4594V39.1576V38.8553V38.5525V38.2491V37.9452V37.6407V37.3357V37.0302V36.7241V36.4174V36.1102V35.8025V35.4942V35.1853V34.8758V34.5658V34.2552V33.944V33.6322V33.3199V33.0069V32.6934V32.3793V32.0645V31.7492V31.4332V31.1166V30.7995V30.4817V30.1632V29.8442V29.5245V29.2042V28.8833V28.5617V28.2395V27.9166V27.5931V27.2689V26.9441V26.6186V26.2924V25.9656V25.6381V25.3099V24.9811V24.6515V24.3213V23.9904V23.6588V23.3265V22.9935V22.6598V22.3254V21.9903V21.6545V21.3179V20.9807V20.6427V20.304V19.9646V19.6244V19.2835V18.9418V18.5994V18.2563V17.9124V17.5677V17.2223V16.8761V16.5292V16.1815V15.833V15.4838V15.1337V14.7829V14.4313V14.0789V13.7257V13.3717V13.0584ZM291.734 99.1369C300.328 99.5168 308.951 99.7935 317.589 99.7935C319.522 99.7935 321.089 98.2265 321.089 96.2935C321.089 94.3605 319.522 92.7935 317.589 92.7935C308.978 92.7935 300.369 92.5142 291.734 92.1299V91.8784V91.6125V91.3468V91.0812V90.8157V90.5504V90.2852V90.0201V89.7552V89.4904V89.2257V88.9611V88.6966V88.4322V88.168V87.9038V87.6398V87.3758V87.1119V86.8481V86.5844V86.3208V86.0573V85.7938V85.5304V85.2671V85.0038V84.7406V84.4774V84.2143V83.9512V83.6882V83.4253V83.1623V82.8994V82.6366V82.3737V82.1109V81.8481V81.5854V81.3226V81.0599V80.7971V80.5344V80.2716V80.0089V79.7461V79.4834V79.2206V78.9578V78.695V78.4322V78.1693V77.9064V77.6435V77.3805V77.1175V76.8544V76.5913V76.3282V76.065V75.8017V75.5384V75.2749V75.0115V74.7479V74.4843V74.2206V73.9568V73.6929V73.429V73.1649V72.9008V72.6365V72.3721V72.1077V71.8431V71.5784V71.3136V71.0486V70.7836V70.5184V70.253V69.9876V69.722V69.4562V69.1903V68.9243V68.6581V68.3917V68.1252V67.8585V67.5917V67.3247V67.0575V66.7901V66.5225V66.2548V65.9869V65.7187V65.4504V65.1819V64.9132V64.6443V64.3751V64.1058V63.8362V63.5664V63.2964V63.0262V62.7557V62.485V62.2141V61.9429V61.6715V61.3998V61.1279V60.8557V60.5833V60.3106V60.0376V59.7644V59.4909V59.2171V58.943V58.6687V58.394V58.1191V57.8439V57.5684V57.2926V57.0165V56.74V56.4633V56.1862V55.9089V55.6312V55.3532V55.0748V54.7961V54.5171V54.2378V53.9581V53.678V53.3977V53.1169V52.8358V52.5544V52.2725V51.9903V51.7078V51.4249V51.1415V50.8578V50.5738V50.2893V50.0045V49.7192V49.4336V49.1475V48.861V48.5742V48.2869V47.9992V47.7111V47.4226V47.1336V46.8442V46.5544V46.2641V45.9734V45.6823V45.3907V45.0986V44.8061V44.5132V44.2197V43.9259V43.6315V43.3367V43.0414V42.7456V42.4493V42.1526V41.8554V41.5576V41.2594V40.9607V40.6614V40.3617V40.0615V39.7607V39.4594V39.1576V38.8553V38.5525V38.2491V37.9452V37.6407V37.3357V37.0302V36.7241V36.4174V36.1102V35.8025V35.4942V35.1853V34.8758V34.5658V34.2552V33.944V33.6322V33.3199V33.0069V32.6934V32.3793V32.0645V31.7492V31.4332V31.1166V30.7995V30.4817V30.1632V29.8442V29.5245V29.2042V28.8833V28.5617V28.2395V27.9166V27.5931V27.2689V26.9441V26.6186V26.2924V25.9656V25.6381V25.3099V24.9811V24.6515V24.3213V23.9904V23.6588V23.3265V22.9935V22.6598V22.3254V21.9903V21.6545V21.3179V20.9807V20.6427V20.304V19.9646V19.6244V19.2835V18.9418V18.5994V18.2563V17.9124V17.5677V17.2223V16.8761V16.5292V16.1815V15.833V15.4838V15.1337V14.7829V14.4313V14.0789V13.7257V13.3717V13.0169V12.6614V12.305V11.9478V11.5897V11.2309V10.8712V10.5107V10.1494V9.78729V9.42431V9.06049V8.69583V8.33032V7.96396V7.59675V7.22868V6.85976V6.48997V6.11931V5.74778V5.37538V5.0021V4.62795V4.2529V3.87697V3.50015C291.734 1.56715 290.167 0.000149649 288.234 0.000149649C288.156 0.000149649 288.077 0.0027547 288 0.0078834C286.884 -0.0670064 285.752 0.392818 285.009 1.33853C274.73 14.4295 264.641 27.6058 254.692 40.9795C248.942 48.7085 243.391 56.6739 237.874 64.5921L237.874 64.5926L237.873 64.5928C234.137 69.9551 230.416 75.2956 226.657 80.5264C224.39 83.682 221.91 87.4221 219.961 90.8321C219.912 90.9179 219.867 91.0058 219.825 91.0954L223 92.5686C219.825 91.0954 219.825 91.0957 219.825 91.096L219.825 91.0966L219.824 91.098L219.822 91.1011L219.819 91.1091L219.808 91.1317C219.8 91.1497 219.789 91.1734 219.777 91.2021C219.751 91.2594 219.716 91.3379 219.676 91.4315C219.598 91.6134 219.49 91.8768 219.385 92.1652C219.293 92.422 219.152 92.8374 219.067 93.2836C219.028 93.4926 218.964 93.8877 218.991 94.3592C219.009 94.6849 219.108 95.9478 220.229 96.9286C221.157 97.7411 222.201 97.8483 222.51 97.8757C222.956 97.9153 223.348 97.8838 223.586 97.8573C223.847 97.8282 224.073 97.7871 224.225 97.7562L224.234 97.7544L224.376 97.7394C224.592 97.7168 224.905 97.6844 225.293 97.6455C226.068 97.5676 227.137 97.4638 228.311 97.3602C230.711 97.1484 233.383 96.9529 234.948 96.9529C248.637 96.9529 262.316 97.6576 276.097 98.3686L276.149 98.3713C279.007 98.5187 281.869 98.6663 284.734 98.8077V98.8547V99.1258V99.3973V99.6689V99.9409V100.213V100.485V100.758V101.031V101.304V101.578V101.852V102.126V102.4V102.675V102.95V103.225V103.5V103.776V104.052V104.329V104.605V104.883V105.16V105.438V105.716V105.994V106.273V106.552V106.831V107.111V107.391V107.671V107.952V108.233V108.514V108.796V109.078V109.361V109.644V109.927V110.211V110.495V110.779V111.064V111.35V111.635V111.921V112.208V112.495V112.782V113.07V113.358V113.646V113.935V114.225V114.514V114.805V115.095V115.386V115.678V115.97V116.263V116.556V116.849V117.143V117.437V117.732V118.027V118.323V118.619V118.916V119.213V119.511V119.809V120.108V120.407V120.707V121.007V121.308V121.609V121.911V122.213V122.516V122.82V123.124V123.428V123.733V124.039V124.345V124.651V124.959V125.266V125.575V125.883V126.193V126.503V126.814V127.125V127.437V127.749V128.062V128.375V128.689V129.004V129.32V129.636V129.952V130.269V130.587V130.906V131.225V131.544V131.865V132.185V132.507V132.829V133.152V133.476V133.8V134.125V134.45V134.776V135.103V135.431V135.759V136.088V136.417V136.747V137.078V137.41V137.742V138.075V138.409V138.743V139.078V139.414V139.751V140.088V140.426V140.765V141.104V141.444V141.785V142.127V142.469V142.812V143.156V143.501V143.846V144.193V144.54V144.887V145.236V145.585V145.935V146.286V146.637V146.99V147.343V147.697V148.052V148.407V148.764V149.121V149.479V149.838V150.198V150.558V150.919V151.281V151.644V152.008V152.373V152.738V153.105V153.472V153.84V154.209V154.579V154.949V155.321V155.693V156.067V156.441V156.816V157.192V157.569C284.734 159.502 286.301 161.069 288.234 161.069C290.167 161.069 291.734 159.502 291.734 157.569V157.192V156.816V156.441V156.067V155.693V155.321V154.949V154.579V154.209V153.84V153.472V153.105V152.738V152.373V152.008V151.644V151.281V150.919V150.558V150.198V149.838V149.479V149.121V148.764V148.407V148.052V147.697V147.343V146.99V146.637V146.286V145.935V145.585V145.236V144.887V144.54V144.193V143.846V143.501V143.156V142.812V142.469V142.127V141.785V141.444V141.104V140.765V140.426V140.088V139.751V139.414V139.078V138.743V138.409V138.075V137.742V137.41V137.078V136.747V136.417V136.088V135.759V135.431V135.103V134.776V134.45V134.125V133.8V133.476V133.152V132.829V132.507V132.185V131.865V131.544V131.225V130.906V130.587V130.269V129.952V129.636V129.32V129.004V128.689V128.375V128.062V127.749V127.437V127.125V126.814V126.503V126.193V125.883V125.575V125.266V124.959V124.651V124.345V124.039V123.733V123.428V123.124V122.82V122.516V122.213V121.911V121.609V121.308V121.007V120.707V120.407V120.108V119.809V119.511V119.213V118.916V118.619V118.323V118.027V117.732V117.437V117.143V116.849V116.556V116.263V115.97V115.678V115.386V115.095V114.805V114.514V114.225V113.935V113.646V113.358V113.07V112.782V112.495V112.208V111.921V111.635V111.35V111.064V110.779V110.495V110.211V109.927V109.644V109.361V109.078V108.796V108.514V108.233V107.952V107.671V107.391V107.111V106.831V106.552V106.273V105.994V105.716V105.438V105.16V104.883V104.605V104.329V104.052V103.776V103.5V103.225V102.95V102.675V102.4V102.126V101.852V101.578V101.304V101.031V100.758V100.485V100.213V99.9409V99.6689V99.3973V99.1369ZM222.81 90.9004L222.82 90.8994L222.829 90.8972L222.832 90.8961C222.821 90.8985 222.812 90.8999 222.809 90.9005L222.81 90.9004ZM173.227 4.27226C171.407 3.62213 169.404 4.5708 168.754 6.39118C168.104 8.21157 169.053 10.2143 170.873 10.8645C193.899 19.0879 204.287 44.4478 203.9 68.7451C203.583 88.6389 198.306 109.949 185.699 125.059C176.805 135.719 162.826 144.114 149.366 142.831C139.653 141.905 131.358 134.168 127.372 124.796C125.157 119.587 124.521 113.808 124.501 107.735C124.471 99.0319 125.443 90.1647 127.177 81.5833C130.641 64.4289 138.187 47.6623 148.975 33.9075C153.978 27.5283 160.488 21.661 167.462 17.664C169.139 16.7027 169.719 14.564 168.758 12.8869C167.797 11.2099 165.658 10.6296 163.981 11.5908C156.136 16.0874 148.96 22.5846 143.467 29.5876C131.977 44.238 123.987 62.0193 120.315 80.1975C118.499 89.1873 117.469 98.5289 117.501 107.759C117.523 114.227 118.186 121.082 120.931 127.535C125.586 138.483 135.682 148.558 148.702 149.799C165.324 151.384 181.359 141.187 191.074 129.544C205.065 112.775 210.568 89.684 210.899 68.8565C211.308 43.1339 200.319 13.948 173.227 4.27226Z" fill="white"/>
</svg>
