<svg width="18" height="19" viewBox="0 0 18 19" fill="none" xmlns="http://www.w3.org/2000/svg">
<path fill-rule="evenodd" clip-rule="evenodd" d="M2.78311 1.24271C2.55602 0.896297 2.09111 0.799565 1.74469 1.02665C1.39828 1.25374 1.30154 1.71866 1.52863 2.06508C3.65015 5.30135 6.04284 7.92953 8.51613 10.4141C6.06339 12.6697 3.51093 14.8142 0.337627 16.9037C-0.0083251 17.1315 -0.104112 17.5966 0.123681 17.9425C0.351475 18.2885 0.816588 18.3843 1.16254 18.1565C4.41878 16.0124 7.06439 13.7866 9.58119 11.4722C10.1009 11.9837 10.6217 12.4907 11.143 12.9981L11.1431 12.9981C12.9996 14.8052 14.8615 16.6175 16.6926 18.6558C16.9694 18.9639 17.4436 18.9893 17.7517 18.7125C18.0598 18.4357 18.0852 17.9615 17.8084 17.6533C15.9419 15.5756 14.0234 13.7081 12.1525 11.8871C11.6579 11.4056 11.1666 10.9274 10.6805 10.4494C11.4758 9.70172 12.2651 8.94491 13.0641 8.17874L13.0642 8.1787C14.5337 6.76973 16.0362 5.32909 17.6694 3.85541C17.9769 3.57792 18.0012 3.10367 17.7238 2.79614C17.4463 2.48861 16.972 2.46426 16.6645 2.74175C14.9604 4.27944 13.4213 5.75525 11.9341 7.1814C11.1522 7.93125 10.3845 8.66737 9.61473 9.39153C7.15931 6.92698 4.83462 4.3722 2.78311 1.24271Z" fill="#212121"/>
</svg>
