<svg width="240" height="200" viewBox="0 0 240 200" fill="none" xmlns="http://www.w3.org/2000/svg">
<path fill-rule="evenodd" clip-rule="evenodd" d="M111.412 196.392C137.663 196.392 158.944 192.887 158.944 188.563C158.944 184.239 137.663 180.733 111.412 180.733C93.4395 180.733 77.7968 182.376 69.7178 184.8C69.7107 186.308 70.3761 188.001 72.6845 189.004C73.5888 189.396 74.3714 189.72 75.0442 189.998C77.8574 191.162 78.752 191.532 78.6027 192.826C78.5264 193.487 76.7073 193.608 74.5069 193.497C83.2221 195.264 96.517 196.392 111.412 196.392Z" fill="#FDFAF5"/>
<path d="M71.5264 188.265C78.3624 186.787 89.5862 184.16 88.1081 184.603C86.2605 185.157 67.6 189.776 77.0226 189.592C86.4453 189.407 119.147 178.691 103.628 184.603C88.1081 190.515 68.1905 194.669 84.4492 193.006C100.708 191.343 139.656 175.55 123.582 182.017C107.508 188.483 74.436 198.645 94.3899 195.873C114.344 193.102 159.055 181.462 150.741 185.527C142.427 189.592 102.15 198.645 121.734 195.873C141.318 193.102 168.293 186.081 155.729 189.592C143.166 193.102 139.84 194.765 143.72 194.765" stroke="#212121" stroke-width="1.25801" stroke-linecap="round" stroke-linejoin="round"/>
<path d="M126.186 25.9929C123.972 19.1157 129.44 15.0652 132.452 13.8996C140.465 10.4028 146.73 17.2508 146.876 21.039C147.022 24.8273 146.439 30.3639 141.048 32.2581C135.657 34.1522 128.955 34.5893 126.186 25.9929Z" fill="#FFB359" stroke="#212121" stroke-width="1.87651" stroke-linecap="round" stroke-linejoin="round"/>
<path d="M130.013 14.8402L128.41 12.2425M147.258 22.1913L150.574 21.8597M139.133 12.6847L140.459 9.81055L144.77 11.745L143.278 14.8402M135.423 18.0674C135.228 19.8475 134.954 23.4336 135.423 23.5378C135.892 23.642 138.484 25.969 139.721 27.1196" stroke="#212121" stroke-width="1.87651" stroke-linecap="round" stroke-linejoin="round"/>
<path d="M73.5438 4.75293C75.3421 4.85961 79.5424 5.89597 81.9565 9.18792C83.4756 11.2435 85.8 16.8203 85.263 18.9293C84.4204 22.2385 79.0073 19.7002 79.1902 21.9863C79.3731 24.2724 80.5948 26.2827 81.9565 26.7646C84.2985 27.5934 87.552 26.7646 90.4412 26.7646C93.3304 26.7646 99.9239 28.3504 102.746 37.4729C105.222 45.4773 107.773 56.4313 108.927 61.2503C110.681 57.7763 115.201 49.5077 119.245 44.2246C123.29 38.9415 126.021 35.0067 126.881 33.6997L130.596 36.4857C128.945 39.1342 125.21 45.2565 123.476 48.5584C121.309 52.6859 111.197 73.8389 110.062 75.1803C108.927 76.5217 106.966 77.3472 104.8 74.3548C103.066 71.9609 98.0237 56.1598 95.7192 48.5584C93.5974 52.938 89.7432 64.2286 91.3002 74.3548L92.6476 83.5692L65.9771 89.1933L63.3223 92.0788L59.6865 93.4639L56.1662 86.9426L52.9104 71.476L52.4726 44.3648L53.8257 39.101C53.8279 38.5388 53.9655 37.9619 54.2729 37.3613C57.0737 31.8884 74.1311 33.6997 72.7358 24.4324C71.3435 15.1854 58.8214 7.97959 73.5438 4.75293Z" fill="white"/>
<path d="M78.1113 37.0365C74.6304 37.0365 60.6172 38.3868 53.3186 39.1354L52.3506 46.1148C55.5321 45.5533 60.5102 44.4194 62.5314 43.6334C65.0579 42.6509 69.9704 43.6334 72.0758 43.6334C74.1812 43.6334 75.7252 41.8087 82.0413 41.8087C87.0942 41.8087 97.3312 41.4255 104.022 41.0512L101.692 34.089C99.4459 34.5101 91.5857 36.054 88.4978 35.7733C85.4099 35.4926 82.4624 37.0365 78.1113 37.0365Z" fill="#1B4942"/>
<path fill-rule="evenodd" clip-rule="evenodd" d="M114.218 52.0383C117.143 51.9278 119.857 51.8198 122.091 51.7278L125.672 44.2988C124.287 44.3626 121.34 44.5181 118.83 44.7173L114.218 52.0383ZM105.633 46.3026C102.599 46.6151 99.6542 46.8242 97.8753 46.7052C95.7698 46.5643 93.7123 46.8832 91.4375 47.2357C89.1808 47.5855 86.7104 47.9684 83.7671 47.9684C79.4991 47.9684 65.3327 49.0441 55.3238 49.804C54.2447 49.886 53.2139 49.9642 52.249 50.0371L52.5038 56.6598C56.8252 56.0984 59.8594 55.3513 62.6048 54.5653C65.0404 53.868 69.1086 54.1605 72.2875 54.389C73.5876 54.4825 74.739 54.5653 75.5691 54.5653C76.6158 54.5653 77.5604 54.3208 78.7581 54.0109C80.8325 53.474 83.6663 52.7406 89.1053 52.7406C90.3689 52.7406 91.9773 52.719 93.8172 52.6813C94.0681 52.6762 94.3566 51.7918 94.6503 50.8796L95.5657 48.8996C95.7732 48.8947 95.9479 49.8073 96.1244 50.7291C96.3045 51.6698 96.4865 52.62 96.7068 52.6143C99.72 52.5374 103.116 52.4317 106.531 52.3153L105.633 46.3026Z" fill="#1B4942"/>
<path fill-rule="evenodd" clip-rule="evenodd" d="M107.471 56.5611L108.787 60.6673L111.581 55.9358C111.791 55.9026 111.98 55.8729 112.144 55.8473C114.301 55.5104 118.436 55.2391 120.234 55.1455L116.597 62.2638C114.063 62.3819 110.941 62.5551 107.663 62.7369L107.663 62.7369C105.306 62.8677 102.87 63.0029 100.513 63.1252L98.4991 57.537C101.085 57.422 104.577 56.9783 107.471 56.5611ZM83.8282 58.7948C79.6483 58.7948 61.0748 59.936 52.3105 60.6846L52.3106 67.5961C52.9083 67.5083 53.573 67.4132 54.2785 67.3124L54.2792 67.3123L54.2792 67.3123C58.0835 66.7682 63.0727 66.0547 65.1199 65.3917C67.2731 64.6944 70.8695 64.9869 73.6798 65.2155C74.8292 65.3089 75.847 65.3917 76.5809 65.3917C77.5062 65.3917 78.3413 65.1473 79.4001 64.8373C81.234 64.3004 83.7391 63.5671 88.5475 63.5671C89.3371 63.5671 90.2601 63.5513 91.2862 63.5231L92.3319 57.7719C91.7702 57.8586 91.1979 57.959 90.6092 58.0622C88.6142 58.4119 86.4302 58.7948 83.8282 58.7948Z" fill="#1B4942"/>
<path d="M71.668 84.2188C68.1871 84.2188 63.3905 85.0284 56.0918 85.777L58.1021 91.4728C61.2835 90.9113 60.3667 91.371 62.3878 90.585C64.9143 89.6025 64.8764 89.388 66.9818 89.388L71.668 84.2188Z" fill="#1B4942"/>
<path fill-rule="evenodd" clip-rule="evenodd" d="M52.8027 73.7141C60.7987 72.9655 77.1041 71.539 80.9176 71.539C83.2914 71.539 85.284 71.1561 87.104 70.8063C88.3689 70.5632 89.5505 70.3362 90.7189 70.2648L91.4139 76.1376C88.9865 76.2432 86.8318 76.3112 85.2231 76.3112C80.8362 76.3112 78.5507 77.0446 76.8776 77.5814C75.9116 77.8914 75.1498 78.1359 74.3055 78.1359C73.636 78.1359 72.7074 78.0531 71.6588 77.9596C69.0949 77.731 65.8138 77.4385 63.8493 78.1359C61.6581 78.9137 57.6025 79.5669 54.1406 80.1245H54.1405L54.0316 80.1421L52.8027 73.7141ZM105.79 75.366C107.329 75.279 108.782 75.1987 110.088 75.132L114.131 67.8896C112.491 67.9832 108.719 68.2546 106.751 68.5914C106.598 68.6175 106.423 68.6478 106.226 68.6818C105.32 68.8382 103.972 69.071 102.445 69.312C103.261 72.6483 104.922 74.6614 105.79 75.366Z" fill="#1B4942"/>
<path d="M61.9629 80.3535V71.4897L62.7004 61.3828L66.4501 77.7509L61.9629 80.3535Z" fill="#1B4942"/>
<path d="M67.3438 31.5414C69.844 33.0043 76.3716 34.3677 83.9412 31.5414C89.5383 29.4515 90.2462 27.1435 88.0119 27.0371" stroke="#212121" stroke-width="1.25801" stroke-linecap="round" stroke-linejoin="round"/>
<path d="M81.7999 9.18792L82.2958 8.80077L82.2879 8.79109L81.7999 9.18792ZM73.3871 4.75293L73.4244 4.12503C73.3667 4.12161 73.3089 4.12614 73.2525 4.13851L73.3871 4.75293ZM85.4119 16.8922L84.7986 17.032C84.8038 17.0546 84.8102 17.077 84.8178 17.0989L85.4119 16.8922ZM84.9883 20.732L84.7213 20.1625H84.7213L84.9883 20.732ZM82.9037 21.1486L82.98 21.7729L82.9037 21.1486ZM79.1786 23.1755L78.5516 23.2257L79.1786 23.1755ZM81.7999 26.7646L82.1544 26.245L81.7999 26.7646ZM87.4101 27.076L87.5017 27.6983L87.4101 27.076ZM102.531 36.4857L103.122 36.2707L102.531 36.4857ZM106.833 52.8422L106.218 52.9747L106.833 52.8422ZM108.77 61.2503L108.162 61.4103C108.229 61.6631 108.444 61.8484 108.704 61.8758C108.964 61.9032 109.214 61.7671 109.332 61.5338L108.77 61.2503ZM119.089 44.2246L118.589 43.8423L119.089 44.2246ZM126.725 33.6997L127.102 33.1965C126.963 33.0924 126.788 33.0502 126.617 33.0801C126.446 33.1099 126.295 33.209 126.199 33.354L126.725 33.6997ZM130.439 36.4857L130.973 36.8185C131.146 36.5415 131.078 36.1784 130.817 35.9825L130.439 36.4857ZM123.32 48.5584L122.763 48.2661H122.763L123.32 48.5584ZM118.788 57.6954L118.224 57.4184L118.788 57.6954ZM109.905 75.1803L110.386 75.5866L109.905 75.1803ZM104.643 74.3548L104.133 74.7237L104.643 74.3548ZM95.5626 48.5584L96.1646 48.3759C96.0894 48.1281 95.8701 47.9516 95.6119 47.9314C95.3537 47.9111 95.1095 48.0511 94.9965 48.2842L95.5626 48.5584ZM91.1436 74.3548L91.766 74.2638L91.7653 74.2592L91.1436 74.3548ZM92.491 83.5692L92.5235 84.1974C92.7003 84.1883 92.8651 84.1051 92.9773 83.9682C93.0896 83.8313 93.139 83.6534 93.1134 83.4782L92.491 83.5692ZM71.4789 84.6537L71.4465 84.0256C71.3072 84.0328 71.1742 84.086 71.0685 84.177L71.4789 84.6537ZM63.8681 91.3149L64.3003 91.7719L63.8681 91.3149ZM58.9137 92.7171L58.3662 93.0269C58.3827 93.0561 58.4015 93.0839 58.4225 93.11L58.9137 92.7171ZM52.3251 45.646L51.6969 45.6142L52.3251 45.646ZM63.9615 32.3293L63.8592 31.7087L63.8592 31.7087L63.9615 32.3293ZM72.3838 23.935L73.0113 23.8917C73.0067 23.8248 72.9914 23.7591 72.966 23.697L72.3838 23.935ZM69.0866 17.86L69.6227 17.531L69.0866 17.86ZM62.0208 54.8413L62.6472 54.7839C62.6229 54.5182 62.4336 54.2967 62.1748 54.2314C61.9161 54.1661 61.6443 54.2711 61.4967 54.4935L62.0208 54.8413ZM61.9985 54.875L61.4744 54.5272C61.406 54.6303 61.3695 54.7512 61.3695 54.875H61.9985ZM61.9985 81.2191H61.3695C61.3695 81.4668 61.5148 81.6915 61.7408 81.7929C61.9668 81.8944 62.2312 81.8538 62.4164 81.6892L61.9985 81.2191ZM66.6431 77.6999L66.9917 78.2235C67.224 78.0688 67.3266 77.7795 67.2437 77.5131L66.6431 77.6999ZM82.2879 8.79109C79.5733 5.45265 75.3491 4.23921 73.4244 4.12503L73.3499 5.38083C75.0219 5.48002 78.8756 6.58857 81.3119 9.58476L82.2879 8.79109ZM86.0252 16.7525C85.683 15.2512 84.4693 11.585 82.2957 8.80084L81.3041 9.575C83.3245 12.1629 84.4803 15.6354 84.7986 17.032L86.0252 16.7525ZM85.2553 21.3016C85.7527 21.0684 86.0298 20.6337 86.1775 20.2034C86.3237 19.7776 86.3649 19.3004 86.3594 18.8615C86.3486 17.9859 86.1488 17.096 86.006 16.6856L84.8178 17.0989C84.9189 17.3895 85.0925 18.1452 85.1015 18.8771C85.106 19.2419 85.0687 19.5589 84.9877 19.7949C84.9081 20.0265 84.8091 20.1213 84.7213 20.1625L85.2553 21.3016ZM82.98 21.7729C83.3948 21.7222 83.8176 21.6708 84.196 21.6031C84.5676 21.5367 84.9451 21.4469 85.2553 21.3016L84.7213 20.1625C84.5646 20.236 84.3191 20.3032 83.9747 20.3647C83.6372 20.425 83.2512 20.4724 82.8274 20.5242L82.98 21.7729ZM79.8056 23.1254C79.787 22.8918 79.8466 22.748 79.941 22.634C80.0508 22.5014 80.2445 22.3674 80.554 22.2456C81.1868 21.9963 82.0599 21.8853 82.98 21.7729L82.8274 20.5242C81.958 20.6304 80.9064 20.7547 80.0929 21.0751C79.6792 21.238 79.2694 21.4725 78.972 21.8318C78.6592 22.2096 78.5081 22.6809 78.5516 23.2257L79.8056 23.1254ZM82.1544 26.245C81.5871 25.8581 81.0005 25.2553 80.5467 24.6304C80.3216 24.3203 80.1376 24.0164 80.008 23.7448C79.8746 23.465 79.816 23.2553 79.8056 23.1254L78.5516 23.2257C78.5794 23.5723 78.7075 23.9404 78.8726 24.2864C79.0416 24.6407 79.2681 25.0107 79.5287 25.3696C80.0464 26.0825 80.7323 26.7978 81.4455 27.2842L82.1544 26.245ZM87.3184 26.4537C86.2484 26.6112 85.2366 26.7589 84.325 26.759C83.4126 26.7591 82.6885 26.6093 82.1544 26.245L81.4455 27.2842C82.2827 27.8554 83.3048 28.0171 84.3252 28.017C85.3464 28.0169 86.454 27.8525 87.5017 27.6983L87.3184 26.4537ZM90.487 26.1356C89.4698 26.1356 88.3649 26.2996 87.3184 26.4537L87.5017 27.6983C88.5706 27.5409 89.5796 27.3936 90.487 27.3936V26.1356ZM103.122 36.2707C101.447 31.6676 99.0725 29.1103 96.6853 27.7168C94.308 26.3291 91.9864 26.1356 90.487 26.1356V27.3936C91.8768 27.3936 93.9449 27.5738 96.0511 28.8033C98.1473 30.0269 100.35 32.3302 101.94 36.7008L103.122 36.2707ZM107.448 52.7097C106.286 47.3184 105.047 41.5633 103.122 36.2707L101.94 36.7008C103.83 41.8985 105.053 47.5675 106.218 52.9747L107.448 52.7097ZM109.379 61.0902C108.692 58.48 108.082 55.6499 107.448 52.7097L106.218 52.9747C106.851 55.9086 107.467 58.7676 108.162 61.4103L109.379 61.0902ZM118.589 43.8423C114.508 49.1731 109.967 57.4842 108.209 60.9667L109.332 61.5338C111.082 58.0685 115.58 49.8423 119.588 44.607L118.589 43.8423ZM126.199 33.354C125.349 34.6456 122.628 38.568 118.589 43.8423L119.588 44.607C123.64 39.3151 126.38 35.3678 127.25 34.0454L126.199 33.354ZM130.817 35.9825L127.102 33.1965L126.347 34.2029L130.062 36.9889L130.817 35.9825ZM123.876 48.8508C125.598 45.5725 129.321 39.4691 130.973 36.8185L129.906 36.153C128.256 38.7992 124.509 44.9405 122.763 48.2661L123.876 48.8508ZM119.353 57.9723C121.361 53.8778 123.115 50.3004 123.876 48.8508L122.763 48.2661C121.991 49.7356 120.226 53.3355 118.224 57.4184L119.353 57.9723ZM110.386 75.5866C110.52 75.4274 110.698 75.1388 110.893 74.8003C111.098 74.4435 111.351 73.9787 111.643 73.428C112.227 72.3258 112.974 70.863 113.81 69.1975C115.482 65.8657 117.521 61.7083 119.353 57.9723L118.224 57.4184C116.391 61.156 114.355 65.3076 112.685 68.6331C111.851 70.2962 111.109 71.7492 110.532 72.8389C110.243 73.3842 109.997 73.8344 109.802 74.1729C109.597 74.5296 109.474 74.7164 109.425 74.774L110.386 75.5866ZM104.133 74.7237C105.278 76.3041 106.475 77.0218 107.661 77.0218C108.826 77.0218 109.759 76.3271 110.386 75.5866L109.425 74.774C108.917 75.3749 108.302 75.7637 107.661 75.7637C107.041 75.7637 106.175 75.3979 105.152 73.9859L104.133 74.7237ZM94.9607 48.7409C96.1142 52.546 97.9531 58.4035 99.7213 63.6116C100.605 66.2151 101.473 68.6619 102.231 70.611C102.609 71.5851 102.962 72.4407 103.277 73.1318C103.587 73.8114 103.877 74.3698 104.133 74.7237L105.152 73.9859C104.975 73.7414 104.729 73.2823 104.422 72.6099C104.121 71.949 103.777 71.1179 103.403 70.1553C102.655 68.2308 101.794 65.8034 100.912 63.2072C99.15 58.0159 97.3155 52.1723 96.1646 48.3759L94.9607 48.7409ZM91.7653 74.2592C90.236 64.3131 94.0326 53.1591 96.1287 48.8327L94.9965 48.2842C92.8491 52.7168 88.9372 64.1441 90.5219 74.4504L91.7653 74.2592ZM93.1134 83.4782L91.766 74.2638L90.5212 74.4458L91.8686 83.6602L93.1134 83.4782ZM71.5113 85.2819L92.5235 84.1974L92.4586 82.9411L71.4465 84.0256L71.5113 85.2819ZM71.0685 84.177C67.5542 87.2021 64.606 89.7511 63.4358 90.858L64.3003 91.7719C65.443 90.6909 68.3606 88.1678 71.8892 85.1304L71.0685 84.177ZM63.4358 90.858C62.1082 92.1138 61.1133 92.5277 60.4641 92.6069C59.8233 92.685 59.5019 92.4455 59.4048 92.3242L58.4225 93.11C58.824 93.6119 59.5963 93.98 60.6163 93.8556C61.628 93.7323 62.8609 93.1335 64.3003 91.7719L63.4358 90.858ZM59.4611 92.4073C56.12 86.5032 54.3631 77.1665 53.5114 68.0712C52.662 59.002 52.7209 50.2795 52.9533 45.6777L51.6969 45.6142C51.4619 50.2669 51.4031 59.0505 52.2588 68.1885C53.1122 77.3005 54.8833 86.8722 58.3662 93.0269L59.4611 92.4073ZM52.9533 45.6777C53.1328 42.1239 53.7658 39.3271 55.3773 37.2373C56.9762 35.1639 59.6217 33.6827 64.0639 32.9499L63.8592 31.7087C59.2339 32.4716 56.2427 34.055 54.3811 36.4691C52.532 38.8669 51.8805 41.9806 51.6969 45.6142L52.9533 45.6777ZM64.0639 32.9499C67.773 32.3381 70.0728 30.7598 71.4159 28.9592C72.7473 27.1743 73.1028 25.2182 73.0113 23.8917L71.7563 23.9783C71.829 25.032 71.5433 26.6843 70.4075 28.207C69.2834 29.7141 67.2899 31.1428 63.8592 31.7087L64.0639 32.9499ZM68.5506 18.1891C69.739 20.125 70.9634 22.1223 71.8015 24.1729L72.966 23.697C72.0824 21.5349 70.8007 19.4499 69.6227 17.531L68.5506 18.1891ZM73.2525 4.13851C70.4959 4.74266 68.5415 5.51582 67.2425 6.47201C65.9168 7.44779 65.2708 8.61928 65.1721 9.94468C65.0767 11.2273 65.5004 12.5766 66.1324 13.9282C66.7671 15.2855 67.6513 16.7244 68.5506 18.1891L69.6227 17.531C68.7133 16.0497 67.8705 14.6752 67.272 13.3953C66.6708 12.1096 66.3552 10.9976 66.4267 10.0381C66.4949 9.12136 66.9221 8.26991 67.9882 7.48514C69.081 6.68078 70.837 5.95577 73.5218 5.36735L73.2525 4.13851ZM61.4967 54.4935L61.4744 54.5272L62.5226 55.2228L62.5449 55.1891L61.4967 54.4935ZM61.3695 54.875V81.2191H62.6275V54.875H61.3695ZM62.4164 81.6892C63.2888 80.9137 64.9545 79.5801 66.9917 78.2235L66.2945 77.1764C64.2108 78.5639 62.4985 79.933 61.5806 80.749L62.4164 81.6892ZM61.3945 54.8986C62.1364 63.0053 64.0805 71.58 66.0425 77.8868L67.2437 77.5131C65.303 71.2747 63.3798 62.7876 62.6472 54.7839L61.3945 54.8986Z" fill="#212121"/>
<path d="M52.3478 45.3282C51.8804 54.5826 52.0899 80.6586 58.9139 92.7174C59.4124 93.3406 61.1013 93.9327 63.8683 91.3152C67.327 88.0434 86.6773 71.8715 90.136 68.1323L86.3034 64.3931C83.6236 66.9482 77.1424 72.5258 72.6554 74.3954C68.1683 76.265 63.6813 79.7238 61.9987 81.2194V51.5893" stroke="#212121" stroke-width="1.25801" stroke-linecap="round" stroke-linejoin="round"/>
<path d="M86.2334 64.452C87.607 63.0699 89.1136 61.5854 90.0965 60.4183C91.3251 58.9594 101.871 57.3109 102.332 57.2341C102.793 57.1573 97.1872 59.6913 96.4961 60.0752C95.8051 60.4592 101.948 58.8466 103.023 58.8466C104.051 58.8466 97.9841 61.3054 96.648 61.5193C97.9699 61.4618 104.908 61.2689 103.714 61.5342L103.714 61.5342C102.332 61.8413 96.8033 63.0699 97.4176 63.0699C98.0319 63.0699 105.096 64.452 103.714 64.452C102.332 64.452 93.8086 64.836 92.6568 64.836C91.7354 64.836 90.7108 67.2397 90.0965 68.0587L86.2334 64.452Z" fill="white" stroke="#212121" stroke-width="1.25801" stroke-linecap="round" stroke-linejoin="round"/>
<path d="M67.8506 49.7657C68.4468 55.4802 75.8174 59.7695 80.4689 52.2045C84.7641 45.2191 82.4308 42.7015 81.0574 44.3167C80.0973 45.4459 79.7532 49.2378 81.8474 52.2045C85.9192 57.9729 92.1693 53.6713 90.4637 48.5547" stroke="#212121" stroke-width="1.25801" stroke-linecap="round" stroke-linejoin="round"/>
<path d="M126.747 33.4193C126.747 32.8849 126.488 31.1623 125.452 28.5477C124.157 25.2794 125.513 23.9227 127.733 23.2444C129.953 22.5661 130.015 22.9977 127.733 25.0327C125.452 27.0677 127.795 30.5827 128.35 31.3227C128.882 32.0323 132.236 35.3885 136.753 33.3244L137.339 33.029C137.141 33.1378 136.946 33.2361 136.753 33.3244L130.57 36.441L126.747 33.4193Z" fill="white" stroke="#212121" stroke-width="1.25801" stroke-linecap="round" stroke-linejoin="round"/>
<path d="M74.3174 12.6021C77.3038 11.2155 85.2782 6.40563 85.9448 5.11685C84.6113 3.90231 74.3174 2.80457 67.4868 4.4137C62.0223 5.701 62.1923 14.887 62.9604 19.3191C59.48 17.9656 49.4451 14.7273 37.1479 12.6021C21.7764 9.94546 0.618819 12.6177 1.4889 28.9056C2.35899 45.1935 24.0967 46.8717 34.8277 34.1105C45.5587 21.3492 60.9246 30.996 67.8853 26.6456C73.4538 23.1653 72.7966 13.5024 72.7842 9.86897L74.3174 12.6021Z" fill="#212121" stroke="#212121" stroke-width="1.25801" stroke-linecap="round" stroke-linejoin="round"/>
<path d="M70.8318 15.7989C71.3101 14.0566 72.9671 15.073 73.7357 15.7989L73.3941 19.5996C72.3407 19.0587 70.3536 17.5413 70.8318 15.7989Z" fill="white"/>
<path d="M130.807 107.171C115.687 93.5263 99.1116 85.4739 92.7138 83.1533L71.6716 84.5781L66.6487 88.8835L72.1544 125.286L63.7051 161.111L77.6587 167.109L92.7138 136.777C94.4206 134.356 96.1666 114.531 94.4206 107.171L115.806 118.365L130.807 152.347L145.559 143.588C142.24 131.787 134.341 114.393 130.807 107.171Z" fill="#212121" stroke="#212121" stroke-width="1.25801" stroke-linecap="round" stroke-linejoin="round"/>
<path d="M66.8928 161.993C65.1877 164.576 60.0425 179.694 59.2985 181.182C58.9455 181.888 59.8428 183.733 61.3039 185.776M70.9242 181.182C69.7875 182.733 67.8631 187.399 73.5675 189.383C79.2719 191.367 79.1914 192.446 77.8997 193.273C76.5562 193.428 73.0944 193.645 69.9942 193.273C67.9286 193.025 65.375 185.239 63.0088 182.312M130.733 150.211C131.811 153.303 140.398 172.792 143.159 173.137C144.088 173.253 145.172 173.088 146.337 172.743M143.931 159.912C144.636 164.115 149.027 166.704 154.636 164.115C160.246 161.526 159.987 165.801 156.104 167.959C153.933 169.165 147.437 168.185 144.866 169.296M61.3039 185.776C61.6407 186.246 62.6205 181.832 63.0088 182.312M61.3039 185.776L63.0088 182.312M146.337 172.743C147.082 172.522 144.074 169.638 144.866 169.296M146.337 172.743L144.866 169.296" stroke="#212121" stroke-width="1.25801" stroke-linecap="round" stroke-linejoin="round"/>
<path d="M80.9125 121.309C77.7399 122.414 71.5675 124.741 72.2597 125.202C72.952 125.664 77.2591 126.644 79.3262 127.077" stroke="#1B4942" stroke-width="1.25801" stroke-linecap="round" stroke-linejoin="round"/>
<path d="M119.38 111.362C117.727 113.738 114.794 118.459 116.281 118.335C117.769 118.211 120.413 117.457 121.55 117.095" stroke="#1B4942" stroke-width="1.25801" stroke-linecap="round" stroke-linejoin="round"/>
<path d="M95.9257 109.785L94.0127 98.5322" stroke="#1B4942" stroke-width="1.25801" stroke-linecap="round" stroke-linejoin="round"/>
</svg>
