<svg width="240" height="200" viewBox="0 0 240 200" fill="none" xmlns="http://www.w3.org/2000/svg">
<path fill-rule="evenodd" clip-rule="evenodd" d="M128.049 177.857C127.687 183.073 127.58 190.114 129.09 190.771C131.369 191.762 139.1 193.05 144.947 193.05C150.795 193.05 150.993 190.572 149.705 189.581C149.111 189.125 147.488 188.984 145.706 188.829C143.618 188.647 141.313 188.447 140.19 187.698C138.21 186.378 136.679 184.7 137.302 178.484C154.522 180.043 166.493 183.496 166.493 187.504C166.493 192.976 144.193 197.411 116.684 197.411C89.1746 197.411 66.874 192.976 66.874 187.504C66.874 183.62 78.1116 180.259 94.4726 178.635C94.6823 180.356 94.2007 183.339 90.9048 185.076C89.0528 186.052 87.1012 186.5 85.4626 186.876C82.9861 187.445 81.2246 187.849 81.6028 189.665C82.2313 192.681 94.4244 191.11 98.4469 190.23C98.6757 190.18 98.8973 190.133 99.1119 190.087L99.1122 190.087C102.671 189.326 104.288 188.98 104.229 183.882C104.201 181.476 104.055 179.438 103.895 177.927C107.976 177.712 112.263 177.598 116.684 177.598C120.594 177.598 124.399 177.687 128.049 177.857Z" fill="#FDFAF5"/>
<path d="M59.9483 185.481C77.6295 183.892 102.139 174.356 89.8214 179.919C77.5041 185.481 63.5975 189.057 72.3388 188.263C79.3318 187.627 84.3912 187.071 86.0467 186.872M104.523 182.899C112.072 180.912 126.217 177.535 122.403 179.919C117.635 182.899 96.1787 193.229 109.291 190.051C119.78 187.508 125.846 185.945 127.568 185.481M137.501 183.892C145.911 181.574 161.659 177.535 157.368 179.919C152.004 182.899 140.68 186.872 145.448 186.872C149.262 186.872 156.043 185.945 158.957 185.481" stroke="black" stroke-width="1.12227" stroke-linecap="round" stroke-linejoin="round"/>
<path d="M126.802 8.59234C129.21 5.309 133.399 4.27535 135.193 4.16895C149.877 7.38716 139.284 15.0678 135.999 23.797C134.671 27.3265 151.747 29.3773 154.54 34.8359C157.274 40.1773 156.24 46.2044 156.24 54.0993C155.784 60.8026 151.285 66.6518 147.741 75.4401C144.782 82.779 143.166 85.411 141.965 87.9033L116.139 82.779L117.483 73.5887C118.941 63.5421 114.597 54.8547 114.597 54.8547C113.936 60.2371 112.906 69.6627 111.859 72.4184C110.065 77.1398 104.666 79.8509 100.055 74.4014C98.9231 73.0635 89.6476 58.5007 87.0559 49.2385C84.4643 39.9763 82.2908 28.5736 85.3877 23.6123L88.7483 26.123C88.7483 28.1944 88.0627 33.4194 91.8398 41.918C94.5351 47.9823 100.999 59.3872 103.643 64.1087C103.3 58.4483 105.637 42.943 106.46 35.3684C107.49 25.9002 114.076 26.6206 116.958 26.6206C119.839 26.6206 124.718 27.4621 126.802 26.123C128.887 24.7839 129.63 22.5921 129.812 20.312C129.994 18.0319 125.952 18.974 124.386 18.5958C122.354 18.1054 122.283 16.27 122.984 14.5323C123.686 12.7946 124.56 11.435 126.802 8.59234Z" fill="white"/>
<path d="M135.193 4.16895L135.16 3.60879C135.211 3.60574 135.263 3.60979 135.313 3.62082L135.193 4.16895ZM126.802 8.59234L127.255 8.92417C127.251 8.92947 127.247 8.9347 127.243 8.93986L126.802 8.59234ZM124.386 18.5958L124.517 18.0504L124.386 18.5958ZM106.46 35.3684L107.018 35.4291L106.46 35.3684ZM103.643 64.1087L104.204 64.0747C104.219 64.3359 104.053 64.5734 103.801 64.6471C103.55 64.7208 103.282 64.6112 103.154 64.3828L103.643 64.1087ZM91.8398 41.918L92.3526 41.6901L91.8398 41.918ZM88.7483 26.123L89.0841 25.6735C89.2259 25.7795 89.3094 25.9461 89.3094 26.123H88.7483ZM85.3877 23.6123L84.9117 23.3151C84.9948 23.182 85.1299 23.0897 85.2842 23.0608C85.4385 23.0318 85.5978 23.0688 85.7236 23.1627L85.3877 23.6123ZM100.055 74.4014L99.6268 74.7638V74.7638L100.055 74.4014ZM111.859 72.4184L111.334 72.219L111.859 72.4184ZM114.597 54.8547L114.04 54.7863C114.07 54.5406 114.258 54.3438 114.502 54.3017C114.746 54.2597 114.988 54.3824 115.099 54.6037L114.597 54.8547ZM117.483 73.5887L118.038 73.6693L118.038 73.6699L117.483 73.5887ZM116.139 82.779L116.03 83.3295C115.737 83.2713 115.541 82.9936 115.584 82.6979L116.139 82.779ZM141.965 87.9033L142.471 88.1469C142.36 88.3773 142.107 88.5035 141.856 88.4537L141.965 87.9033ZM135.999 23.797L135.474 23.5993L135.999 23.797ZM156.24 54.0993H156.801C156.801 54.1119 156.801 54.1246 156.8 54.1373L156.24 54.0993ZM154.54 34.8359L155.04 34.5802H155.04L154.54 34.8359ZM147.741 75.4401L147.221 75.2302L147.741 75.4401ZM135.226 4.7291C134.395 4.7784 132.964 5.04796 131.451 5.70408C129.941 6.35916 128.384 7.3848 127.255 8.92417L126.35 8.2605C127.629 6.51653 129.37 5.38368 131.005 4.6745C132.637 3.96636 134.197 3.6659 135.16 3.60879L135.226 4.7291ZM123.505 14.7423C123.175 15.5592 123.061 16.3221 123.204 16.8959C123.334 17.4137 123.687 17.85 124.517 18.0504L124.254 19.1413C123.052 18.8513 122.354 18.1246 122.116 17.1677C121.891 16.2668 122.092 15.2431 122.464 14.3222L123.505 14.7423ZM124.517 18.0504C124.833 18.1265 125.31 18.1413 125.92 18.1418C126.501 18.1422 127.179 18.1307 127.8 18.1814C128.41 18.2313 129.062 18.3463 129.561 18.6605C129.821 18.8244 130.048 19.0484 130.198 19.3492C130.347 19.6495 130.401 19.9895 130.371 20.3568L129.253 20.2673C129.269 20.0646 129.236 19.9352 129.193 19.8491C129.151 19.7635 129.08 19.6841 128.962 19.6098C128.705 19.4476 128.283 19.3469 127.709 19.3C127.146 19.254 126.532 19.2645 125.92 19.264C125.337 19.2636 124.722 19.2543 124.254 19.1413L124.517 18.0504ZM130.371 20.3568C130.182 22.7186 129.402 25.1204 127.106 26.5952L126.499 25.6509C128.373 24.4475 129.077 22.4656 129.253 20.2673L130.371 20.3568ZM127.106 26.5952C126.486 26.9932 125.698 27.2072 124.866 27.3216C124.028 27.4369 123.099 27.4568 122.166 27.435C121.232 27.4131 120.274 27.3489 119.382 27.2911C118.483 27.2329 117.657 27.1817 116.958 27.1817V26.0595C117.7 26.0595 118.564 26.1135 119.455 26.1712C120.353 26.2294 121.286 26.2918 122.192 26.313C123.099 26.3342 123.961 26.3134 124.713 26.2098C125.473 26.1054 126.076 25.9224 126.499 25.6509L127.106 26.5952ZM116.958 27.1817C115.456 27.1817 113.247 27.0149 111.253 27.9518C109.333 28.8541 107.517 30.8435 107.018 35.4291L105.903 35.3078C106.433 30.4251 108.425 28.0406 110.776 26.9361C113.053 25.8661 115.578 26.0595 116.958 26.0595V27.1817ZM107.018 35.4291C106.607 39.21 105.813 45.0172 105.172 50.5213C104.526 56.0667 104.036 61.3043 104.204 64.0747L103.083 64.1426C102.908 61.2527 103.415 55.9075 104.057 50.3915C104.704 44.8342 105.49 39.1014 105.903 35.3078L107.018 35.4291ZM103.154 64.3828C100.518 59.6764 94.0359 48.2407 91.3271 42.1459L92.3526 41.6901C95.0344 47.724 101.481 59.0981 104.133 63.8345L103.154 64.3828ZM91.3271 42.1459C89.4151 37.8441 88.6273 34.3578 88.3201 31.6741C88.0145 29.0044 88.1871 27.1072 88.1871 26.123H89.3094C89.3094 27.2102 89.1392 28.9612 89.4351 31.5465C89.7294 34.1178 90.4874 37.4934 92.3526 41.6901L91.3271 42.1459ZM88.4124 26.5726L85.0519 24.0618L85.7236 23.1627L89.0841 25.6735L88.4124 26.5726ZM85.8637 23.9094C85.1527 25.0485 84.7225 26.5963 84.5358 28.4628C84.3496 30.3239 84.409 32.4632 84.6468 34.7546C85.1223 39.3379 86.3042 44.4696 87.5963 49.0873L86.5155 49.3897C85.216 44.7451 84.0154 39.5444 83.5305 34.8704C83.288 32.5333 83.2228 30.3128 83.4191 28.3511C83.6148 26.3947 84.0743 24.6567 84.9117 23.3151L85.8637 23.9094ZM87.5963 49.0873C88.8729 53.6494 91.8107 59.5562 94.5923 64.5171C95.9795 66.9911 97.3212 69.2181 98.3857 70.9087C99.4608 72.6161 100.231 73.7406 100.483 74.0389L99.6268 74.7638C99.3132 74.3932 98.4995 73.1956 97.436 71.5067C96.362 69.8011 95.0106 67.5577 93.6134 65.066C90.8264 60.0954 87.8307 54.0897 86.5155 49.3897L87.5963 49.0873ZM100.483 74.0389C102.68 76.6352 104.97 77.1999 106.866 76.6826C108.804 76.1536 110.485 74.4531 111.334 72.219L112.383 72.6177C111.438 75.105 109.523 77.1208 107.161 77.7653C104.756 78.4216 102.041 77.6171 99.6268 74.7638L100.483 74.0389ZM111.334 72.219C111.577 71.581 111.83 70.5186 112.084 69.165C112.336 67.822 112.582 66.227 112.817 64.544C113.287 61.1764 113.709 57.4844 114.04 54.7863L115.154 54.9231C114.824 57.6074 114.4 61.3194 113.928 64.6992C113.692 66.3898 113.443 68.0043 113.187 69.3718C112.932 70.7287 112.664 71.8779 112.383 72.6177L111.334 72.219ZM114.597 54.8547C115.099 54.6037 115.099 54.6039 115.099 54.6041C115.099 54.6042 115.099 54.6045 115.099 54.6047C115.1 54.6052 115.1 54.6058 115.1 54.6065C115.101 54.608 115.102 54.6099 115.103 54.6124C115.106 54.6174 115.109 54.6246 115.114 54.6337C115.123 54.6521 115.136 54.6788 115.152 54.7135C115.185 54.783 115.233 54.8847 115.292 55.017C115.412 55.2815 115.579 55.6681 115.775 56.1626C116.166 57.1512 116.671 58.5724 117.129 60.3112C118.045 63.7848 118.781 68.548 118.038 73.6693L116.928 73.5082C117.642 68.5828 116.936 63.979 116.044 60.5973C115.599 58.9084 115.109 57.5298 114.731 56.5756C114.542 56.0986 114.382 55.728 114.269 55.4782C114.213 55.3533 114.169 55.2586 114.139 55.1959C114.124 55.1646 114.113 55.1412 114.105 55.1261C114.102 55.1185 114.099 55.113 114.097 55.1096C114.096 55.1079 114.096 55.1067 114.095 55.106C114.095 55.1057 114.095 55.1055 114.095 55.1054C114.095 55.1054 114.095 55.1055 114.095 55.1054C114.095 55.1055 114.095 55.1056 114.597 54.8547ZM118.038 73.6699L116.694 82.8602L115.584 82.6979L116.928 73.5076L118.038 73.6699ZM116.248 82.2286L142.075 87.3529L141.856 88.4537L116.03 83.3295L116.248 82.2286ZM135.474 23.5993C136.317 21.3593 137.623 19.1988 138.845 17.2066C140.084 15.1882 141.219 13.3663 141.806 11.727C142.387 10.1058 142.384 8.80267 141.533 7.71098C140.64 6.56475 138.717 5.51575 135.073 4.71707L135.313 3.62082C139.011 4.43125 141.271 5.54917 142.418 7.02097C143.608 8.54731 143.505 10.3134 142.863 12.1057C142.227 13.88 141.015 15.8161 139.802 17.7935C138.573 19.797 137.324 21.87 136.524 23.9946L135.474 23.5993ZM155.679 54.0993C155.679 52.1149 155.744 50.2481 155.798 48.4926C155.852 46.7328 155.895 45.0873 155.854 43.5248C155.772 40.4024 155.353 37.6558 154.041 35.0915L155.04 34.5802C156.461 37.3574 156.892 40.295 156.976 43.4953C157.018 45.094 156.974 46.7695 156.92 48.5271C156.865 50.289 156.801 52.1361 156.801 54.0993H155.679ZM154.041 35.0915C153.429 33.8958 151.981 32.8119 150.021 31.8035C148.084 30.8069 145.762 29.9398 143.53 29.1197C141.322 28.3081 139.18 27.5351 137.68 26.7388C136.933 26.3426 136.288 25.9117 135.873 25.425C135.438 24.9161 135.215 24.2872 135.474 23.5993L136.524 23.9946C136.451 24.1891 136.47 24.3964 136.726 24.6965C137.002 25.0189 137.495 25.3699 138.206 25.7476C139.621 26.499 141.674 27.2417 143.918 28.0663C146.138 28.8825 148.526 29.7721 150.535 30.8056C152.521 31.8272 154.255 33.0466 155.04 34.5802L154.041 35.0915ZM141.46 87.6597C142.676 85.1363 144.271 82.5468 147.221 75.2302L148.262 75.6499C145.293 83.0113 143.657 85.6857 142.471 88.1469L141.46 87.6597ZM147.221 75.2302C149.001 70.8155 151.035 67.1082 152.642 63.7458C154.261 60.3597 155.46 57.3016 155.68 54.0612L156.8 54.1373C156.564 57.6002 155.286 60.8184 153.655 64.2298C152.013 67.6649 150.025 71.2763 148.262 75.6499L147.221 75.2302ZM122.464 14.3222C123.196 12.5084 124.111 11.098 126.362 8.24482L127.243 8.93986C125.009 11.772 124.175 13.0808 123.505 14.7423L122.464 14.3222Z" fill="#212121"/>
<path d="M129.606 22.0166L135.934 23.3673" stroke="#212121" stroke-width="1.12227" stroke-linecap="round" stroke-linejoin="round"/>
<path d="M149.606 85.2154C142.799 73.188 140.748 46.8025 141.214 37.5723L156.168 43.6224V70.7957C157.846 69.3039 158.836 68.806 163.311 66.9413C167.786 65.0766 174.251 59.5136 176.923 56.9651L180.746 60.6945C177.296 64.4239 157.997 80.5536 154.547 83.8168C151.787 86.4274 150.103 85.8369 149.606 85.2154Z" fill="white"/>
<path fill-rule="evenodd" clip-rule="evenodd" d="M106.171 42.3332C108.837 43.3254 110.379 40.3436 110.038 38.3628C109.773 36.8265 108.8 34.5817 107.189 34.1865C107.03 35.1255 106.908 36.0186 106.779 37.5064C106.535 39.4159 106.289 41.3628 106.171 42.3332Z" fill="#FFB359"/>
<path fill-rule="evenodd" clip-rule="evenodd" d="M112.97 63.4406C112.895 63.9893 112.605 66.1176 112.451 67.1799C112.298 68.2325 111.89 70.1378 111.778 70.6554C111.316 70.5969 110.801 70.44 110.231 70.1621C107.028 68.6002 107.684 65.5063 108.412 64.1545C110.025 61.8178 111.714 62.2564 112.97 63.4406Z" fill="#FFB359"/>
<path fill-rule="evenodd" clip-rule="evenodd" d="M115.065 27.1693C114.567 28.5374 114.582 30.3357 116.464 31.8332C119.95 34.6062 122.09 30.9617 121.694 28.6641C121.625 28.2692 121.511 27.8274 121.35 27.3824C120.692 27.3354 119.607 27.2624 118.305 27.1918C116.795 27.1099 115.631 27.1423 115.065 27.1693Z" fill="#FFB359"/>
<path d="M134.466 39.4244C131.678 37.206 132.987 34.3274 133.991 33.1654C137.319 30.0755 139.299 33.9577 139.695 36.2553C140.092 38.5529 137.952 42.1974 134.466 39.4244Z" fill="#FFB359"/>
<path d="M119.94 45.9498C117.151 43.7314 118.461 40.8528 119.465 39.6908C122.792 36.6009 124.773 40.4831 125.169 42.7807C125.565 45.0783 123.426 48.7228 119.94 45.9498Z" fill="#FFB359"/>
<path d="M143.05 69.3629C140.262 67.1445 141.571 64.2659 142.575 63.1039C145.903 60.014 147.883 63.8962 148.279 66.1938C148.676 68.4914 146.536 72.1359 143.05 69.3629Z" fill="#FFB359"/>
<path d="M152.417 68.05C149.628 65.8316 150.938 62.953 151.941 61.791C155.269 58.7011 156.001 62.6255 156.397 64.9231C156.793 67.2207 155.903 70.823 152.417 68.05Z" fill="#FFB359"/>
<path d="M124.344 62.9527C121.556 60.7344 122.865 57.8557 123.869 56.6937C127.197 53.6038 129.177 57.486 129.573 59.7836C129.97 62.0812 127.83 65.7257 124.344 62.9527Z" fill="#FFB359"/>
<path d="M141.419 53.1402C138.63 50.9219 139.94 48.0432 140.943 46.8812C144.271 43.7913 146.251 47.6735 146.648 49.9711C147.044 52.2687 144.905 55.9132 141.419 53.1402Z" fill="#FFB359"/>
<path fill-rule="evenodd" clip-rule="evenodd" d="M155.543 39.8275C155.341 38.6048 154.903 36.8058 154.283 35.4998C153.882 34.6552 153.416 34.087 152.824 33.5843C152.046 33.4312 151.123 33.7085 150.064 34.6918C149.061 35.8538 147.751 38.7324 150.54 40.9508C153.064 42.9588 154.882 41.6016 155.543 39.8275Z" fill="#FFB359"/>
<path fill-rule="evenodd" clip-rule="evenodd" d="M162.033 67.9138C163.39 67.1647 165.44 66.0535 166.709 65.4365C167.275 65.1611 167.735 64.9282 168.102 64.7373C168.297 65.2408 168.434 65.7474 168.511 66.194C168.907 68.4916 166.768 72.1361 163.282 69.3631C162.701 68.9015 162.298 68.4112 162.033 67.9138Z" fill="#FFB359"/>
<path d="M130.971 76.4547C128.182 74.2363 129.492 71.3577 130.496 70.1957C133.823 67.1058 135.804 70.988 136.2 73.2856C136.596 75.5832 134.457 79.2277 130.971 76.4547Z" fill="#FFB359"/>
<path fill-rule="evenodd" clip-rule="evenodd" d="M118.123 72.6571C119.9 72.8514 120.963 75.2688 121.237 76.8928C121.586 78.9625 119.877 82.117 116.996 80.6931C117.088 80.0073 117.24 78.9858 117.448 77.6117C117.774 75.4538 117.971 73.9131 118.123 72.6571Z" fill="#FFB359"/>
<path fill-rule="evenodd" clip-rule="evenodd" d="M136.268 86.1893L141.728 87.323L142.93 85.0975C142.224 82.8716 140.352 80.3112 137.468 82.9896C136.898 83.6486 136.231 84.8596 136.268 86.1893Z" fill="#FFB359"/>
<path fill-rule="evenodd" clip-rule="evenodd" d="M88.2538 51.1939C90.9684 49.9963 92.3517 53.331 92.5819 55.3695C92.7019 56.432 92.273 57.7462 91.4534 58.5712C90.8043 57.2332 89.745 55.0271 89.4599 54.2996C89.3803 54.0965 89.2854 53.857 89.1826 53.5978C88.8765 52.8255 88.5008 51.8776 88.2538 51.1939Z" fill="#FFB359"/>
<path fill-rule="evenodd" clip-rule="evenodd" d="M90.8513 41.0454C90.5166 40.1629 89.8002 38.2537 89.5628 37.4564C89.3169 36.6305 88.8037 34.4429 88.5931 33.5349C87.2005 34.2712 85.0542 36.3579 86.6809 39.4009C87.9016 41.6846 89.5649 41.7969 90.8513 41.0454Z" fill="#FFB359"/>
<path fill-rule="evenodd" clip-rule="evenodd" d="M146.902 77.3196C148.901 77.072 150.234 79.6531 150.617 81.3737C150.844 82.3887 150.58 83.696 149.896 84.6022C149.485 83.8666 148.839 82.5303 148.178 80.8849C147.583 79.572 147.228 78.3975 146.982 77.5827C146.954 77.4902 146.927 77.4024 146.902 77.3196Z" fill="#FFB359"/>
<path d="M141.214 37.5723C140.748 46.8025 142.799 73.188 149.606 85.2153C150.103 85.8369 151.787 86.4274 154.547 83.8168C157.997 80.5536 177.296 64.4239 180.746 60.6945L176.923 56.9651C174.251 59.5136 167.786 65.0766 163.311 66.9413C158.836 68.806 158.089 69.4437 156.411 70.9354V43.3909" stroke="#212121" stroke-width="1.12227" stroke-linecap="round" stroke-linejoin="round"/>
<path d="M177.188 56.926C178.85 54.9657 180.882 52.8532 182.038 51.8634C182.298 51.6413 183.659 46.201 184.399 46.0559C184.625 46.0115 184.71 47.0088 184.791 48.1248L185.347 51.0631C189.001 50.6684 194.27 50.7083 194.595 50.7075C195.061 50.7064 189.135 52.2941 188.392 52.5603C187.65 52.8264 193.957 52.2325 195.015 52.4062C196.027 52.5725 189.658 54.0116 188.308 54.0061C189.619 54.1632 196.478 55.0949 195.26 55.163L195.26 55.163C193.85 55.2419 188.211 55.5573 188.815 55.6566C189.42 55.7559 196.149 58.2582 194.789 58.0348C193.428 57.8113 185.532 56.8912 184.399 56.705C183.492 56.556 181.051 59.5061 180.314 60.2129L177.188 56.926Z" fill="white"/>
<path d="M184.399 46.0559C183.659 46.201 182.298 51.6413 182.038 51.8634C180.882 52.8532 178.85 54.9657 177.188 56.926L180.314 60.2129C181.051 59.5061 183.492 56.556 184.399 56.705C185.532 56.8912 193.428 57.8113 194.789 58.0348C196.149 58.2582 189.42 55.7559 188.815 55.6566C188.211 55.5573 193.85 55.2419 195.26 55.163C196.67 55.0841 187.25 53.8472 188.156 53.9962C189.063 54.1451 196.073 52.58 195.015 52.4062C193.957 52.2325 187.65 52.8264 188.392 52.5603C189.135 52.2941 195.061 50.7064 194.595 50.7075C194.27 50.7083 189.001 50.6684 185.347 51.0631M184.399 46.0559C184.908 45.9559 184.7 51.1331 185.347 51.0631M184.399 46.0559L185.347 51.0631" stroke="#212121" stroke-width="1.12227" stroke-linecap="round" stroke-linejoin="round"/>
<path d="M85.4072 23.5423C86.729 21.3386 88.3921 18.9246 89.3724 17.7605C90.5978 16.3054 101.116 14.6613 101.576 14.5847C102.035 14.5081 96.4446 17.0354 95.7553 17.4184C95.0661 17.8013 101.193 16.193 102.265 16.193C103.291 16.193 97.2394 18.6454 95.9068 18.8587C97.2252 18.8013 104.145 18.6089 102.954 18.8735L102.954 18.8735C101.576 19.1799 96.0617 20.4052 96.6744 20.4052C97.287 20.4052 104.333 21.7837 102.954 21.7837C101.576 21.7837 93.6352 22.1555 92.4864 22.1555C91.5674 22.1555 89.6369 25.4622 89.0242 26.2791L85.4072 23.5423Z" fill="white" stroke="#212121" stroke-width="1.12227" stroke-linecap="round" stroke-linejoin="round"/>
<path d="M141.619 16.9068C139.677 18.6119 138.103 20.0791 136.474 22.4799C134.232 18.0672 137.911 11.0929 133.933 10.2972C129.954 9.50146 120.839 6.17385 121.056 3.64196C121.273 1.11008 123.516 0.38668 129.014 2.12283C130.637 2.63537 135.717 3.28026 137.405 3.64196C153.464 6.31852 145.134 13.8201 141.619 16.9068Z" fill="#212121" stroke="#212121" stroke-width="1.12227" stroke-linecap="round" stroke-linejoin="round"/>
<path d="M89.2361 117.426C98.123 99.2653 107.154 90.1592 115.918 82.3643L136.303 86.8194L141.915 88.0794L148.347 126.099L143.904 163.706L127.701 160.118L125.087 129.497C124.636 126.099 124.769 116.53 120.431 108.249L106.417 129.497L103.703 163.706L91.0194 164.269C88.5034 152.193 85.7112 124.629 89.2361 117.426Z" fill="#212121" stroke="#212121" stroke-width="1.12227" stroke-linecap="round" stroke-linejoin="round"/>
<path d="M101.97 162.704C102.641 165.901 105.341 186.969 103.16 188.686C100.433 190.832 89.7368 191.216 85.3087 191.373C80.8806 191.529 79.1841 187.652 85.3087 186.975C91.4332 186.298 95.666 181.661 94.1041 177.708" stroke="#212121" stroke-width="1.12227" stroke-linecap="round" stroke-linejoin="round"/>
<path d="M130.115 160.094C129.187 163.039 128.089 178.919 128.089 180.578C128.089 184.997 126.943 191.494 130.806 191.976C133.836 192.354 150.058 193.814 150.319 191.117C150.535 188.885 148.471 188.728 142.19 188.373C135.908 188.018 136.995 179.054 137.66 177.256" stroke="#212121" stroke-width="1.12227" stroke-linecap="round" stroke-linejoin="round"/>
<path d="M120.666 111.668L117.981 100.604" stroke="#1B4942" stroke-width="1.12227" stroke-linecap="round" stroke-linejoin="round"/>
<path d="M133.537 131.887C130.523 130.422 124.681 127.398 125.42 127.021C126.16 126.645 130.54 126.176 132.638 125.988" stroke="#1B4942" stroke-width="1.12227" stroke-linecap="round" stroke-linejoin="round"/>
<path d="M102.686 122.694C104.334 125.064 107.26 129.772 105.776 129.649C104.293 129.525 101.655 128.773 100.522 128.412" stroke="#1B4942" stroke-width="1.12227" stroke-linecap="round" stroke-linejoin="round"/>
<path d="M131.897 2.14105C132.126 1.32495 134.418 0.251898 136.333 1.06747C140.935 3.02732 137.157 10.1895 135.813 14.003" stroke="black" stroke-width="1.12227" stroke-linecap="round" stroke-linejoin="round"/>
<circle cx="135.228" cy="15.1574" r="2.79512" fill="#FFB359"/>
<path d="M133.018 16.3428C130.158 18.9862 122.995 23.2331 117.223 19.0729" stroke="black" stroke-width="1.12227" stroke-linecap="round" stroke-linejoin="round"/>
<rect x="115.344" y="14.874" width="5.20022" height="2.32485" rx="1.16243" transform="rotate(50.8073 115.344 14.874)" fill="#FFB359"/>
</svg>
