<svg width="240" height="200" viewBox="0 0 240 200" fill="none" xmlns="http://www.w3.org/2000/svg">
<g clip-path="url(#clip0)">
<path fill-rule="evenodd" clip-rule="evenodd" d="M97.5881 187.238C100.565 185.864 101.177 183.368 101.044 181.516C99.5469 181.509 98.0382 181.505 96.519 181.505C89.7942 181.505 83.2745 181.581 77.0682 181.724C77.2334 183.311 78.5185 185.554 80.9589 187.111C82.3942 188.028 84.2586 188.204 85.8063 188.35C87.4522 188.505 88.7399 188.627 88.7724 189.569C88.8354 191.396 86.567 192.341 82.5972 192.341C78.6275 192.341 71.8853 191.963 70.2469 190.388C69.1939 189.375 69.1551 185.122 69.333 181.943C67.5356 182.003 65.7713 182.069 64.0432 182.14C64.4265 183.407 63.7312 184.64 63.2746 185.152C61.6286 188.444 57.4306 192.097 55.4294 193.597C67.2594 194.264 81.3688 194.651 96.519 194.651C138.28 194.651 172.135 191.708 172.135 188.078C172.135 186.693 167.207 185.408 158.792 184.348C158.19 185.256 157.595 186.214 157.02 187.138C155.372 189.788 153.897 192.161 152.956 192.263C151.629 192.406 143.417 193.123 143.811 191.366C144.06 190.256 145.642 189.646 147.496 188.932C148.576 188.516 149.749 188.064 150.804 187.457C152.618 186.415 152.939 184.796 152.829 183.691C141.56 182.599 126.148 181.836 108.741 181.59V187.238C108.741 190.577 105.78 191.774 103.7 191.774C103.309 191.774 102.579 191.828 101.651 191.896C97.6461 192.189 89.9519 192.753 89.9007 190.451C89.8653 188.855 90.7477 188.756 92.402 188.571C93.6875 188.426 95.439 188.229 97.5881 187.238ZM48.7929 190.964C47.178 191.489 45.6773 192.459 45.1021 192.898C30.2178 191.697 20.9033 189.982 20.9033 188.078C20.9033 185.872 33.403 183.92 52.5812 182.728C53.3494 183.71 54.4723 185.799 53.6042 187.391C52.4609 189.487 50.8413 190.297 48.7929 190.964Z" fill="#FDFAF5"/>
<path d="M40.5205 183.177C30.9807 185.562 12.1661 189.007 19.321 189.007C25.0448 189.007 39.9022 186.71 46.6154 185.562M79.6816 185.562C85.5962 184.656 96.853 183.117 94.5635 184.204C92.2739 185.29 83.6882 187.327 79.6816 188.21M68.6155 192.217C61.6834 193.807 49.0783 196.834 54.1152 196.224C59.1522 195.613 80.6355 192.662 90.7476 191.263M109.064 188.21C116.95 186.445 131.768 183.443 127.952 185.562C123.183 188.21 89.9844 195.079 97.4254 194.888C104.866 194.697 147.795 184.204 138.637 188.21C129.479 192.217 113.452 196.414 126.044 194.888C136.118 193.667 143.216 192.598 145.505 192.217" stroke="black" stroke-width="1.12186" stroke-linecap="round" stroke-linejoin="round"/>
<path d="M64.2614 8.71376C61.8545 5.43163 57.6667 4.39836 55.8737 4.29199C41.1952 7.50903 55.7521 14.6145 55.0681 23.9128C54.3128 34.1812 37.868 31.4373 35.0755 36.8939C32.3431 42.2334 32.5721 47.1055 32.5721 54.9975C33.0275 61.6983 34.1287 85.0545 38.03 91.7475C42.6692 95.3861 46.8536 90.0191 49.1038 87.9957L76.5083 82.9238V72.9177C76.5083 62.7295 75.8676 52.3334 77.983 47.9669C80.2806 55.5456 85.3079 71.2996 87.0363 73.6864C89.1967 76.6698 91.1514 75.8468 92.2831 74.5094C93.4147 73.172 103.497 52.082 105.657 47.9669C107.386 44.6748 111.11 38.5707 112.756 35.9302L109.052 33.1525C108.195 34.4556 105.472 38.3787 101.439 43.646C97.4064 48.9134 92.9003 57.1573 91.1514 60.6209C91.4943 54.9626 87.7248 41.8626 85.3227 34.6349C82.4659 26.0389 78.3631 26.238 75.4826 26.238C72.602 26.238 66.5964 27.0643 64.2614 26.238C62.9037 25.7576 61.6856 23.7533 61.5033 21.474C61.3209 19.1947 66.7179 21.7254 67.558 18.4261C68.0934 16.3234 65.7759 10.7632 64.2614 8.71376Z" fill="white"/>
<path d="M34.6377 38.7185C41.9146 37.9722 57.3361 36.4795 60.8066 36.4795C65.1447 36.4795 68.0835 34.9401 71.1622 35.22C74.2409 35.4999 82.0776 33.9606 84.3166 33.5407C84.4701 33.512 84.5914 33.4888 84.6858 33.4704C84.9061 33.4147 85.2093 33.3687 84.6858 33.4704C84.4822 33.5219 84.3493 33.5817 85.0048 33.5408L87.6711 40.4761C81.0006 40.8493 69.7628 41.2375 64.7249 41.2375C58.4276 41.2375 56.8883 43.0567 54.7891 43.0567C52.69 43.0567 47.7921 42.0771 45.2732 43.0567C43.258 43.8404 36.4103 45.1558 33.2383 45.7156L34.6377 38.7185Z" fill="#FFB359"/>
<path fill-rule="evenodd" clip-rule="evenodd" d="M96.805 51.4371C99.7212 51.3269 102.427 51.2193 104.654 51.1275L108.225 43.7207C106.844 43.7842 103.906 43.9394 101.403 44.1379L96.805 51.4371ZM88.6345 45.678C85.4738 46.0116 82.3605 46.2437 80.5111 46.1199C78.4118 45.9794 76.3604 46.2973 74.0925 46.6489C71.8425 46.9976 69.3794 47.3794 66.4449 47.3794C62.7384 47.3794 50.5197 48.3357 40.6613 49.1073C37.9814 49.317 35.4759 49.5131 33.3633 49.6726V56.0213C37.6718 55.4616 42.6085 54.7402 45.3457 53.9566C47.774 53.2613 51.8301 53.5529 54.9995 53.7808C56.2958 53.874 57.4437 53.9566 58.2714 53.9566C59.315 53.9566 60.2567 53.7128 61.4509 53.4038C63.5191 52.8685 66.3444 52.1373 71.7673 52.1373C73.0271 52.1373 74.6306 52.1158 76.4651 52.0782C76.7152 52.0731 77.0029 51.1913 77.2957 50.2819L78.2084 48.3077C78.4152 48.3028 78.5894 49.2128 78.7654 50.1318C78.945 51.0697 79.1264 52.017 79.3461 52.0114C82.5415 51.9298 86.1686 51.8158 89.7913 51.691L88.6345 45.678Z" fill="#FFB359"/>
<path fill-rule="evenodd" clip-rule="evenodd" d="M90.4099 55.8984C90.7476 57.7126 91.2064 59.9939 91.3066 59.7933C91.3444 59.7178 91.5364 59.3615 91.8029 58.867C92.3316 57.8858 93.1535 56.3609 93.6446 55.4065C93.8294 55.3775 94.0028 55.3502 94.1633 55.3249L94.1635 55.3249C94.3782 55.2911 94.5702 55.2608 94.7364 55.2349C96.8874 54.899 101.01 54.6285 102.802 54.5352L99.1764 61.6322C96.6501 61.7499 93.5372 61.9226 90.2692 62.1039L90.2692 62.104L90.2689 62.104C87.9194 62.2343 85.4899 62.3691 83.1406 62.4911L81.1322 56.9195C83.8105 56.8005 87.4627 56.3278 90.4099 55.8984ZM66.5056 58.1736C62.3381 58.1736 41.8612 59.2256 33.123 59.9719V66.9846C34.209 66.825 35.6765 66.6386 37.2756 66.4353L37.2757 66.4353C41.2854 65.9258 46.1232 65.3111 47.853 64.7508C49.9998 64.0556 53.5855 64.3472 56.3874 64.5751C57.5333 64.6683 58.5481 64.7508 59.2798 64.7508C60.2024 64.7508 61.035 64.5071 62.0906 64.1981C63.919 63.6628 66.4167 62.9316 71.2107 62.9316C72.6704 62.9316 74.5877 62.8777 76.7691 62.7906L76.7691 56.9342C75.6373 57.0274 74.4873 57.229 73.2663 57.4431L73.2663 57.4431C71.2772 57.7918 69.0998 58.1736 66.5056 58.1736Z" fill="#FFB359"/>
<path d="M54.382 83.5205C50.9115 83.5205 42.8648 84.0274 35.5879 84.7738L37.5418 90.7244C40.7138 90.1646 43.1144 90.6515 45.1296 89.8678C47.6485 88.8882 47.6107 88.6744 49.7098 88.6744L54.382 83.5205Z" fill="#FFB359"/>
<path fill-rule="evenodd" clip-rule="evenodd" d="M33.3672 72.8726C41.3393 72.1263 59.801 70.8787 63.603 70.8787C65.9698 70.8787 67.9564 70.4969 69.7711 70.1482C71.6003 69.7967 73.2548 69.4787 74.9479 69.6192C75.3266 69.6507 75.771 69.6591 76.2651 69.6489L76.2651 75.3618C72.9575 75.5232 69.971 75.6367 67.8957 75.6367C63.522 75.6367 61.2433 76.3679 59.5751 76.9031C58.612 77.2122 57.8525 77.4559 57.0107 77.4559C56.3432 77.4559 55.4174 77.3734 54.3719 77.2802C51.8156 77.0523 48.5443 76.7607 46.5857 77.4559C44.3781 78.2396 37.7304 79.3293 34.2554 79.889L33.3672 72.8726ZM88.401 74.6943C89.9353 74.6076 91.3846 74.5275 92.6861 74.461L96.7178 67.2402C95.0825 67.3335 91.3214 67.6041 89.359 67.9399C89.2073 67.9659 89.0321 67.9962 88.8361 68.03C87.9331 68.1859 86.5889 68.418 85.0662 68.6583C85.8796 71.9846 87.5355 73.9917 88.401 74.6943Z" fill="#FFB359"/>
<path d="M44.7061 80.3331V69.3535L45.9799 70.83L48.1114 77.3134L44.7061 80.3331Z" fill="#1B4942"/>
<path d="M50.0713 31.0016C52.5641 32.4601 59.0722 33.8195 66.6193 31.0016C72.1997 28.918 72.9054 26.6168 70.6778 26.5107" stroke="#212121" stroke-width="1.12186" stroke-linecap="round" stroke-linejoin="round"/>
<path d="M64.4852 8.71474L64.0329 9.04645C64.0369 9.05196 64.0411 9.0574 64.0453 9.06275L64.4852 8.71474ZM56.0975 4.29297L56.1307 3.73302C56.0793 3.72997 56.0277 3.73402 55.9774 3.74504L56.0975 4.29297ZM67.6236 15.868L67.0707 15.9627V15.9627L67.6236 15.868ZM66.6457 19.6072L67.005 20.038V20.038L66.6457 19.6072ZM63.1998 20.5474L63.2441 19.9882H63.2441L63.1998 20.5474ZM61.9285 21.5632L62.4876 21.5184L61.9285 21.5632ZM64.4852 26.239L64.2777 26.7602L64.4852 26.239ZM72.0095 26.4891L72.0729 27.0464L72.0095 26.4891ZM75.2358 26.239L75.2354 25.678H75.2354L75.2358 26.239ZM85.5955 34.9836L85.0719 35.1849L85.5955 34.9836ZM90.1203 54.0428L90.6724 53.9442L90.1203 54.0428ZM91.3753 60.6218L90.8279 60.7443C90.8796 60.9755 91.071 61.1493 91.306 61.1785C91.5411 61.2077 91.7692 61.0861 91.876 60.8747L91.3753 60.6218ZM109.276 33.1534L109.613 32.7047C109.489 32.6118 109.332 32.5743 109.18 32.6009C109.027 32.6274 108.892 32.7159 108.807 32.8451L109.276 33.1534ZM112.98 35.9311L113.456 36.2279C113.61 35.9808 113.549 35.6571 113.316 35.4824L112.98 35.9311ZM105.881 47.9679L105.384 47.7071L105.881 47.9679ZM101.363 57.0778L101.867 57.3248V57.3247L101.363 57.0778ZM92.5069 74.5104L92.9351 74.8727L92.5069 74.5104ZM87.2601 73.6873L87.7145 73.3583V73.3583L87.2601 73.6873ZM78.2069 47.9679L78.7437 47.8051C78.6767 47.5841 78.4811 47.4267 78.2508 47.4086C78.0206 47.3906 77.8028 47.5154 77.7021 47.7233L78.2069 47.9679ZM76.4175 73.6873H76.9785L76.9784 73.6788L76.4175 73.6873ZM76.4175 82.8594L76.4463 83.4195C76.7445 83.4042 76.9784 83.1579 76.9784 82.8594H76.4175ZM54.1351 84.0069L54.1062 83.4468C53.982 83.4532 53.8634 83.5007 53.7691 83.5818L54.1351 84.0069ZM46.6067 90.5968L46.2212 90.1893L46.2212 90.1893L46.6067 90.5968ZM38.486 92.5193L37.9978 92.7955C38.0126 92.8215 38.0293 92.8463 38.048 92.8697L38.486 92.5193ZM46.6999 31.7871L46.7912 32.3405H46.7912L46.6999 31.7871ZM55.097 23.4174L55.6566 23.3788C55.6525 23.3191 55.6389 23.2605 55.6163 23.2052L55.097 23.4174ZM51.8098 17.361L51.3318 17.6545L51.8098 17.361ZM44.7427 64.9262L45.2937 64.8211C45.2395 64.5369 44.978 64.3405 44.6899 64.3678C44.4018 64.395 44.1818 64.6369 44.1818 64.9262H44.7427ZM44.7427 80.5311H44.1818C44.1818 80.752 44.3114 80.9523 44.5129 81.0428C44.7144 81.1333 44.9503 81.0971 45.1154 80.9504L44.7427 80.5311ZM47.975 77.9887L48.3016 78.4447C48.4986 78.3036 48.5828 78.052 48.5102 77.8208L47.975 77.9887ZM64.9375 8.38302C63.6591 6.63969 61.9187 5.50726 60.2844 4.79834C58.6525 4.09046 57.093 3.79011 56.1307 3.73302L56.0643 4.85291C56.895 4.9022 58.3259 5.17166 59.8379 5.82754C61.3475 6.48238 62.9044 7.50765 64.0329 9.04645L64.9375 8.38302ZM68.1765 15.7733C67.9351 14.3645 66.9573 10.9355 64.9251 8.36672L64.0453 9.06275C65.9198 11.4323 66.8476 14.6603 67.0707 15.9627L68.1765 15.7733ZM67.005 20.038C68.2247 19.0205 68.4214 17.2028 68.1765 15.7733L67.0707 15.9627C67.2903 17.2444 67.046 18.5428 66.2864 19.1765L67.005 20.038ZM63.1554 21.1065C64.0569 21.1781 65.4962 21.2966 67.005 20.038L66.2864 19.1765C65.1382 20.1343 64.0961 20.0558 63.2441 19.9882L63.1554 21.1065ZM62.4876 21.5184C62.4677 21.2691 62.4872 21.1435 62.5042 21.0896C62.5142 21.0579 62.51 21.084 62.4802 21.1003C62.4754 21.103 62.5101 21.0836 62.6431 21.0802C62.7738 21.0769 62.9334 21.0889 63.1554 21.1065L63.2441 19.9882C63.0398 19.972 62.816 19.9536 62.6143 19.9587C62.415 19.9639 62.1683 19.992 61.941 20.1166C61.3994 20.4134 61.3221 21.0171 61.3693 21.6079L62.4876 21.5184ZM64.6927 25.7179C63.4811 25.2355 62.6647 23.7323 62.4876 21.5184L61.3693 21.6079C61.5569 23.9526 62.4542 26.0342 64.2777 26.7602L64.6927 25.7179ZM71.946 25.9317C70.6864 26.0751 69.3757 26.2238 68.1133 26.2329C66.8494 26.2421 65.6777 26.11 64.6927 25.7179L64.2777 26.7602C65.4545 27.2286 66.7906 27.3644 68.1214 27.3548C69.4536 27.3451 70.8241 27.1886 72.0729 27.0464L71.946 25.9317ZM75.1019 25.6781C74.167 25.6781 73.0694 25.8038 71.946 25.9317L72.0729 27.0464C73.2161 26.9162 74.244 26.8 75.1019 26.8V25.6781ZM75.2354 25.678C75.1904 25.6781 75.146 25.6781 75.1019 25.6781V26.8C75.1465 26.8 75.1914 26.7999 75.2363 26.7999L75.2354 25.678ZM86.1191 34.7824C84.4124 30.3422 82.4785 28.0297 80.5228 26.849C78.5661 25.6678 76.6723 25.6769 75.2354 25.678L75.2363 26.7999C76.6751 26.7988 78.2795 26.8053 79.943 27.8095C81.6073 28.8142 83.4154 30.8752 85.0719 35.1849L86.1191 34.7824ZM90.6724 53.9442C89.5895 47.8788 88.2374 40.2938 86.1191 34.7824L85.0719 35.1849C87.1437 40.5752 88.4791 48.0423 89.5681 54.1414L90.6724 53.9442ZM91.9226 60.4993C91.5285 58.738 91.1242 56.4747 90.6724 53.9442L89.5681 54.1414C90.0183 56.6631 90.4272 58.9539 90.8279 60.7443L91.9226 60.4993ZM101.218 43.306C97.1522 48.616 92.6273 56.8978 90.8745 60.369L91.876 60.8747C93.621 57.4188 98.1082 49.2127 102.108 43.988L101.218 43.306ZM108.807 32.8451C107.959 34.1345 105.244 38.0465 101.218 43.306L102.108 43.988C106.147 38.7127 108.878 34.7786 109.745 33.4617L108.807 32.8451ZM113.316 35.4824L109.613 32.7047L108.939 33.6022L112.643 36.3799L113.316 35.4824ZM106.378 48.2286C108.095 44.9576 111.808 38.8704 113.456 36.2279L112.504 35.6344C110.859 38.273 107.124 44.3939 105.384 47.7071L106.378 48.2286ZM101.867 57.3247C103.869 53.2429 105.618 49.675 106.378 48.2286L105.384 47.7071C104.616 49.1712 102.856 52.7594 100.86 56.8308L101.867 57.3247ZM92.9351 74.8727C93.0649 74.7193 93.2391 74.4369 93.4338 74.0984C93.6379 73.7437 93.8903 73.2811 94.1811 72.7323C94.7631 71.6341 95.5069 70.1762 96.3404 68.5157C98.0077 65.1942 100.04 61.0497 101.867 57.3248L100.86 56.8308C99.0323 60.5571 97.0023 64.6966 95.3378 68.0125C94.5054 69.6707 93.766 71.1198 93.1898 72.207C92.9016 72.7509 92.6561 73.2006 92.4614 73.539C92.2573 73.8937 92.1318 74.0853 92.0787 74.148L92.9351 74.8727ZM86.8058 74.0163C87.9404 75.5831 89.1169 76.2801 90.2693 76.2801C91.4029 76.2801 92.3166 75.6036 92.9351 74.8727L92.0787 74.148C91.5655 74.7545 90.9361 75.1582 90.2693 75.1582C89.6213 75.1582 88.7403 74.775 87.7145 73.3583L86.8058 74.0163ZM77.6701 48.1306C78.8201 51.9238 80.6532 57.7632 82.4158 62.9549C83.297 65.5502 84.1622 67.9887 84.9167 69.9306C85.2938 70.9013 85.6452 71.753 85.9588 72.4405C86.2676 73.1177 86.5545 73.6692 86.8058 74.0163L87.7145 73.3583C87.5337 73.1088 87.2854 72.6459 86.9795 71.975C86.6783 71.3146 86.3355 70.4847 85.9624 69.5244C85.2164 67.6043 84.3571 65.1831 83.4781 62.5942C81.7206 57.4176 79.8913 51.5906 78.7437 47.8051L77.6701 48.1306ZM76.4175 73.6873C76.9784 73.6788 76.9784 73.6787 76.9784 73.6786C76.9783 73.6784 76.9783 73.6782 76.9783 73.6779C76.9783 73.6773 76.9783 73.6764 76.9783 73.6751C76.9783 73.6726 76.9782 73.6688 76.9781 73.6637C76.978 73.6536 76.9778 73.6384 76.9775 73.6183C76.9769 73.5781 76.9762 73.5182 76.9752 73.4398C76.9734 73.283 76.9709 73.0522 76.9685 72.7568C76.9637 72.1659 76.9593 71.3164 76.9605 70.2834C76.963 68.2168 76.9883 65.4172 77.0796 62.4824C77.1708 59.5461 77.3279 56.4825 77.5929 53.8856C77.7254 52.5869 77.8841 51.4125 78.0734 50.433C78.2645 49.4437 78.4799 48.6908 78.7117 48.2124L77.7021 47.7233C77.405 48.3366 77.1678 49.206 76.9719 50.2202C76.774 51.2443 76.6112 52.4545 76.4768 53.7717C76.208 56.4065 76.0499 59.4999 75.9582 62.4476C75.8666 65.3969 75.8412 68.2084 75.8387 70.282C75.8374 71.319 75.8419 72.1719 75.8467 72.7658C75.8491 73.0628 75.8516 73.295 75.8535 73.4531C75.8544 73.5322 75.8552 73.5927 75.8557 73.6336C75.856 73.654 75.8562 73.6695 75.8564 73.6799C75.8565 73.6852 75.8565 73.6891 75.8566 73.6918C75.8566 73.6931 75.8566 73.6941 75.8566 73.6948C75.8566 73.6952 75.8566 73.6954 75.8566 73.6956C75.8566 73.6958 75.8566 73.6959 76.4175 73.6873ZM76.9784 82.8594V73.6873H75.8566V82.8594H76.9784ZM54.1639 84.5671L76.4463 83.4195L76.3886 82.2992L54.1062 83.4468L54.1639 84.5671ZM53.7691 83.5818C50.2911 86.5758 47.3799 89.0933 46.2212 90.1893L46.9922 91.0043C48.1264 89.9314 51.0103 87.4369 54.501 84.4321L53.7691 83.5818ZM46.2212 90.1893C44.9566 91.3856 43.1771 91.9916 41.6188 92.2144C40.8447 92.3251 40.1481 92.3376 39.6284 92.2895C39.3673 92.2652 39.1653 92.227 39.0267 92.1851C38.8585 92.1343 38.8729 92.1049 38.924 92.1689L38.048 92.8697C38.2234 93.0889 38.4986 93.1975 38.7024 93.2591C38.9357 93.3295 39.2169 93.378 39.5248 93.4065C40.1433 93.4639 40.9286 93.4463 41.7776 93.3249C43.4658 93.0836 45.4981 92.4176 46.9922 91.0043L46.2212 90.1893ZM38.9742 92.243C35.6432 86.3568 34.226 76.746 33.7165 67.3653C33.2086 58.0148 33.6064 49.0073 33.8392 44.3975L32.7188 44.3409C32.4856 48.958 32.0851 58.0141 32.5963 67.4261C33.1059 76.8081 34.5251 86.6589 37.9978 92.7955L38.9742 92.243ZM33.8392 44.3975C34.0687 39.8528 35.1405 37.2687 37.1331 35.6082C39.1683 33.9122 42.2597 33.088 46.7912 32.3405L46.6086 31.2336C42.0997 31.9774 38.7136 32.8308 36.4149 34.7463C34.0737 36.6973 32.9552 39.6587 32.7188 44.3409L33.8392 44.3975ZM46.7912 32.3405C50.4747 31.7329 52.7516 30.1671 54.0791 28.3872C55.3962 26.6213 55.747 24.687 55.6566 23.3788L54.5374 23.4561C54.611 24.521 54.3226 26.1844 53.1799 27.7165C52.0476 29.2345 50.044 30.667 46.6086 31.2336L46.7912 32.3405ZM51.3318 17.6545C52.5161 19.5836 53.7398 21.5794 54.5778 23.6297L55.6163 23.2052C54.7376 21.0555 53.4629 18.9815 52.2879 17.0675L51.3318 17.6545ZM55.9774 3.74504C53.2328 4.34657 51.2947 5.11489 50.0104 6.06023C48.7024 7.02306 48.0698 8.17421 47.973 9.47415C47.8791 10.7359 48.2959 12.0687 48.9244 13.4128C49.5553 14.762 50.4347 16.1932 51.3318 17.6545L52.2879 17.0675C51.3817 15.5915 50.5393 14.2178 49.9406 12.9376C49.3396 11.6523 49.0193 10.5311 49.0918 9.55745C49.1615 8.62195 49.5989 7.7562 50.6755 6.96372C51.7758 6.15376 53.5371 5.42838 56.2176 4.84089L55.9774 3.74504ZM44.1818 64.9262V80.5311H45.3036V64.9262H44.1818ZM45.1154 80.9504C45.7789 80.3605 46.9028 79.4466 48.3016 78.4447L47.6484 77.5326C46.2218 78.5544 45.0666 79.4927 44.37 80.1119L45.1154 80.9504ZM44.1917 65.0313C45.1151 69.8712 46.2787 74.4551 47.4398 78.1565L48.5102 77.8208C47.363 74.1634 46.2095 69.6217 45.2937 64.8211L44.1917 65.0313Z" fill="#212121"/>
<path d="M33.279 44.3691C32.813 53.596 31.1853 79.3843 37.989 91.4072C39.4414 93.9738 43.848 93.2064 46.6067 90.5968C50.0552 87.3347 69.3477 71.211 72.7962 67.4829L68.9749 63.7549C66.3032 66.3024 59.8412 71.8634 55.3676 73.7274C50.894 75.5914 46.4203 79.0398 44.7427 80.5311V50.9892" stroke="#212121" stroke-width="1.12186" stroke-linecap="round" stroke-linejoin="round"/>
<path d="M68.9043 63.8133C70.2738 62.4353 71.776 60.9553 72.7559 59.7916C73.9808 58.337 84.4955 56.6935 84.9548 56.6169C85.4141 56.5404 79.8255 59.0668 79.1364 59.4496C78.4474 59.8323 84.572 58.2246 85.6438 58.2246C86.669 58.2246 80.6199 60.6761 79.2878 60.8894C80.6058 60.832 87.5228 60.6397 86.3328 60.9041C84.9548 61.2104 79.4427 62.4353 80.0551 62.4353C80.6676 62.4353 87.7109 63.8133 86.3328 63.8133C84.9548 63.8133 76.4569 64.1961 75.3086 64.1961C74.3899 64.1961 73.3684 66.5926 72.7559 67.4092L68.9043 63.8133Z" fill="white" stroke="#212121" stroke-width="1.12186" stroke-linecap="round" stroke-linejoin="round"/>
<path d="M46.6094 15.4531C48.7498 16.8993 52.2739 19.8642 53.7683 21.1658C56.01 16.7547 49.7912 10.2465 53.7683 9.45108C57.7455 8.65564 66.857 5.32924 66.6401 2.79828C66.4232 0.267325 64.1814 -0.455805 58.6857 1.27971C57.0632 1.79206 51.9846 2.43672 50.2973 2.79828C34.2438 5.47387 43.9338 13.6452 46.6094 15.4531Z" fill="#212121" stroke="#212121" stroke-width="1.12186" stroke-linecap="round" stroke-linejoin="round"/>
<path d="M51.2883 15.3141C50.8337 13.571 52.771 13.6238 53.7965 13.868L55.3941 17.321C54.2148 17.3783 51.7428 17.0572 51.2883 15.3141Z" fill="white"/>
<path d="M90.5413 127.901C88.8231 111.062 81.7439 84.7727 75.3652 82.459L54.3857 83.8795L49.3778 88.172C49.3778 88.172 37.963 118.279 37.2757 127.901C36.5884 137.523 49.3778 172.919 49.3778 172.919L60.355 166.165L56.1764 134.087C56.1764 134.087 60.5268 120.512 66.3141 104.705L70.7815 129.275L68.8914 170.341L79.5446 171.372C85.2148 155.565 88.8231 144.911 90.5413 127.901Z" fill="#212121" stroke="#212121" stroke-width="1.12186" stroke-linecap="round" stroke-linejoin="round"/>
<path d="M56.4035 163.26C58.1035 165.836 63.2334 180.909 63.9752 182.392C64.9025 184.247 57.1751 193.983 53.3114 194.447C50.2204 194.818 46.7689 194.602 45.4295 194.447C44.1416 193.623 44.0614 192.547 49.7487 190.568C55.4361 188.59 53.5175 183.938 52.3841 182.392" stroke="#212121" stroke-width="1.12186" stroke-linecap="round" stroke-linejoin="round"/>
<path d="M70.7949 164.578C70.2546 167.798 68.4126 188.951 70.6608 190.577C73.4711 192.61 80.0297 192.283 84.4589 192.26C88.888 192.237 91.1644 188.624 85.0196 188.196C78.8749 187.769 76.2787 183.4 77.6783 179.388" stroke="#212121" stroke-width="1.12186" stroke-linecap="round" stroke-linejoin="round"/>
<path d="M66.7061 113.146L64.7988 101.927" stroke="#1B4942" stroke-width="1.12186" stroke-linecap="round" stroke-linejoin="round"/>
<path d="M46.6172 134.586C49.958 134.34 56.5026 133.692 55.955 133.069C55.4075 132.446 51.5125 130.39 49.6335 129.44" stroke="#1B4942" stroke-width="1.12186" stroke-linecap="round" stroke-linejoin="round"/>
<path d="M79.0833 129.205C76.2366 128.733 70.7301 128.111 71.4781 129.397C72.2261 130.684 74.0364 132.743 74.8481 133.612" stroke="#1B4942" stroke-width="1.12186" stroke-linecap="round" stroke-linejoin="round"/>
<path d="M140.709 8.71376C143.116 5.43163 147.304 4.39836 149.097 4.29199C163.775 7.50903 153.186 15.1869 149.902 23.9128C148.575 27.441 161.449 28.3566 164.242 33.8132C166.974 39.1527 165.727 42.8742 165.727 50.7662C165.271 57.467 163.164 63.0488 160.309 73.6864C158.792 79.3406 157.303 84.1314 155.867 87.9956L130.05 82.8733L131.393 73.6864C132.946 63.5903 129.103 52.3333 126.987 47.9669C124.69 55.5456 119.662 71.2996 117.934 73.6864C115.774 76.6698 113.819 75.8468 112.687 74.5094C111.556 73.172 101.474 52.082 99.3132 47.9669C97.5849 44.6748 93.8607 38.5707 92.2147 35.9302L95.9183 33.1525C96.7756 34.4556 99.4984 38.3787 103.531 43.646C107.564 48.9134 112.07 57.1573 113.819 60.6209C115.813 53.3239 118.049 42.2611 120.293 34.9827C123.264 25.344 127.95 25.7381 130.787 26.238C134.091 26.8204 138.374 27.0643 140.709 26.238C142.067 25.7576 143.285 23.7533 143.467 21.474C143.65 19.1947 138.253 21.7254 137.412 18.4261C136.877 16.3234 139.195 10.7632 140.709 8.71376Z" fill="white"/>
<path d="M149.097 4.29199L149.064 3.73205C149.115 3.729 149.167 3.73304 149.217 3.74407L149.097 4.29199ZM140.709 8.71376L141.161 9.04548L141.16 9.04713L140.709 8.71376ZM137.412 18.4261L136.869 18.5645L137.412 18.4261ZM143.467 21.474L142.908 21.4293L143.467 21.474ZM140.709 26.238L140.896 26.7668L140.709 26.238ZM130.787 26.238L130.884 25.6856L130.787 26.238ZM120.293 34.9827L119.757 34.8174L120.293 34.9827ZM113.819 60.6209L114.36 60.7687C114.299 60.9926 114.106 61.1557 113.875 61.179C113.644 61.2022 113.423 61.0809 113.318 60.8737L113.819 60.6209ZM95.9183 33.1525L95.5817 32.7037C95.7055 32.6109 95.8622 32.5733 96.0147 32.5999C96.1671 32.6265 96.3018 32.7149 96.3869 32.8442L95.9183 33.1525ZM92.2147 35.9302L91.7387 36.2269C91.5847 35.9799 91.6452 35.6561 91.8781 35.4814L92.2147 35.9302ZM99.3132 47.9669L98.8166 48.2276L99.3132 47.9669ZM117.934 73.6864L117.48 73.3574V73.3574L117.934 73.6864ZM126.987 47.9669L126.451 47.8041C126.518 47.5831 126.713 47.4258 126.943 47.4077C127.174 47.3896 127.392 47.5145 127.492 47.7223L126.987 47.9669ZM131.393 73.6864L130.838 73.6052L130.839 73.6011L131.393 73.6864ZM130.05 82.8733L129.941 83.4235C129.648 83.3653 129.452 83.0877 129.495 82.7921L130.05 82.8733ZM155.867 87.9956L156.392 88.1911C156.297 88.4491 156.028 88.5994 155.757 88.5458L155.867 87.9956ZM149.902 23.9128L149.377 23.7152L149.902 23.9128ZM165.727 50.7662H166.287C166.287 50.7789 166.287 50.7915 166.286 50.8042L165.727 50.7662ZM164.242 33.8132L163.742 34.0687L164.242 33.8132ZM160.309 73.6864L159.768 73.541L160.309 73.6864ZM149.13 4.85194C148.299 4.90122 146.868 5.17069 145.356 5.82656C143.847 6.4814 142.29 7.50667 141.161 9.04548L140.257 8.38205C141.535 6.63872 143.276 5.50628 144.91 4.79736C146.542 4.08948 148.101 3.78913 149.064 3.73205L149.13 4.85194ZM137.956 18.2876C138.118 18.9217 138.476 19.2541 138.957 19.4569C139.476 19.6761 140.131 19.7398 140.849 19.7722C141.51 19.8021 142.292 19.8027 142.864 19.9591C143.164 20.0411 143.487 20.184 143.722 20.4612C143.97 20.7543 144.058 21.1215 144.026 21.5187L142.908 21.4293C142.922 21.2566 142.881 21.2044 142.866 21.1867C142.838 21.1532 142.762 21.0941 142.568 21.0413C142.154 20.928 141.568 20.9277 140.798 20.8929C140.084 20.8606 139.244 20.796 138.52 20.4904C137.758 20.1686 137.127 19.5801 136.869 18.5645L137.956 18.2876ZM144.026 21.5187C143.929 22.7406 143.554 23.8937 143.013 24.8147C142.478 25.7242 141.745 26.4663 140.896 26.7668L140.522 25.7093C141.03 25.5293 141.586 25.029 142.045 24.2464C142.498 23.4754 142.823 22.4867 142.908 21.4293L144.026 21.5187ZM140.896 26.7668C139.633 27.214 137.897 27.358 136.102 27.3271C134.293 27.296 132.366 27.086 130.689 26.7905L130.884 25.6856C132.511 25.9724 134.379 26.1755 136.121 26.2054C137.877 26.2356 139.451 26.0884 140.522 25.7093L140.896 26.7668ZM130.689 26.7905C129.292 26.5443 127.579 26.3544 125.861 27.2999C124.142 28.2452 122.293 30.3991 120.829 35.1479L119.757 34.8174C121.264 29.9276 123.244 27.4592 125.32 26.3169C127.396 25.1747 129.444 25.4319 130.884 25.6856L130.689 26.7905ZM120.829 35.1479C119.714 38.7668 118.597 43.3347 117.508 47.9243C116.421 52.5047 115.36 57.1083 114.36 60.7687L113.278 60.473C114.271 56.8364 115.326 52.2601 116.416 47.6653C117.505 43.0796 118.629 38.4769 119.757 34.8174L120.829 35.1479ZM113.318 60.8737C111.573 57.4178 107.086 49.2117 103.086 43.987L103.977 43.305C108.042 48.615 112.567 56.8968 114.32 60.368L113.318 60.8737ZM103.086 43.987C99.047 38.7118 96.316 34.7776 95.4497 33.4608L96.3869 32.8442C97.2352 34.1336 99.9499 38.0456 103.977 43.305L103.086 43.987ZM96.2548 33.6012L92.5512 36.3789L91.8781 35.4814L95.5817 32.7037L96.2548 33.6012ZM92.6907 35.6334C94.3355 38.272 98.0704 44.393 99.8099 47.7061L98.8166 48.2276C97.0993 44.9566 93.3859 38.8694 91.7387 36.2269L92.6907 35.6334ZM99.8099 47.7061C100.895 49.7723 103.962 56.0875 106.889 62.032C108.355 65.0087 109.788 67.8959 110.924 70.1216C111.492 71.2348 111.984 72.1792 112.369 72.8854C112.561 73.2387 112.725 73.5287 112.856 73.7488C112.994 73.9799 113.078 74.1032 113.116 74.147L112.259 74.8717C112.155 74.7484 112.028 74.5501 111.893 74.3234C111.751 74.0856 111.58 73.7813 111.384 73.422C110.992 72.7027 110.494 71.7479 109.924 70.6316C108.784 68.3982 107.349 65.5049 105.883 62.5276C102.946 56.5639 99.8923 50.2766 98.8166 48.2276L99.8099 47.7061ZM113.116 74.147C113.629 74.7535 114.258 75.1573 114.925 75.1573C115.573 75.1573 116.454 74.774 117.48 73.3574L118.388 74.0153C117.254 75.5821 116.077 76.2791 114.925 76.2791C113.791 76.2791 112.878 75.6027 112.259 74.8717L113.116 74.147ZM117.48 73.3574C117.661 73.1078 117.909 72.6449 118.215 71.9741C118.516 71.3136 118.859 70.4837 119.232 69.5234C119.978 67.6033 120.837 65.1821 121.716 62.5933C123.474 57.4166 125.303 51.5896 126.451 47.8041L127.524 48.1296C126.374 51.9228 124.541 57.7622 122.778 62.9539C121.897 65.5492 121.032 67.9877 120.278 69.9297C119.9 70.9003 119.549 71.752 119.236 72.4395C118.927 73.1167 118.64 73.6682 118.388 74.0154L117.48 73.3574ZM127.492 47.7223C129.631 52.1361 133.525 63.5149 131.948 73.7716L130.839 73.6011C132.366 63.6656 128.575 52.5306 126.483 48.2114L127.492 47.7223ZM131.948 73.7675L130.605 82.9544L129.495 82.7921L130.838 73.6052L131.948 73.7675ZM130.159 82.3231L155.976 87.4454L155.757 88.5458L129.941 83.4235L130.159 82.3231ZM149.377 23.7152C150.22 21.4761 151.526 19.3163 152.748 17.3249C153.986 15.3072 155.12 13.486 155.707 11.8473C156.288 10.2266 156.285 8.92401 155.435 7.83273C154.541 6.68692 152.619 5.63831 148.977 4.83992L149.217 3.74407C152.913 4.5542 155.172 5.67171 156.319 7.14297C157.509 8.66875 157.406 10.4342 156.763 12.2258C156.128 13.9995 154.917 15.9349 153.704 17.9115C152.475 19.9144 151.227 21.9866 150.427 24.1104L149.377 23.7152ZM165.166 50.7662C165.166 48.7787 165.244 47.0548 165.318 45.5117C165.393 43.9637 165.462 42.6107 165.448 41.3389C165.419 38.8193 165.06 36.6439 163.742 34.0687L164.741 33.5577C166.156 36.322 166.539 38.6771 166.57 41.3261C166.585 42.6386 166.513 44.0295 166.439 45.5657C166.365 47.1069 166.287 48.8077 166.287 50.7662H165.166ZM163.742 34.0687C163.118 32.848 161.901 31.8351 160.357 30.9466C158.818 30.0617 157.026 29.3393 155.32 28.6611C153.641 27.9939 152.01 27.3572 150.892 26.6561C150.332 26.3052 149.842 25.9033 149.545 25.422C149.229 24.9096 149.147 24.3283 149.377 23.7152L150.427 24.1104C150.326 24.3794 150.355 24.5985 150.5 24.8328C150.664 25.0982 150.984 25.3893 151.488 25.7057C152.498 26.339 154.011 26.9338 155.734 27.6186C157.429 28.2924 159.296 29.0425 160.916 29.9742C162.529 30.9023 163.969 32.0501 164.741 33.5577L163.742 34.0687ZM155.341 87.8002C156.769 83.9575 158.253 79.1845 159.768 73.541L160.851 73.8317C159.331 79.4967 157.837 84.3054 156.392 88.1911L155.341 87.8002ZM159.768 73.541C162.639 62.8388 164.716 57.3563 165.167 50.7281L166.286 50.8042C165.826 57.5777 163.688 63.2588 160.851 73.8317L159.768 73.541ZM136.869 18.5645C136.703 17.9143 136.769 17.0713 136.938 16.2022C137.111 15.3152 137.408 14.3292 137.766 13.3564C138.477 11.4209 139.457 9.46425 140.258 8.38039L141.16 9.04713C140.447 10.0127 139.511 11.8609 138.819 13.7435C138.474 14.6798 138.197 15.6061 138.039 16.4171C137.878 17.2459 137.854 17.8865 137.956 18.2876L136.869 18.5645Z" fill="#212121"/>
<path d="M156.488 28.8331C154.209 29.9512 148.267 31.9968 141.366 29.8366C136.263 28.2394 135.582 26.5618 137.619 26.4805" stroke="#212121" stroke-width="1.12186" stroke-linecap="round" stroke-linejoin="round"/>
<path d="M162.896 83.6686C156.093 71.6457 154.042 45.2699 154.508 36.043L165.972 42.6631V72.2049C167.65 70.7137 172.123 67.2652 176.597 65.4012C181.071 63.5372 187.533 57.9762 190.204 55.4287L194.026 59.1568C190.577 62.8848 171.285 79.0086 167.836 82.2706C165.077 84.8802 163.394 84.2899 162.896 83.6686Z" fill="white"/>
<path d="M121.98 43.2743C119.193 41.0567 120.502 38.1791 121.505 37.0175C124.832 33.9288 126.812 37.8095 127.208 40.1063C127.604 42.4031 125.465 46.0462 121.98 43.2743Z" fill="#1B4942"/>
<path fill-rule="evenodd" clip-rule="evenodd" d="M120.67 65.6776C120.477 66.2121 119.859 67.9235 119.393 69.2093C118.947 70.4415 118.245 71.9277 117.98 72.4764C117.533 72.3209 117.054 72.0532 116.546 71.6493C113.758 69.4317 115.067 66.5541 116.071 65.3925C118.148 63.4633 119.701 64.2531 120.67 65.6776Z" fill="#1B4942"/>
<path fill-rule="evenodd" clip-rule="evenodd" d="M128.615 26.3936C128.089 27.7702 128.068 29.6077 129.985 31.1331C133.47 33.905 135.608 30.2619 135.212 27.9651C135.165 27.6913 135.096 27.3951 135.004 27.0908L128.615 26.3936Z" fill="#1B4942"/>
<path d="M148.371 39.534C145.583 37.3164 146.893 34.4389 147.896 33.2773C151.222 30.1885 153.202 34.0693 153.598 36.3661C153.994 38.6628 151.856 42.306 148.371 39.534Z" fill="#1B4942"/>
<path d="M135.951 45.9832C133.163 43.7657 134.473 40.8881 135.476 39.7265C138.802 36.6378 140.782 40.5185 141.178 42.8153C141.574 45.112 139.436 48.7552 135.951 45.9832Z" fill="#1B4942"/>
<path d="M156.952 69.4608C154.164 67.2432 155.474 64.3656 156.477 63.2041C159.803 60.1153 161.783 63.996 162.179 66.2928C162.575 68.5896 160.437 72.2327 156.952 69.4608Z" fill="#1B4942"/>
<path d="M138.254 63.0535C135.466 60.836 136.775 57.9584 137.779 56.7968C141.105 53.7081 143.085 57.5888 143.481 59.8856C143.877 62.1824 141.739 65.8255 138.254 63.0535Z" fill="#1B4942"/>
<path d="M155.321 53.245C152.533 51.0274 153.843 48.1498 154.846 46.9882C158.172 43.8995 160.152 47.7802 160.548 50.077C160.944 52.3738 158.806 56.0169 155.321 53.245Z" fill="#1B4942"/>
<path fill-rule="evenodd" clip-rule="evenodd" d="M161.477 31.6504C163.125 32.6641 164.327 34.4512 165.085 37.6699L165.287 38.8249C164.379 39.4037 163.12 39.4087 161.608 38.2059C158.821 35.9883 160.13 33.1108 161.133 31.9492C161.249 31.8412 161.364 31.7417 161.477 31.6504Z" fill="#1B4942"/>
<path fill-rule="evenodd" clip-rule="evenodd" d="M172.364 68.1143C173.676 67.3953 175.359 66.4915 176.456 65.9577C177.391 65.5032 178.038 65.1645 178.447 64.9395C178.674 65.4915 178.83 66.0546 178.915 66.5454C179.311 68.8422 177.173 72.4854 173.688 69.7134C173.049 69.2055 172.626 68.6629 172.364 68.1143Z" fill="#1B4942"/>
<path d="M144.877 76.5496C142.089 74.3321 143.399 71.4545 144.402 70.2929C147.728 67.2042 149.708 71.0849 150.104 73.3817C150.5 75.6785 148.362 79.3216 144.877 76.5496Z" fill="#1B4942"/>
<path fill-rule="evenodd" clip-rule="evenodd" d="M132.083 72.6582C133.862 72.8435 134.933 75.2585 135.213 76.8821C135.572 78.961 133.854 82.143 130.94 80.6722C130.973 80.4442 131.008 80.2041 131.044 79.9495C131.165 79.1087 131.309 78.1091 131.495 76.8577C131.715 75.3771 131.935 73.8211 132.083 72.6582Z" fill="#1B4942"/>
<path fill-rule="evenodd" clip-rule="evenodd" d="M150.173 86.2909L155.63 87.4146L156.544 84.4219L156.591 84.5305C155.749 82.513 153.972 80.6683 151.371 83.083C150.801 83.7433 150.132 84.9581 150.173 86.2909Z" fill="#1B4942"/>
<path fill-rule="evenodd" clip-rule="evenodd" d="M104.891 57.9392C105.732 57.0739 106.122 55.667 105.933 54.5682C105.583 52.5395 103.997 49.275 101.34 50.6691L104.891 57.9392Z" fill="#1B4942"/>
<path fill-rule="evenodd" clip-rule="evenodd" d="M96.6514 35.1865C95.7534 36.5364 95.0135 39.0145 97.4795 40.9761C99.0377 42.2156 100.327 42.1724 101.24 41.5404L96.6514 35.1865Z" fill="#1B4942"/>
<path fill-rule="evenodd" clip-rule="evenodd" d="M117.181 49.2954L115.35 56.9522C117.741 58.9436 120.152 56.3701 120.344 54.3037C120.529 52.3149 119.894 48.8996 117.181 49.2954Z" fill="#1B4942"/>
<path fill-rule="evenodd" clip-rule="evenodd" d="M162.256 49.5439C161.253 50.7055 159.944 53.583 162.731 55.8006C166.216 58.5726 168.355 54.9294 167.959 52.6327C167.563 50.3359 165.583 46.4551 162.256 49.5439Z" fill="#1B4942"/>
<path fill-rule="evenodd" clip-rule="evenodd" d="M158.422 73.6357C159.223 75.9937 160.602 80.0019 161.003 80.9619L160.154 81.7193C162.169 81.7073 163.273 79.2592 162.979 77.5536C162.63 75.5341 161.058 72.2902 158.422 73.6357Z" fill="#1B4942"/>
<path d="M154.508 36.043C154.042 45.2699 156.093 71.6457 162.896 83.6686C163.394 84.2899 165.077 84.8802 167.836 82.2706C171.285 79.0086 190.577 62.8848 194.026 59.1568L190.204 55.4287C187.533 57.9762 181.071 63.5372 176.597 65.4012C172.123 67.2652 167.65 70.7137 165.972 72.2049V42.6631" stroke="#212121" stroke-width="1.12186" stroke-linecap="round" stroke-linejoin="round"/>
<path d="M190.469 55.3895C192.13 53.4299 194.162 51.3182 195.318 50.3287C195.577 50.1067 196.937 44.6684 197.677 44.5233C197.903 44.4789 197.988 45.4759 198.069 46.5915L198.625 49.5287C202.277 49.1342 207.545 49.174 207.87 49.1732C208.335 49.1721 202.411 50.7593 201.669 51.0254C200.927 51.2914 207.231 50.6976 208.289 50.8714C209.301 51.0375 202.934 52.4761 201.585 52.4707C202.895 52.6277 209.752 53.559 208.535 53.6271L208.535 53.6271C207.125 53.706 201.487 54.0213 202.092 54.1205C202.696 54.2198 209.423 56.7212 208.063 56.4978C206.703 56.2745 198.81 55.3547 197.677 55.1686C196.771 55.0197 194.331 57.9686 193.594 58.6751L190.469 55.3895Z" fill="white"/>
<path d="M197.677 44.5233C196.937 44.6684 195.577 50.1067 195.318 50.3287C194.162 51.3182 192.13 53.4299 190.469 55.3895L193.594 58.6751C194.331 57.9686 196.771 55.0197 197.677 55.1686C198.81 55.3547 206.703 56.2745 208.063 56.4978C209.423 56.7212 202.696 54.2198 202.092 54.1205C201.487 54.0213 207.125 53.7059 208.535 53.6271C209.944 53.5483 200.527 52.3118 201.433 52.4607C202.34 52.6096 209.347 51.0451 208.289 50.8714C207.231 50.6976 200.927 51.2914 201.669 51.0254C202.411 50.7593 208.335 49.1721 207.87 49.1732C207.545 49.174 202.277 49.1342 198.625 49.5287M197.677 44.5233C198.186 44.4234 197.978 49.5987 198.625 49.5287M197.677 44.5233L198.625 49.5287" stroke="#212121" stroke-width="1.12186" stroke-linecap="round" stroke-linejoin="round"/>
<path d="M95.915 33.1347C94.5937 30.9318 92.9312 28.5188 91.9513 27.3551C90.7264 25.9005 80.2117 24.257 79.7524 24.1804C79.293 24.1039 84.8817 26.6302 85.5707 27.013C86.2597 27.3958 80.1352 25.7881 79.0634 25.7881C78.0382 25.7881 84.0872 28.2396 85.4194 28.4529C84.1014 28.3955 77.1843 28.2032 78.3743 28.4676L78.3744 28.4676C79.7525 28.7739 85.2645 29.9988 84.652 29.9988C84.0396 29.9988 76.9963 31.3768 78.3743 31.3768C79.7524 31.3768 87.6901 31.7485 88.8384 31.7485C89.7571 31.7485 91.6869 35.0539 92.2994 35.8705L95.915 33.1347Z" fill="white" stroke="#212121" stroke-width="1.12186" stroke-linecap="round" stroke-linejoin="round"/>
<path d="M109.535 32.6865C110.856 30.4836 112.519 28.0705 113.499 26.9068C114.724 25.4523 125.238 23.8087 125.698 23.7322C126.157 23.6556 120.568 26.182 119.879 26.5648C119.19 26.9476 125.315 25.3399 126.387 25.3399C127.412 25.3399 121.363 27.7913 120.031 28.0046C121.349 27.9472 128.266 27.7549 127.076 28.0194L127.076 28.0194C125.698 28.3256 120.186 29.5505 120.798 29.5505C121.411 29.5505 128.454 30.9286 127.076 30.9286C125.698 30.9286 117.76 31.3002 116.612 31.3002C115.693 31.3002 113.763 34.6057 113.151 35.4223L109.535 32.6865Z" fill="white" stroke="#212121" stroke-width="1.12186" stroke-linecap="round" stroke-linejoin="round"/>
<path d="M152.642 48.79C152.047 54.4875 144.699 58.764 140.061 51.2216C135.778 44.257 138.105 41.7469 139.474 43.3573C140.431 44.4831 140.774 48.2637 138.687 51.2216C134.627 56.9728 128.395 52.684 130.096 47.5826" stroke="#212121" stroke-width="1.12186" stroke-linecap="round" stroke-linejoin="round"/>
<path d="M148.17 12.1172C145.192 10.7348 137.242 5.93927 136.577 4.65434C137.907 3.44342 148.17 2.34896 154.98 3.95329C160.428 5.23675 160.259 14.3953 159.493 18.8142C162.963 17.4648 172.968 14.2362 185.228 12.1172C200.554 9.46855 223.109 12.1172 222.241 28.3566C221.374 44.5959 198.241 46.2847 187.542 33.5615C176.843 20.8383 163.541 28.9349 156.601 24.5975C151.049 21.1275 149.686 13.0149 149.698 9.39229L148.17 12.1172Z" fill="#FFB359" stroke="#FFB359" stroke-width="1.12186" stroke-linecap="round" stroke-linejoin="round"/>
<path d="M152.099 15.902C152.554 14.1589 150.617 14.2117 149.591 14.4559L147.994 17.9089C149.173 17.9662 151.645 17.6451 152.099 15.902Z" fill="white"/>
<path d="M96.2623 116.715C111.47 96.0332 123.45 84.7717 129.829 82.458L150.205 86.9115L155.816 88.1711L150.327 124.465L158.751 160.183L144.839 166.164L129.829 135.922C128.127 133.508 126.386 113.742 128.127 106.404L115.424 135.922L106.556 163.77L92.0043 160.183C92.0043 147.738 92.7387 123.916 96.2623 116.715Z" fill="#212121" stroke="#212121" stroke-width="1.12186" stroke-linecap="round" stroke-linejoin="round"/>
<path d="M106.739 164.051C107.41 167.247 110.109 188.307 107.929 190.023C107.165 190.624 106.1 191.052 104.864 191.36M100.463 179.128C102.024 183.08 99.6075 187.55 93.4852 188.227C87.3629 188.904 89.784 192.421 94.2105 192.265C96.8265 192.172 101.988 188.939 104.864 188.498M104.864 191.36C104.296 191.502 105.491 188.402 104.864 188.498M104.864 191.36L104.864 188.498" stroke="#212121" stroke-width="1.12186" stroke-linecap="round" stroke-linejoin="round"/>
<path d="M155.572 161.062C157.272 163.638 162.402 178.711 163.144 180.195C163.47 180.847 162.726 182.475 161.455 184.331M151.553 180.195C152.686 181.74 154.605 186.393 148.918 188.371C143.23 190.349 143.311 191.425 144.598 192.25C145.938 192.404 149.389 192.621 152.48 192.25C154.568 191.999 157.292 185.717 159.66 182.759M161.455 184.331C161.065 184.901 160.134 182.167 159.66 182.759M161.455 184.331L159.66 182.759" stroke="#212121" stroke-width="1.12186" stroke-linecap="round" stroke-linejoin="round"/>
<path d="M126.272 113.434L128.18 102.215" stroke="#1B4942" stroke-width="1.12186" stroke-linecap="round" stroke-linejoin="round"/>
<path d="M141.595 120.499C144.758 121.601 150.912 123.921 150.222 124.381C149.532 124.841 145.237 125.819 143.176 126.25" stroke="#1B4942" stroke-width="1.12186" stroke-linecap="round" stroke-linejoin="round"/>
<path d="M111.913 128.456C113.561 130.825 116.486 135.532 115.003 135.408C113.52 135.284 110.883 134.533 109.751 134.172" stroke="#1B4942" stroke-width="1.12186" stroke-linecap="round" stroke-linejoin="round"/>
</g>
<defs>
<clipPath id="clip0">
<rect width="240" height="200" fill="white"/>
</clipPath>
</defs>
</svg>
