<svg width="240" height="240" viewBox="0 0 240 240" fill="none" xmlns="http://www.w3.org/2000/svg">
<rect x="55.941" y="50.4291" width="144.838" height="93.8723" rx="2.35" transform="rotate(9.12558 55.941 50.4291)" fill="white" stroke="#212121" stroke-width="1.3"/>
<path d="M141.229 1.51484L59.207 50.8523L196.112 72.8134L145.207 2.32912C144.294 1.065 142.565 0.711074 141.229 1.51484Z" fill="white" stroke="#212121" stroke-width="1.3"/>
<path d="M59.0742 50.5831L113.062 123.349C114.007 124.623 115.779 124.941 117.108 124.076L195.826 72.8507" stroke="#212121" stroke-width="1.3"/>
<path d="M96.1055 100.685L48.4238 144.01M143.545 107.22L176.22 164.825" stroke="#212121" stroke-width="1.3"/>
<path d="M83.3559 45.3458C74.3938 54.8351 72.1533 64.5293 72.1533 68.1903L113.069 123.311C114.014 124.583 115.785 124.902 117.114 124.038L161.774 94.9886C161.994 74.3407 179.566 66.6527 184.399 55.2304C188.265 46.0927 188.236 35.6013 184.399 27.3338L90.8243 12.6167C94.5585 21.403 94.5585 33.4843 83.3559 45.3458Z" fill="white" stroke="#212121" stroke-width="1.3"/>
<path d="M124.64 41.1688L128.063 43.4719L132.101 42.6635L134.389 46.1107L138.426 46.9199L139.23 50.9863L142.653 53.2902L141.85 57.3568L144.137 60.8044L141.85 64.252L142.653 68.3186L139.23 70.6224L138.426 74.6888L134.389 75.4981L132.101 78.9453L128.063 78.1368L124.64 80.44L121.216 78.1368L117.179 78.9453L114.891 75.4981L110.853 74.6888L110.05 70.6224L106.627 68.3186L107.429 64.252L105.143 60.8044L107.429 57.3568L106.627 53.2902L110.05 50.9863L110.853 46.9199L114.891 46.1107L117.179 42.6635L121.216 43.4719L124.64 41.1688Z" fill="#212121"/>
<path d="M133.539 55.4626C132.962 53.952 130.82 50.9802 126.865 51.178C121.921 51.4252 117.39 56.1218 117.719 62.1366C118.049 68.1515 125.299 73.8368 131.15 67.9867" stroke="white" stroke-width="1.3" stroke-linecap="round" stroke-linejoin="round"/>
<path d="M116.483 56.6434L128.513 58.6208M115.741 61.0927L126.453 62.6583" stroke="white" stroke-width="1.3" stroke-linecap="round"/>
<path d="M96.5361 131.262L82.6033 117.329C81.0568 115.782 81.6317 113.154 83.6827 112.394L109.137 102.967C110.774 102.36 112.348 103.997 111.678 105.609L101.428 130.291C100.608 132.264 98.0471 132.773 96.5361 131.262Z" fill="#212121"/>
<path d="M87.7603 121.822C88.9018 120.681 90.7525 120.681 91.894 121.822C93.0355 122.964 93.0355 124.814 91.894 125.956L83.0932 134.757C82.7027 135.147 82.0695 135.147 81.679 134.757L78.9595 132.037C78.569 131.647 78.569 131.013 78.9595 130.623L87.7603 121.822Z" fill="#212121"/>
<path d="M103.15 98.6477C102.792 98.1953 101.959 96.7907 101.493 94.7916C101.027 92.7925 100.496 91.2991 100.289 90.8023" stroke="#1B4942" stroke-width="1.3" stroke-linecap="round"/>
<path d="M111.407 97.5934C111.336 96.9378 111.376 95.113 112.099 93.0585C112.821 91.0041 113.192 89.3317 113.287 88.7522" stroke="#1B4942" stroke-width="1.3" stroke-linecap="round"/>
<path d="M116.496 101.657C117.059 101.313 118.726 100.571 120.893 100.348C123.059 100.126 124.73 99.7483 125.295 99.5873" stroke="#1B4942" stroke-width="1.3" stroke-linecap="round"/>
<path d="M116.684 109.316C117.333 109.433 119.073 109.984 120.841 111.256C122.609 112.528 124.109 113.354 124.639 113.609" stroke="#1B4942" stroke-width="1.3" stroke-linecap="round"/>
<path d="M80.7625 224.189C101.888 221.797 122.99 218.937 144.044 215.981C148.78 215.316 153.598 214.708 158.216 213.513" stroke="#FFB359" stroke-width="3" stroke-linecap="round" stroke-linejoin="round"/>
<path d="M70.0002 233.191C102.982 229.826 135.739 224.367 168.702 220.767" stroke="#FFB359" stroke-width="3" stroke-linecap="round" stroke-linejoin="round"/>
</svg>
