<svg width="240" height="241" viewBox="0 0 240 241" fill="none" xmlns="http://www.w3.org/2000/svg">
<g clip-path="url(#clip0)">
<path d="M82.2275 52.2772C88.7857 23.7571 82.7335 5.99472 78.8877 0.678528L182.725 14.4382C186.975 30.6996 186.672 45.0847 178.474 75.1058C171.916 99.1226 175.742 140.568 178.474 158.289L72.8154 143.591C66.7431 107.629 74.0299 87.9273 82.2275 52.2772Z" fill="white" stroke="black" stroke-width="1.3"/>
<circle cx="130.78" cy="49.6212" r="20.2411" fill="#212121" stroke="black" stroke-width="0.65111"/>
<path d="M128.038 22.2381C129.453 20.3077 131.916 19.6999 132.971 19.6374C141.604 21.5295 135.376 26.0453 133.445 31.1776C132.664 33.2527 140.236 33.7912 141.878 37.0006C143.486 40.1411 142.752 42.3299 142.752 46.9716C142.484 50.9128 141.244 54.1958 139.566 60.4524C138.673 63.778 137.797 66.5958 136.953 68.8685C136.953 68.8685 133.324 70.1584 128.414 69.6921C123.504 69.2258 121.611 67.5251 121.611 67.5251L122.558 60.4524C123.471 54.5143 121.211 47.8934 119.967 45.3252C118.616 49.7827 115.659 59.0486 114.642 60.4524C113.372 62.2071 112.222 61.7231 111.556 60.9364C110.891 60.1498 104.961 47.7456 103.69 45.3252C102.674 43.3889 100.483 39.7987 99.515 38.2457L101.693 36.612C102.198 37.3784 103.799 39.6858 106.171 42.7838C108.543 45.8819 111.193 50.7306 112.222 52.7678C113.394 48.476 114.71 41.9693 116.03 37.6884C117.777 32.0193 120.533 32.2511 122.202 32.5452C124.145 32.8877 126.664 33.0312 128.038 32.5452C128.836 32.2626 129.552 31.0837 129.66 29.7431C129.767 28.4026 126.593 29.891 126.099 27.9505C125.784 26.7138 127.147 23.4435 128.038 22.2381Z" fill="white"/>
<path d="M132.971 19.6374L132.951 19.308C132.982 19.3062 133.012 19.3086 133.041 19.3151L132.971 19.6374ZM128.038 22.2381L128.304 22.4332L128.303 22.4342L128.038 22.2381ZM126.099 27.9505L125.779 28.0319L126.099 27.9505ZM128.038 32.5452L128.148 32.8562L128.038 32.5452ZM122.202 32.5452L122.259 32.2203L122.202 32.5452ZM116.03 37.6884L115.714 37.5912L116.03 37.6884ZM112.222 52.7678L112.54 52.8547C112.504 52.9864 112.391 53.0823 112.255 53.096C112.119 53.1097 111.989 53.0383 111.927 52.9165L112.222 52.7678ZM106.171 42.7838L106.433 42.5833L106.171 42.7838ZM101.693 36.612L101.495 36.348C101.568 36.2934 101.66 36.2713 101.75 36.2869C101.84 36.3026 101.919 36.3546 101.969 36.4306L101.693 36.612ZM99.515 38.2457L99.2351 38.4202C99.1445 38.2749 99.1801 38.0845 99.3171 37.9818L99.515 38.2457ZM103.69 45.3252L103.982 45.1718L103.69 45.3252ZM114.642 60.4524L114.375 60.2589L114.642 60.4524ZM119.967 45.3252L119.651 45.2295C119.691 45.0995 119.806 45.0069 119.941 44.9963C120.077 44.9857 120.205 45.0591 120.264 45.1814L119.967 45.3252ZM122.558 60.4524L122.231 60.4086L122.232 60.4022L122.558 60.4524ZM121.611 67.5251L121.39 67.7705C121.309 67.6976 121.269 67.5894 121.284 67.4813L121.611 67.5251ZM133.445 31.1776L133.136 31.0614L133.445 31.1776ZM142.752 46.9716L143.082 46.9716C143.082 46.9791 143.081 46.9866 143.081 46.994L142.752 46.9716ZM141.878 37.0006L142.172 36.8503H142.172L141.878 37.0006ZM136.953 68.8685L137.262 68.9835C137.228 69.075 137.155 69.1467 137.063 69.1794L136.953 68.8685ZM139.566 60.4524L139.884 60.5379L139.566 60.4524ZM128.414 69.6921L128.445 69.3636H128.445L128.414 69.6921ZM132.99 19.9667C132.502 19.9957 131.66 20.1542 130.771 20.54C129.883 20.9251 128.967 21.5281 128.304 22.4332L127.771 22.043C128.523 21.0176 129.547 20.3516 130.508 19.9346C131.468 19.5183 132.385 19.3416 132.951 19.308L132.99 19.9667ZM126.418 27.8691C126.513 28.242 126.724 28.4375 127.007 28.5568C127.312 28.6857 127.698 28.7232 128.12 28.7422C128.508 28.7598 128.968 28.7601 129.305 28.8521C129.482 28.9004 129.671 28.9844 129.809 29.1474C129.956 29.3198 130.007 29.5358 129.989 29.7695L129.331 29.7168C129.339 29.6153 129.315 29.5846 129.306 29.5742C129.289 29.5545 129.245 29.5197 129.131 29.4886C128.887 29.422 128.543 29.4218 128.09 29.4014C127.67 29.3824 127.176 29.3444 126.75 29.1647C126.302 28.9754 125.931 28.6292 125.779 28.0319L126.418 27.8691ZM129.989 29.7695C129.931 30.4881 129.711 31.1663 129.392 31.708C129.078 32.243 128.647 32.6794 128.148 32.8562L127.927 32.2342C128.226 32.1283 128.553 31.8341 128.823 31.3738C129.09 30.9203 129.281 30.3388 129.331 29.7168L129.989 29.7695ZM128.148 32.8562C127.404 33.1192 126.384 33.2039 125.328 33.1857C124.264 33.1674 123.131 33.0439 122.144 32.8701L122.259 32.2203C123.216 32.3889 124.314 32.5084 125.339 32.526C126.372 32.5437 127.297 32.4572 127.927 32.2342L128.148 32.8562ZM122.144 32.8701C121.323 32.7253 120.315 32.6136 119.304 33.1697C118.294 33.7257 117.206 34.9925 116.345 37.7856L115.714 37.5912C116.601 34.7152 117.765 33.2634 118.986 32.5916C120.207 31.9197 121.412 32.071 122.259 32.2203L122.144 32.8701ZM116.345 37.7856C115.689 39.9141 115.032 42.6008 114.392 45.3002C113.752 47.9942 113.128 50.7018 112.54 52.8547L111.904 52.6808C112.488 50.5419 113.108 47.8503 113.75 45.1478C114.39 42.4507 115.051 39.7436 115.714 37.5912L116.345 37.7856ZM111.927 52.9165C110.901 50.8839 108.262 46.0574 105.909 42.9844L106.433 42.5833C108.824 45.7064 111.485 50.5774 112.516 52.6191L111.927 52.9165ZM105.909 42.9844C103.534 39.8817 101.927 37.5678 101.418 36.7933L101.969 36.4306C102.468 37.189 104.065 39.4899 106.433 42.5833L105.909 42.9844ZM101.891 36.8759L99.713 38.5096L99.3171 37.9818L101.495 36.348L101.891 36.8759ZM99.795 38.0712C100.762 39.6231 102.959 43.2232 103.982 45.1718L103.398 45.4786C102.388 43.5547 100.204 39.9744 99.2351 38.4202L99.795 38.0712ZM103.982 45.1718C104.62 46.3871 106.424 50.1014 108.146 53.5977C109.008 55.3485 109.851 57.0466 110.519 58.3557C110.853 59.0105 111.143 59.5659 111.369 59.9813C111.482 60.1891 111.578 60.3597 111.656 60.4891C111.737 60.6251 111.786 60.6975 111.808 60.7233L111.304 61.1495C111.243 61.077 111.168 60.9604 111.089 60.8271C111.005 60.6872 110.905 60.5082 110.79 60.2969C110.559 59.8738 110.266 59.3123 109.931 58.6557C109.261 57.3421 108.416 55.6403 107.554 53.8892C105.827 50.3816 104.031 46.6837 103.398 45.4786L103.982 45.1718ZM111.808 60.7233C112.11 61.08 112.48 61.3175 112.872 61.3175C113.253 61.3175 113.772 61.0921 114.375 60.2589L114.909 60.6459C114.242 61.5674 113.55 61.9773 112.872 61.9773C112.206 61.9773 111.668 61.5795 111.304 61.1495L111.808 60.7233ZM114.375 60.2589C114.481 60.1121 114.627 59.8398 114.807 59.4453C114.984 59.0568 115.186 58.5687 115.406 58.0039C115.844 56.8746 116.35 55.4505 116.867 53.9279C117.9 50.8831 118.976 47.4559 119.651 45.2295L120.283 45.4209C119.606 47.6519 118.528 51.0864 117.491 54.14C116.973 55.6664 116.464 57.1007 116.021 58.2428C115.799 58.8137 115.592 59.3147 115.408 59.719C115.226 60.1173 115.057 60.4417 114.909 60.6459L114.375 60.2589ZM120.264 45.1814C121.522 47.7774 123.812 54.47 122.884 60.5025L122.232 60.4022C123.131 54.5586 120.901 48.0094 119.67 45.469L120.264 45.1814ZM122.885 60.4962L121.938 67.5689L121.284 67.4813L122.231 60.4086L122.885 60.4962ZM133.136 31.0614C133.631 29.7444 134.4 28.4741 135.118 27.3028C135.846 26.1161 136.514 25.0449 136.859 24.0811C137.201 23.1279 137.199 22.3617 136.698 21.7199C136.173 21.046 135.043 20.4292 132.9 19.9596L133.041 19.3151C135.216 19.7916 136.544 20.4489 137.219 21.3142C137.918 22.2116 137.858 23.25 137.48 24.3037C137.106 25.3469 136.394 26.4853 135.681 27.6478C134.958 28.8258 134.223 30.0446 133.753 31.2938L133.136 31.0614ZM142.422 46.9716C142.422 45.8027 142.468 44.7887 142.512 43.8812C142.556 42.9707 142.596 42.1749 142.588 41.4269C142.571 39.945 142.36 38.6655 141.585 37.1509L142.172 36.8503C143.004 38.4762 143.23 39.8613 143.248 41.4193C143.257 42.1914 143.214 43.0094 143.171 43.9129C143.127 44.8194 143.082 45.8197 143.082 46.9716L142.422 46.9716ZM141.585 37.1509C141.217 36.4329 140.502 35.8371 139.593 35.3146C138.689 34.7941 137.635 34.3692 136.631 33.9703C135.643 33.5779 134.684 33.2034 134.027 32.791C133.698 32.5847 133.409 32.3483 133.235 32.0652C133.049 31.7638 133 31.4219 133.136 31.0614L133.753 31.2938C133.694 31.452 133.711 31.5808 133.796 31.7187C133.893 31.8747 134.081 32.046 134.377 32.2321C134.971 32.6046 135.861 32.9544 136.875 33.3572C137.872 33.7535 138.97 34.1947 139.922 34.7426C140.871 35.2885 141.718 35.9636 142.172 36.8503L141.585 37.1509ZM136.643 68.7536C137.483 66.4934 138.356 63.6862 139.247 60.3669L139.884 60.5379C138.99 63.8698 138.111 66.6981 137.262 68.9835L136.643 68.7536ZM139.247 60.3669C140.936 54.0723 142.158 50.8477 142.423 46.9493L143.081 46.994C142.81 50.9779 141.553 54.3193 139.884 60.5379L139.247 60.3669ZM125.779 28.0319C125.682 27.6494 125.72 27.1537 125.82 26.6425C125.921 26.1208 126.096 25.5408 126.306 24.9687C126.725 23.8303 127.301 22.6795 127.772 22.042L128.303 22.4342C127.883 23.0021 127.333 24.0891 126.926 25.1964C126.723 25.7471 126.56 26.2919 126.467 26.7689C126.372 27.2564 126.358 27.6331 126.418 27.8691L125.779 28.0319ZM121.611 67.5251C121.831 67.2797 121.831 67.2796 121.831 67.2795C121.831 67.2794 121.831 67.2793 121.831 67.2793C121.831 67.2792 121.831 67.2791 121.831 67.279C121.831 67.2789 121.831 67.2789 121.831 67.2789C121.831 67.2791 121.831 67.2797 121.833 67.2806C121.835 67.2825 121.839 67.286 121.845 67.291C121.857 67.301 121.876 67.3169 121.904 67.338C121.958 67.3804 122.045 67.4437 122.164 67.5222C122.404 67.6794 122.778 67.8979 123.305 68.1323C124.358 68.6007 126.024 69.1337 128.445 69.3636L128.382 70.0205C125.893 69.7841 124.158 69.2336 123.037 68.7352C122.477 68.486 122.071 68.2503 121.802 68.074C121.668 67.9858 121.568 67.9126 121.5 67.8601C121.466 67.8339 121.44 67.8128 121.422 67.7976C121.413 67.79 121.406 67.7839 121.401 67.7793C121.398 67.7771 121.396 67.7752 121.394 67.7737C121.393 67.773 121.393 67.7723 121.392 67.7718C121.392 67.7715 121.391 67.7713 121.391 67.7711C121.391 67.771 121.391 67.7708 121.391 67.7708C121.391 67.7706 121.39 67.7705 121.611 67.5251ZM128.445 69.3636C130.864 69.5934 132.969 69.3905 134.468 69.1301C135.217 69 135.814 68.8557 136.222 68.7445C136.426 68.6889 136.583 68.6415 136.688 68.6084C136.74 68.5919 136.78 68.5789 136.806 68.5702C136.819 68.5658 136.828 68.5625 136.834 68.5604C136.837 68.5594 136.839 68.5586 136.841 68.5581C136.841 68.5579 136.842 68.5577 136.842 68.5577C136.842 68.5576 136.842 68.5576 136.842 68.5576C136.842 68.5576 136.842 68.5576 136.842 68.5576C136.842 68.5576 136.842 68.5577 136.953 68.8685C137.063 69.1794 137.063 69.1794 137.063 69.1795C137.063 69.1795 137.063 69.1795 137.063 69.1796C137.062 69.1796 137.062 69.1797 137.062 69.1799C137.061 69.1801 137.06 69.1804 137.059 69.1808C137.057 69.1816 137.054 69.1826 137.05 69.184C137.042 69.1867 137.031 69.1907 137.016 69.1956C136.986 69.2056 136.943 69.2198 136.886 69.2376C136.774 69.2732 136.609 69.3231 136.396 69.3811C135.97 69.4971 135.353 69.6462 134.581 69.7802C133.038 70.0482 130.873 70.257 128.382 70.0205L128.445 69.3636Z" fill="#212121"/>
<path d="M137.723 34.1153C136.404 34.7479 132.965 35.9052 128.972 34.6831C126.019 33.7794 125.625 32.8303 126.804 32.7843" stroke="#212121" stroke-width="0.593084" stroke-linecap="round" stroke-linejoin="round"/>
<path d="M141.087 66.324C137.085 59.2526 135.879 43.7394 136.153 38.3125L142.896 42.2062V59.5815C143.882 58.7044 146.514 56.6762 149.145 55.5799C151.776 54.4835 155.577 51.2128 157.148 49.7144L159.396 51.9071C157.367 54.0998 146.02 63.5831 143.992 65.5017C142.37 67.0366 141.379 66.6894 141.087 66.324Z" fill="white"/>
<path d="M117.022 42.5653C115.382 41.261 116.152 39.5685 116.742 38.8853C118.699 37.0686 119.863 39.3511 120.096 40.702C120.329 42.0529 119.071 44.1956 117.022 42.5653Z" fill="#1B4942"/>
<path fill-rule="evenodd" clip-rule="evenodd" d="M116.251 55.7425C116.138 56.0569 115.774 57.0635 115.5 57.8197C115.238 58.5445 114.825 59.4187 114.669 59.7413C114.406 59.6499 114.124 59.4924 113.825 59.2548C112.186 57.9506 112.956 56.2581 113.546 55.5749C114.768 54.4402 115.681 54.9047 116.251 55.7425Z" fill="#1B4942"/>
<path fill-rule="evenodd" clip-rule="evenodd" d="M120.925 32.6372C120.615 33.4469 120.603 34.5276 121.731 35.4247C123.78 37.0551 125.038 34.9123 124.805 33.5615C124.777 33.4005 124.736 33.2263 124.682 33.0473L120.925 32.6372Z" fill="#1B4942"/>
<path d="M132.544 40.3658C130.905 39.0615 131.675 37.3691 132.265 36.6859C134.221 34.8692 135.386 37.1517 135.619 38.5025C135.852 39.8534 134.594 41.9962 132.544 40.3658Z" fill="#1B4942"/>
<path d="M125.24 44.1587C123.6 42.8544 124.37 41.162 124.96 40.4788C126.916 38.6621 128.081 40.9446 128.314 42.2955C128.547 43.6463 127.289 45.7891 125.24 44.1587Z" fill="#1B4942"/>
<path d="M137.591 57.9678C135.951 56.6635 136.722 54.9711 137.312 54.2879C139.268 52.4712 140.433 54.7537 140.665 56.1045C140.898 57.4554 139.641 59.5982 137.591 57.9678Z" fill="#1B4942"/>
<path d="M126.593 54.1992C124.953 52.8949 125.724 51.2024 126.314 50.5192C128.27 48.7026 129.435 50.9851 129.667 52.3359C129.9 53.6868 128.643 55.8296 126.593 54.1992Z" fill="#1B4942"/>
<path d="M136.632 48.4297C134.992 47.1254 135.763 45.433 136.353 44.7498C138.309 42.9331 139.474 45.2156 139.706 46.5665C139.939 47.9173 138.682 50.0601 136.632 48.4297Z" fill="#1B4942"/>
<path fill-rule="evenodd" clip-rule="evenodd" d="M140.252 35.7289C141.221 36.3251 141.928 37.3762 142.374 39.2693L142.493 39.9487C141.959 40.2891 141.219 40.292 140.329 39.5846C138.69 38.2803 139.46 36.5879 140.05 35.9047C140.118 35.8411 140.186 35.7826 140.252 35.7289Z" fill="#1B4942"/>
<path fill-rule="evenodd" clip-rule="evenodd" d="M146.655 57.1756C147.427 56.7527 148.417 56.2211 149.062 55.9071C149.612 55.6398 149.992 55.4407 150.233 55.3083C150.366 55.6329 150.458 55.9642 150.508 56.2529C150.741 57.6037 149.483 59.7465 147.434 58.1161C147.058 57.8174 146.809 57.4982 146.655 57.1756Z" fill="#1B4942"/>
<path d="M130.49 62.137C128.85 60.8327 129.62 59.1403 130.21 58.4571C132.166 56.6404 133.331 58.9229 133.564 60.2738C133.797 61.6246 132.539 63.7674 130.49 62.137Z" fill="#1B4942"/>
<path fill-rule="evenodd" clip-rule="evenodd" d="M122.964 59.8482C124.01 59.9571 124.641 61.3776 124.805 62.3325C125.016 63.5552 124.006 65.4268 122.292 64.5617C122.311 64.4276 122.332 64.2864 122.353 64.1367C122.424 63.6421 122.509 63.0542 122.618 62.3182C122.748 61.4473 122.877 60.5322 122.964 59.8482Z" fill="#1B4942"/>
<path fill-rule="evenodd" clip-rule="evenodd" d="M137.38 66.8337L137.351 66.7671L136.813 68.5274C136.813 68.5274 136.56 68.7646 135.731 68.9027C135.136 69.0018 134.452 69.1303 134.113 69.195C133.124 67.9783 133.787 66.5839 134.309 65.9795C135.839 64.5582 136.885 65.646 137.38 66.8337Z" fill="#1B4942"/>
<path fill-rule="evenodd" clip-rule="evenodd" d="M106.971 51.191C107.465 50.6821 107.695 49.8546 107.583 49.2084C107.377 48.0152 106.445 46.0952 104.882 46.915L106.971 51.191Z" fill="#1B4942"/>
<path fill-rule="evenodd" clip-rule="evenodd" d="M102.125 37.8085C101.596 38.6025 101.161 40.06 102.612 41.2137C103.528 41.9428 104.286 41.9173 104.824 41.5456L102.125 37.8085Z" fill="#1B4942"/>
<path fill-rule="evenodd" clip-rule="evenodd" d="M114.199 46.1071L113.122 50.6105C114.529 51.7818 115.946 50.2681 116.06 49.0528C116.169 47.883 115.795 45.8743 114.199 46.1071Z" fill="#1B4942"/>
<path fill-rule="evenodd" clip-rule="evenodd" d="M140.07 65.0412C140.87 64.6581 141.277 63.5471 141.136 62.7276C140.931 61.5398 140.006 59.6318 138.456 60.4232C138.906 61.7465 139.743 64.1829 140.07 65.0412Z" fill="#1B4942"/>
<path d="M136.153 38.3125C135.879 43.7394 137.085 59.2526 141.087 66.324C141.379 66.6894 142.37 67.0366 143.992 65.5017C146.02 63.5831 157.367 54.0998 159.396 51.9071L157.148 49.7144C155.577 51.2128 151.776 54.4835 149.145 55.5799C146.514 56.6762 143.882 58.7044 142.896 59.5815V42.2062" stroke="#212121" stroke-width="0.659833" stroke-linecap="round" stroke-linejoin="round"/>
<path d="M157.304 49.6914C158.281 48.5388 159.476 47.2968 160.156 46.7148C160.308 46.5843 161.109 43.3857 161.544 43.3003C161.677 43.2742 161.727 43.8606 161.774 44.5167L162.102 46.2443C164.249 46.0122 167.348 46.0357 167.539 46.0352C167.813 46.0346 164.328 46.9681 163.892 47.1246C163.455 47.281 167.163 46.9318 167.785 47.034C168.38 47.1317 164.636 47.9778 163.842 47.9746C164.613 48.067 168.646 48.6148 167.93 48.6548L167.93 48.6548C167.101 48.7012 163.785 48.8866 164.14 48.945C164.496 49.0034 168.452 50.4746 167.652 50.3432C166.853 50.2119 162.21 49.6709 161.544 49.5614C161.011 49.4738 159.575 51.2083 159.142 51.6239L157.304 49.6914Z" fill="white"/>
<path d="M161.544 43.3003C161.109 43.3857 160.308 46.5843 160.156 46.7148C159.476 47.2968 158.281 48.5388 157.304 49.6914L159.142 51.6239C159.575 51.2083 161.011 49.4738 161.544 49.5614C162.21 49.6709 166.853 50.2119 167.652 50.3432C168.452 50.4746 164.496 49.0034 164.14 48.945C163.785 48.8866 167.101 48.7012 167.93 48.6548C168.759 48.6084 163.22 47.8812 163.753 47.9688C164.286 48.0564 168.407 47.1362 167.785 47.034C167.163 46.9318 163.455 47.281 163.892 47.1246C164.328 46.9681 167.813 46.0346 167.539 46.0352C167.348 46.0357 164.249 46.0122 162.102 46.2443M161.544 43.3003C161.843 43.2416 161.721 46.2854 162.102 46.2443M161.544 43.3003L162.102 46.2443" stroke="#212121" stroke-width="0.659833" stroke-linecap="round" stroke-linejoin="round"/>
<path d="M101.691 36.6018C100.914 35.3062 99.9364 33.8869 99.3601 33.2025C98.6396 32.347 92.4553 31.3803 92.1852 31.3353C91.915 31.2903 95.202 32.7762 95.6073 33.0013C96.0125 33.2265 92.4103 32.2809 91.7799 32.2809C91.1769 32.2809 94.7348 33.7227 95.5183 33.8482C94.7431 33.8144 90.6747 33.7013 91.3747 33.8569L91.3747 33.8569C92.1853 34.037 95.4272 34.7574 95.067 34.7574C94.7067 34.7574 90.5642 35.5679 91.3747 35.5679C92.1852 35.5679 96.8538 35.7865 97.5292 35.7865C98.0696 35.7865 99.2046 37.7306 99.5648 38.2109L101.691 36.6018Z" fill="white" stroke="#212121" stroke-width="0.659833" stroke-linecap="round" stroke-linejoin="round"/>
<path d="M135.056 45.8094C134.706 49.1604 130.384 51.6756 127.656 47.2395C125.137 43.1432 126.506 41.6668 127.311 42.614C127.874 43.2762 128.076 45.4998 126.848 47.2395C124.46 50.6221 120.795 48.0996 121.795 45.0992" stroke="#212121" stroke-width="0.659833" stroke-linecap="round" stroke-linejoin="round"/>
<path d="M132.426 24.2401C130.674 23.427 125.998 20.6065 125.607 19.8507C126.389 19.1385 132.426 18.4948 136.431 19.4384C139.636 20.1933 139.536 25.58 139.085 28.179C141.126 27.3853 147.011 25.4864 154.222 24.2401C163.236 22.6822 176.502 24.2401 175.992 33.7914C175.481 43.3428 161.875 44.336 155.583 36.8528C149.29 29.3695 141.467 34.1316 137.385 31.5805C134.119 29.5396 133.317 24.768 133.325 22.6374L132.426 24.2401Z" fill="#FFB359" stroke="#FFB359" stroke-width="0.659833" stroke-linecap="round" stroke-linejoin="round"/>
<path d="M134.737 26.4659C135.004 25.4407 133.865 25.4717 133.262 25.6154L132.322 27.6463C133.015 27.68 134.469 27.4911 134.737 26.4659Z" fill="white"/>
<path d="M94.4863 79.7006C96.5022 77.6367 101.398 75.2945 104.854 82.4365C109.174 91.3641 124.725 79.7007 126.453 83.4445C128.181 87.1884 130.197 86.4684 133.364 86.0364C136.532 85.6044 140.132 83.8765 142.292 86.0364C144.02 87.7643 149.924 88.0043 152.66 87.9083" stroke="black" stroke-width="1.3" stroke-linecap="round" stroke-linejoin="round"/>
<path d="M93.2822 92.2279C95.2981 90.164 100.194 87.8217 103.65 94.9638C107.969 103.891 123.521 92.228 125.249 95.9718C126.977 99.7156 128.992 98.9957 132.16 98.5637C135.328 98.1317 138.928 96.4038 141.088 98.5637C142.816 100.292 148.72 100.532 151.455 100.436" stroke="black" stroke-width="1.3" stroke-linecap="round" stroke-linejoin="round"/>
<path d="M91.8174 104.756C93.8333 102.692 98.729 100.35 102.185 107.492C106.505 116.419 122.056 104.756 123.784 108.5C125.512 112.244 127.528 111.524 130.695 111.092C133.863 110.66 137.463 108.932 139.623 111.092C141.351 112.82 147.255 113.06 149.991 112.964" stroke="black" stroke-width="1.3" stroke-linecap="round" stroke-linejoin="round"/>
<path d="M91.8174 104.756C93.8333 102.692 98.729 100.35 102.185 107.492C106.505 116.419 122.056 104.756 123.784 108.5C125.512 112.244 127.528 111.524 130.695 111.092C133.863 110.66 137.463 108.932 139.623 111.092C141.351 112.82 147.255 113.06 149.991 112.964" stroke="black" stroke-width="1.3" stroke-linecap="round" stroke-linejoin="round"/>
<circle cx="93.2829" cy="114.434" r="43.2051" fill="white" stroke="#212121" stroke-width="1.3"/>
<circle cx="93.2821" cy="114.434" r="37.6155" fill="#1B4942" stroke="#212121" stroke-width="1.3"/>
<path d="M64.6195 138.674C64.1676 117.283 66.9419 95.2393 68.3855 86.8912C73.4069 82.0581 87.2157 73.4842 102.28 77.8528C121.11 83.3135 132.408 100.637 130.713 118.714C129.019 136.791 111.507 153.55 92.4881 152.232C77.2733 151.177 67.5695 142.754 64.6195 138.674Z" fill="white" stroke="black" stroke-width="1.3"/>
<path d="M80.5518 113.644C82.5677 111.58 87.4634 109.238 90.9192 116.38C95.239 125.307 110.79 113.644 112.518 117.388C114.246 121.132 116.262 120.412 119.43 119.98C122.598 119.548 127.934 117.82 130.094 119.98" stroke="black" stroke-width="1.3" stroke-linecap="round" stroke-linejoin="round"/>
<path d="M80.7793 96.0232C83.2285 93.5157 89.1765 90.67 93.3751 99.3471C98.6234 110.194 117.517 96.0233 119.617 100.572C121.716 105.12 125.378 104.212 129.226 103.687" stroke="black" stroke-width="1.3" stroke-linecap="round" stroke-linejoin="round"/>
<path d="M80.5518 81.5457C83.1528 78.8827 89.4697 75.8606 93.9286 85.0758C98.0655 93.6254 110.186 87.539 117.071 85.8081" stroke="black" stroke-width="1.3" stroke-linecap="round" stroke-linejoin="round"/>
<rect x="61.2148" y="143.749" width="9.82973" height="69.2162" rx="3.90666" transform="rotate(42.3642 61.2148 143.749)" fill="#212121"/>
</g>
<path d="M80.7625 224.868C101.888 222.476 122.99 219.616 144.044 216.659C148.78 215.994 153.598 215.387 158.216 214.192" stroke="#FFB359" stroke-width="3" stroke-linecap="round" stroke-linejoin="round"/>
<path d="M70.0002 233.869C102.982 230.504 135.739 225.045 168.702 221.445" stroke="#FFB359" stroke-width="3" stroke-linecap="round" stroke-linejoin="round"/>
<defs>
<clipPath id="clip0">
<rect width="240" height="200.837" fill="white" transform="translate(0 0.678528)"/>
</clipPath>
</defs>
</svg>
