<svg width="240" height="240" viewBox="0 0 240 240" fill="none" xmlns="http://www.w3.org/2000/svg">
<g clip-path="url(#clip0)">
<path d="M78.9878 103.319L74.3867 68.2148C124.595 31.9709 174.41 17.9415 196.376 14.6729L83.8436 105.266C82.0198 106.735 79.2921 105.641 78.9878 103.319Z" fill="white" stroke="#212121" stroke-width="1.3"/>
<path d="M80.9688 103.646L90.0779 82.2595" stroke="#212121" stroke-width="1.3" stroke-linecap="round" stroke-linejoin="round"/>
<path d="M205.124 10.966C132.091 24.6874 84.4968 41.4958 50.3343 57.6108C47.766 58.8223 48.2343 62.553 51.0112 63.147L80.6622 69.4904C81.5318 69.6764 82.44 69.4649 83.1438 68.9213C124.523 36.962 175.223 22.1793 193.629 15.0652C160.806 27.8382 127.999 41.4666 89.3479 71.7235C88.1872 72.6321 87.8615 74.2594 88.5841 75.5442L111.868 116.942C112.989 118.936 115.839 119.012 117.089 117.097C138.745 83.9281 183.56 35.5345 206.042 12.6481C206.728 11.9494 206.086 10.7851 205.124 10.966Z" fill="white" stroke="#212121" stroke-width="1.3" stroke-linecap="round" stroke-linejoin="round"/>
<path d="M64.8587 103.041C62.0131 104.51 56.1015 108.053 55.2203 110.476C54.1188 113.506 49.4372 120.39 46.6834 121.216C43.9296 122.042 40.625 125.072 38.9727 128.101M65.9603 117.689C64.8587 119.066 61.6643 122.536 57.6988 125.4C52.7418 128.98 49.1619 135.589 46.6834 140.271C44.7006 144.016 40.7168 145.687 38.9727 146.054M82.2326 117.965C81.4065 119.525 78.8729 123.197 75.348 125.4C70.9419 128.154 67.9127 130.082 66.5358 135.865C65.4343 140.491 62.9558 141.648 61.8543 141.648" stroke="#FFB359" stroke-width="1.3" stroke-linecap="round" stroke-linejoin="round"/>
<rect x="90.7647" y="113.132" width="104.237" height="65.5584" rx="2.35" transform="rotate(-10.8585 90.7647 113.132)" fill="white" stroke="#212121" stroke-width="1.3"/>
<circle cx="118.871" cy="123.993" r="6.40453" fill="#D7D7D7"/>
<path d="M112.102 162.928C113.21 161.359 116.121 158.517 118.897 159.7C122.366 161.179 124.824 159.162 126.848 158.893M130.896 157.817C131.282 157.19 132.487 155.988 134.222 156.203C136.39 156.472 138.559 156.472 140.727 154.993C142.462 153.809 145.209 154.5 146.366 154.993M150.559 153.245C150.944 152.617 152.149 151.416 153.884 151.631C156.053 151.9 158.221 151.9 160.39 150.42C162.125 149.237 164.821 150.967 166.135 148.543M170.944 149.21C171.329 148.582 172.534 147.381 174.269 147.596C176.438 147.865 178.606 147.865 180.775 146.386C182.51 145.202 185.257 145.893 186.413 146.386" stroke="#212121" stroke-width="1.3" stroke-linecap="round" stroke-linejoin="round"/>
<circle cx="109.428" cy="125.802" r="6.40453" fill="#212121"/>
<path d="M109.694 151.03C109.319 148.831 109.051 144.788 110.981 146.204C112.912 147.619 114.253 150.869 114.682 152.317C115.432 150.386 117.448 146.976 119.508 148.778C122.082 151.03 122.886 146.526 125.138 147.652C127.39 148.778 132.056 146.204 134.469 146.204C136.399 146.204 144.925 144.166 148.947 143.147" stroke="#212121" stroke-width="1.3" stroke-linecap="round" stroke-linejoin="round"/>
</g>
<path d="M80.7625 224.189C101.888 221.797 122.99 218.937 144.044 215.981C148.78 215.316 153.598 214.708 158.216 213.513" stroke="#FFB359" stroke-width="3" stroke-linecap="round" stroke-linejoin="round"/>
<path d="M70.0002 233.191C102.982 229.826 135.739 224.367 168.702 220.767" stroke="#FFB359" stroke-width="3" stroke-linecap="round" stroke-linejoin="round"/>
<defs>
<clipPath id="clip0">
<rect width="240" height="200.837" fill="white"/>
</clipPath>
</defs>
</svg>
