<svg width="28" height="28" viewBox="0 0 28 28" fill="none" xmlns="http://www.w3.org/2000/svg">
<circle cx="14" cy="14" r="14" fill="#1B4942"/>
<path fill-rule="evenodd" clip-rule="evenodd" d="M20.6408 8.45072C20.9 8.12765 20.8483 7.6556 20.5252 7.39638C20.2021 7.13715 19.7301 7.18891 19.4709 7.51198C18.0315 9.30579 16.8819 11.3298 15.7986 13.3958C15.4786 14.0059 15.1656 14.6174 14.8527 15.2286C14.2397 16.4259 13.6271 17.6224 12.9639 18.8069C12.535 18.405 12.1039 18.0236 11.6862 17.6539L11.6861 17.6539C11.4289 17.4262 11.1766 17.203 10.9329 16.9821C10.0599 16.1909 9.25511 15.3955 8.55249 14.4211C8.31023 14.0851 7.84147 14.0092 7.50549 14.2514C7.16951 14.4937 7.09354 14.9624 7.33581 15.2984C8.12972 16.3994 9.02504 17.2774 9.92562 18.0936C10.1966 18.3392 10.4647 18.5764 10.7306 18.8117L10.7306 18.8117C11.357 19.366 11.9712 19.9094 12.582 20.5259C12.6313 20.5796 12.6894 20.627 12.7556 20.6657C12.89 20.7444 13.0387 20.7765 13.1832 20.767C13.3573 20.7559 13.5284 20.6843 13.6622 20.552C13.7177 20.4972 13.7629 20.4358 13.7977 20.3704C14.6659 18.8852 15.4481 17.3574 16.2083 15.8727C16.5167 15.2703 16.8216 14.6749 17.127 14.0924C18.2003 12.0456 19.2956 10.1272 20.6408 8.45072Z" fill="white"/>
</svg>
