<svg width="29" height="28" viewBox="0 0 29 28" fill="none" xmlns="http://www.w3.org/2000/svg">
<circle cx="14.6445" cy="14" r="14" fill="#FFB359"/>
<path fill-rule="evenodd" clip-rule="evenodd" d="M10.8432 8.31779C10.6282 7.99181 10.1896 7.9019 9.86359 8.11696C9.53762 8.33203 9.44771 8.77063 9.66277 9.09661C10.9857 11.1018 12.4703 12.7414 14.0001 14.2788C12.4898 15.6495 10.9127 16.9529 8.96459 18.2274C8.63779 18.4412 8.54619 18.8795 8.76 19.2063C8.97381 19.5331 9.41206 19.6247 9.73886 19.4109C11.7679 18.0833 13.4331 16.7034 15.0073 15.274C15.2926 15.5522 15.578 15.8281 15.8632 16.1039L15.8632 16.1039C17.051 17.2527 18.2359 18.3986 19.4042 19.6908C19.6661 19.9805 20.1132 20.003 20.4029 19.7411C20.6926 19.4792 20.7151 19.032 20.4532 18.7423C19.2513 17.413 18.0129 16.2152 16.8116 15.0533L16.8116 15.0533C16.5549 14.8051 16.3 14.5585 16.0475 14.3127C16.5032 13.8852 16.9564 13.4535 17.414 13.0176L17.414 13.0176C18.3531 12.1229 19.3107 11.2106 20.347 10.2815C20.6378 10.0208 20.6622 9.57374 20.4015 9.28296C20.1408 8.99218 19.6937 8.9678 19.4029 9.2285C18.2997 10.2176 17.3077 11.1629 16.3518 12.0737L16.3518 12.0737C15.909 12.4956 15.474 12.9101 15.0393 13.3181C13.5272 11.8008 12.1033 10.2277 10.8432 8.31779Z" fill="#212121"/>
</svg>
