<svg width="348" height="412" viewBox="0 0 348 412" fill="none" xmlns="http://www.w3.org/2000/svg">
<g clip-path="url(#clip0)">
<path fill-rule="evenodd" clip-rule="evenodd" d="M152.685 380.047C153.854 382.486 155.909 384.58 159.144 385.024C163.187 385.579 166.391 385.652 168.828 385.707C172.616 385.793 174.547 385.837 174.881 387.586C176.436 395.728 162.163 394.448 149.629 390.056C147.925 390.163 148.426 392.851 148.83 395.019C149.118 396.564 149.356 397.844 148.714 397.741L141.578 395.728L138.749 379.257C131.832 378.97 124.598 378.817 117.153 378.817C104.893 378.817 93.2074 379.231 82.5618 379.98C83.1193 381.481 84.0723 382.754 85.5609 383.572C94.6988 388.593 100.009 392.044 97.6132 393.722C91.0656 398.307 84.3739 392.036 77.9881 386.052C76.8566 384.992 75.7348 383.94 74.6251 382.96C73.0075 382.454 72.3218 384.45 71.7674 386.064C71.3658 387.233 71.0331 388.202 70.4649 387.873L64.8903 383.459L65.1291 381.611C42.2951 384.348 27.4043 388.839 27.4043 393.915C27.4043 402.254 67.5861 409.013 117.153 409.013C166.72 409.013 206.902 402.254 206.902 393.915C206.902 387.7 184.579 382.362 152.685 380.047Z" fill="#E8F0F6"/>
<path d="M41.5117 392.807C53.9053 390.127 73.7978 385.363 71.1181 386.167C67.7685 387.172 34.3932 395.546 51.4763 395.211C56.2658 395.117 73.7854 391.029 82.3532 389.018M172.397 404.59C165.363 404.59 171.393 401.575 194.17 395.211C216.947 388.847 168.043 401.575 132.537 406.6C105.325 410.451 141.86 401.709 167.199 394.098M90.9723 386.44C105.221 382.677 114.242 380.631 99.7107 386.167C98.0193 386.812 96.299 387.444 94.5659 388.064M85.4772 391.79C67.038 397.501 44.2883 403.514 64.9405 401.402C72.5685 400.622 82.9514 398.126 93.6473 395.058M97.6821 393.114C123.169 384.984 143.856 378.271 135.887 381.478C127.917 384.684 118.376 388.199 108.394 391.79M108.432 391.776C86.9264 399.596 60.3495 409.741 82.9627 406.6C98.0631 404.503 120.984 399.604 141.47 395.144M148.396 393.634C151.48 392.961 153.737 392.411 156.606 391.79M176.052 387.842C185.75 385.959 189.821 385.547 185.126 387.842C182.425 389.163 177.863 390.774 172.397 392.5" stroke="#212121" stroke-width="1.62093" stroke-linecap="round" stroke-linejoin="round"/>
<path d="M109.993 91.0875L105.002 73.3059L113.057 65.3652L130.125 62.2852C134.104 68.7019 136.671 78.1986 135.772 83.8453C134.874 89.4921 131.322 85.257 126.147 86.797C120.972 88.3371 123.965 91.0875 126.147 95.7804C128.329 100.473 139.237 98.3471 146.296 98.9904C153.354 99.6336 158.359 112.592 160.797 120.806C162.748 127.376 164.861 145.36 165.674 153.531C167.471 149.162 170.885 137.064 170.166 123.629C169.447 110.194 162.594 98.8664 159.257 94.8821L167.086 91.0875C169.738 94.9618 176.275 106.33 181.203 120.806C187.363 138.901 180.816 168.476 168.593 172.483C156.37 176.491 151.761 158.858 149.356 149.039C147.433 141.184 145.75 140.022 145.148 140.423C131.362 162.705 130.187 187.245 131.322 196.729H89.4434C81.4283 173.686 85.1404 139.025 85.5564 126.859C85.9723 114.692 93.0434 103.462 96.1629 98.9904C98.6586 95.4133 106.423 92.2313 109.993 91.0875Z" fill="white"/>
<path fill-rule="evenodd" clip-rule="evenodd" d="M170.155 120.973C174.473 120.752 178.273 120.549 181.053 120.394L176.036 107.389C173.826 107.527 169.277 107.879 165.904 108.334L170.155 120.973ZM156.491 110.003C150.732 110.993 143.515 112.043 139.901 111.715C137.091 111.459 134.345 112.037 131.308 112.677C128.296 113.311 124.999 114.005 121.071 114.005C114.76 114.005 86.7174 116.719 73.4851 118.076L70.9404 130.8C76.7084 129.782 89.1603 127.39 92.8247 125.965C96.0755 124.701 101.505 125.231 105.748 125.645C107.484 125.815 109.021 125.965 110.128 125.965C111.526 125.965 112.786 125.522 114.385 124.96C117.154 123.986 120.936 122.657 128.196 122.657C133.849 122.657 148.038 122.053 160.924 121.432L156.491 110.003Z" fill="#1B4942"/>
<path fill-rule="evenodd" clip-rule="evenodd" d="M105.055 134.894C98.4225 135.503 91.3464 136.152 84.5437 136.666L83.498 146.808C87.2847 146.317 88.4579 146.394 89.2214 146.444C90.0375 146.498 90.3853 146.521 92.957 145.784C97.3727 144.52 104.748 145.051 110.512 145.465C112.869 145.634 114.956 145.784 116.461 145.784C118.359 145.784 120.071 145.341 122.243 144.779C126.003 143.806 131.141 142.476 141.002 142.476C142.052 142.476 142.117 142.443 142.201 142.399C142.3 142.348 142.425 142.284 144.232 142.247C144.687 142.238 144.87 141.537 145.051 140.813L145.951 139.237C146.328 139.228 146.467 140.026 146.608 140.833C146.752 141.656 146.897 142.487 147.297 142.476C149.518 142.42 151.626 142.367 153.644 142.316C157.303 142.224 160.671 142.14 163.9 142.053L163.207 131.473C160.808 131.607 158.602 131.648 156.902 131.534C152.95 131.27 148.997 131.678 144.607 132.13C140.549 132.549 136.118 133.006 130.971 133.006C125.643 133.006 115.947 133.895 105.055 134.894ZM170.793 130.851L169.558 141.894C174.142 141.757 178.62 141.604 183.473 141.405L182.203 129.445C182.203 129.445 176.865 130.229 170.793 130.851Z" fill="#1B4942"/>
<path fill-rule="evenodd" clip-rule="evenodd" d="M83.7119 156.234C99.6013 154.877 123.856 153.452 131.434 153.452C134.199 153.452 136.704 153.214 139.031 152.889L135.69 162.222C129.684 162.569 126.135 163.608 123.406 164.407C121.486 164.969 119.972 165.412 118.295 165.412C116.964 165.412 115.119 165.262 113.035 165.093C107.94 164.678 101.42 164.148 97.5164 165.412C95.0354 166.216 93.4039 166.278 91.2112 166.363C89.515 166.428 87.483 166.506 84.4621 166.95L83.7119 156.234ZM153.816 161.614C156.643 161.448 159.564 161.254 162.57 161.055C167.734 160.713 173.149 160.353 178.765 160.092L182.769 148.108C181.173 148.108 177.499 148.646 173.208 149.273C171.301 149.552 169.272 149.848 167.25 150.124C167.025 150.154 166.733 150.817 166.442 151.478C166.15 152.139 165.86 152.8 165.636 152.829C165.461 152.852 165.354 152.24 165.247 151.63C165.141 151.022 165.034 150.416 164.862 150.437C160.569 150.979 156.539 151.351 154.046 151.162C152.768 151.065 151.501 151.088 150.222 151.188L153.816 161.614Z" fill="#1B4942"/>
<path d="M131.908 176.283C124.994 176.283 100.148 177.389 85.6514 178.746L87.2575 190.31C93.5764 189.292 91.1978 189.941 95.2122 188.516C100.23 186.735 109.987 188.516 114.169 188.516C118.351 188.516 119.363 185.92 131.908 185.92V176.283Z" fill="#1B4942"/>
<path d="M103.992 95.4997C105.338 98.7803 111.198 101.685 118.687 100.373C125.079 99.253 126.728 95.9668 125.02 93.8739" stroke="#212121" stroke-width="1.62093" stroke-linecap="round" stroke-linejoin="round"/>
<path d="M117.935 54.9355L118.101 54.1423C118.029 54.1271 117.954 54.1219 117.88 54.127L117.935 54.9355ZM131.842 65.1278L132.547 64.7283C132.544 64.7236 132.542 64.719 132.539 64.7144L131.842 65.1278ZM136.269 79.9055L135.461 79.9677C135.463 79.9975 135.467 80.0271 135.473 80.0565L136.269 79.9055ZM134.488 86.6788L134.72 87.4552L134.488 86.6788ZM123.419 89.5147L124.227 89.5694L123.419 89.5147ZM127.164 96.6488L127.714 96.0535L127.164 96.6488ZM141.044 98.7085L141.163 97.9068L141.044 98.7085ZM159.674 117.166L160.44 116.903L159.674 117.166ZM165.149 155.41L164.342 155.484C164.375 155.845 164.644 156.139 164.999 156.206C165.355 156.273 165.712 156.096 165.874 155.773L165.149 155.41ZM170.577 134.035L169.768 133.984L170.577 134.035ZM159.288 94.8376L158.98 94.088C158.746 94.1841 158.571 94.3839 158.505 94.6282C158.44 94.8725 158.492 95.1333 158.647 95.3334L159.288 94.8376ZM167.295 91.5473L167.943 91.0605C167.722 90.7655 167.329 90.6574 166.987 90.7977L167.295 91.5473ZM183.095 143.411L182.286 143.365L183.095 143.411ZM173.729 168.525L174.373 169.017L173.729 168.525ZM156.093 167.036L156.766 166.584L156.093 167.036ZM146.046 139.395L146.807 139.116C146.702 138.831 146.447 138.628 146.146 138.591C145.844 138.553 145.547 138.687 145.376 138.938L146.046 139.395ZM131.256 184.481L132.066 184.482L132.066 184.476L131.256 184.481ZM131.22 201.364L131.142 202.171C131.37 202.192 131.595 202.117 131.764 201.964C131.933 201.811 132.03 201.594 132.03 201.365L131.22 201.364ZM89.2858 197.336L88.5119 197.577C88.6089 197.889 88.8834 198.112 89.2083 198.143L89.2858 197.336ZM84.4546 138.296L85.2625 138.36L84.4546 138.296ZM111.249 90.0125L110.457 90.1835L111.249 90.0125ZM93.2702 103.434L92.5626 103.039H92.5626L93.2702 103.434ZM117.769 55.7288C120.806 56.3652 127.514 59.4203 131.145 65.5413L132.539 64.7144C128.618 58.1045 121.458 54.8457 118.101 54.1423L117.769 55.7288ZM135.473 80.0565C135.583 80.6373 135.695 82.0746 135.511 83.4267C135.42 84.1015 135.261 84.7015 135.029 85.1498C134.799 85.5929 134.537 85.8179 134.255 85.9024L134.72 87.4552C135.561 87.2034 136.114 86.5789 136.468 85.8956C136.819 85.2175 137.013 84.4141 137.117 83.6448C137.326 82.109 137.206 80.4958 137.065 79.7545L135.473 80.0565ZM134.255 85.9024C133.693 86.0706 132.795 86.102 131.627 86.0828C130.516 86.0646 129.195 86.0027 127.977 86.0464C126.765 86.0898 125.513 86.2383 124.524 86.7075C124.018 86.9479 123.555 87.284 123.207 87.7553C122.856 88.2316 122.654 88.8032 122.61 89.4601L124.227 89.5694C124.253 89.1891 124.362 88.9206 124.512 88.7173C124.666 88.509 124.894 88.3262 125.219 88.1719C125.894 87.8519 126.865 87.7082 128.035 87.6663C129.198 87.6246 130.417 87.6841 131.6 87.7035C132.727 87.722 133.879 87.7073 134.72 87.4552L134.255 85.9024ZM122.61 89.4601C122.571 90.0322 122.691 90.6826 122.89 91.3287C123.091 91.9861 123.391 92.6911 123.755 93.39C124.481 94.7811 125.499 96.2133 126.614 97.244L127.714 96.0535C126.766 95.1772 125.853 93.9072 125.192 92.6404C124.864 92.0104 124.606 91.3976 124.439 90.8531C124.269 90.2974 124.207 89.8621 124.227 89.5694L122.61 89.4601ZM126.614 97.244C128.506 98.9919 130.95 99.3126 133.392 99.3492C135.925 99.387 138.401 99.1356 140.925 99.5102L141.163 97.9068C138.506 97.5125 135.699 97.7625 133.416 97.7284C131.043 97.6929 129.137 97.3683 127.714 96.0535L126.614 97.244ZM140.925 99.5102C143.736 99.9273 146.354 99.5839 149.319 101.509C152.252 103.412 155.538 107.623 158.907 117.429L160.44 116.903C157.033 106.984 153.594 102.351 150.202 100.149C146.842 97.9684 143.534 98.2586 141.163 97.9068L140.925 99.5102ZM158.907 117.429C163.274 130.14 163.239 143.55 164.342 155.484L165.956 155.335C164.872 143.607 164.891 129.857 160.44 116.903L158.907 117.429ZM165.149 155.41C165.874 155.773 165.874 155.773 165.874 155.773C165.874 155.772 165.874 155.772 165.874 155.772C165.874 155.771 165.875 155.771 165.875 155.77C165.876 155.768 165.877 155.766 165.878 155.764C165.881 155.758 165.885 155.751 165.89 155.741C165.899 155.721 165.914 155.692 165.932 155.655C165.968 155.58 166.02 155.47 166.087 155.326C166.22 155.04 166.409 154.62 166.638 154.079C167.096 152.998 167.713 151.434 168.352 149.491C169.63 145.607 171.006 140.193 171.386 134.085L169.768 133.984C169.399 139.916 168.061 145.19 166.813 148.984C166.189 150.879 165.589 152.401 165.146 153.447C164.924 153.97 164.742 154.373 164.617 154.644C164.554 154.779 164.505 154.882 164.472 154.949C164.456 154.983 164.443 155.008 164.435 155.025C164.431 155.033 164.429 155.039 164.427 155.042C164.426 155.044 164.425 155.046 164.425 155.046C164.425 155.047 164.425 155.047 164.425 155.047C164.424 155.047 164.425 155.047 164.425 155.047C164.425 155.047 164.425 155.047 165.149 155.41ZM171.386 134.085C172.103 122.54 169.241 112.611 166.207 105.578C164.69 102.059 163.127 99.2591 161.941 97.3353C161.348 96.3731 160.849 95.6296 160.496 95.1242C160.319 94.8715 160.18 94.6784 160.083 94.5472C160.035 94.4816 159.997 94.4315 159.971 94.3971C159.958 94.38 159.948 94.3668 159.941 94.3576C159.938 94.353 159.935 94.3493 159.933 94.3467C159.932 94.3454 159.931 94.3444 159.931 94.3436C159.93 94.3432 159.93 94.3427 159.93 94.3425C159.93 94.3422 159.929 94.3419 159.288 94.8376C158.647 95.3334 158.647 95.3332 158.647 95.3331C158.647 95.3332 158.647 95.3331 158.647 95.3332C158.647 95.3334 158.647 95.3339 158.648 95.3346C158.649 95.3359 158.651 95.3383 158.653 95.3417C158.659 95.3484 158.667 95.3592 158.678 95.3738C158.7 95.403 158.733 95.448 158.778 95.5083C158.867 95.6288 158.998 95.8109 159.167 96.0519C159.503 96.5341 159.985 97.2519 160.561 98.1859C161.713 100.054 163.237 102.784 164.719 106.22C167.683 113.093 170.465 122.763 169.768 133.984L171.386 134.085ZM159.596 95.5873L167.603 92.297L166.987 90.7977L158.98 94.088L159.596 95.5873ZM166.647 92.0342C173.634 101.334 183.555 121.032 182.286 143.365L183.904 143.457C185.201 120.632 175.083 100.564 167.943 91.0605L166.647 92.0342ZM182.286 143.365C181.816 151.634 177.891 161.74 173.085 168.033L174.373 169.017C179.367 162.478 183.415 152.064 183.904 143.457L182.286 143.365ZM173.085 168.033C172.161 169.244 169.858 171.619 166.939 172.327C165.51 172.673 163.924 172.624 162.236 171.825C160.535 171.019 158.674 169.425 156.766 166.584L155.42 167.488C157.438 170.492 159.503 172.324 161.542 173.29C163.595 174.261 165.565 174.328 167.321 173.902C170.775 173.064 173.364 170.338 174.373 169.017L173.085 168.033ZM156.766 166.584C156.072 165.55 155.291 163.869 154.455 161.74C153.624 159.625 152.759 157.123 151.886 154.481C150.147 149.221 148.369 143.382 146.807 139.116L145.284 139.674C146.836 143.91 148.587 149.668 150.347 154.99C151.223 157.64 152.099 160.176 152.946 162.332C153.787 164.474 154.621 166.297 155.42 167.488L156.766 166.584ZM145.376 138.938C140.363 146.291 130.347 165.676 130.445 184.485L132.066 184.476C131.97 166.137 141.787 147.078 146.715 139.852L145.376 138.938ZM130.445 184.479L130.409 201.362L132.03 201.365L132.066 184.482L130.445 184.479ZM131.297 200.557L89.3632 196.529L89.2083 198.143L131.142 202.171L131.297 200.557ZM90.0596 197.095C86.8128 186.661 83.4898 160.621 85.2625 138.36L83.6467 138.231C81.8604 160.663 85.1939 186.914 88.5119 197.577L90.0596 197.095ZM112.041 89.8415C111.128 85.6114 109.363 81.3958 107.696 77.4854C106.012 73.5341 104.447 69.9322 103.823 66.8018C103.204 63.6983 103.55 61.2677 105.446 59.4609C107.414 57.5852 111.215 56.2085 117.991 55.7441L117.88 54.127C111.025 54.5968 106.728 56.0004 104.328 58.2874C101.855 60.6434 101.563 63.758 102.233 67.1187C102.898 70.4524 104.548 74.2338 106.205 78.121C107.88 82.0492 109.581 86.1276 110.457 90.1835L112.041 89.8415ZM137.077 79.8433C136.865 77.088 135.672 70.2428 132.547 64.7283L131.137 65.5274C134.103 70.7628 135.26 77.3503 135.461 79.9677L137.077 79.8433ZM85.2625 138.36C86.0144 128.918 86.7563 122.874 88.0246 117.898C89.2875 112.944 91.0799 109.019 93.9779 103.829L92.5626 103.039C89.6279 108.295 87.7646 112.356 86.4539 117.498C85.1486 122.619 84.3991 128.783 83.6467 138.231L85.2625 138.36ZM93.9779 103.829C97.5638 97.4069 102.139 95.5742 105.722 94.6344C106.644 94.3926 107.467 94.2179 108.256 94.0275C109.017 93.844 109.744 93.6464 110.346 93.3691C110.954 93.0889 111.519 92.689 111.853 92.0515C112.189 91.4099 112.219 90.6644 112.041 89.8415L110.457 90.1835C110.586 90.7834 110.518 91.1073 110.417 91.2997C110.314 91.4964 110.105 91.6953 109.667 91.897C109.224 92.1015 108.634 92.2689 107.876 92.4518C107.146 92.6277 106.247 92.8209 105.31 93.0665C101.46 94.0765 96.4321 96.1088 92.5626 103.039L93.9779 103.829Z" fill="#212121"/>
<path d="M152.325 82.615C152.325 84.7026 157.487 92.3398 159.378 94.798L167.207 91.6212L165.618 87.9906C166.715 87.5367 169.158 86.0164 170.156 83.5657C171.155 81.1151 169.74 81.0319 168.908 81.2966C169.181 78.4828 167.207 78.5358 166.185 78.914C166.095 77.2802 164.105 77.4769 163.122 77.7794C163.122 75.8733 160.626 76.607 159.378 77.2121C161.458 73.6193 165.505 66.2748 165.051 65.6395C164.484 64.8453 152.325 80.0055 152.325 82.615Z" stroke="#212121" stroke-width="1.61733" stroke-linecap="round" stroke-linejoin="round"/>
<path d="M121.047 67.9633C126.461 65.4496 136.12 58.8785 137.328 56.5419C134.91 54.34 118.267 48.9904 104.334 54.3928C94.844 58.0723 94.0885 77.5859 93.7114 80.1769C92.3925 89.239 93.6693 101.859 71.5553 97.078C58.765 94.3126 35.2677 86.2019 21.0048 89.4933C4.42056 93.3204 -1.72454 109.676 4.02119 122.7C11.6258 139.937 35.7516 145.479 57.7603 141.711C88.3207 136.48 105.538 113.508 113.049 99.321C118.619 88.7993 118.29 69.5956 118.267 63.0083L121.047 67.9633Z" fill="#212121" stroke="#212121" stroke-width="1.62093" stroke-linecap="round" stroke-linejoin="round"/>
<path d="M116.526 73.5483C116.769 70.2817 120.072 71.5114 121.693 72.5347L122.411 79.4155C120.349 78.8209 116.284 76.815 116.526 73.5483Z" fill="white"/>
<path d="M132.133 197.364C142.45 208.971 161.467 228.484 172.347 262.024C176.844 275.89 170.526 329.938 164.594 344.383L134.673 344.383L133.206 309.188L106.542 344.383L71.5076 344.383L102.344 278.556C102.344 278.556 91.6356 246.085 90.553 230.567C89.4703 215.049 89.069 197.364 89.069 197.364L132.133 197.364Z" fill="#212121"/>
<path d="M133.206 309.188L134.673 344.383L164.594 344.383C170.526 329.938 176.844 275.89 172.347 262.024C161.467 228.484 142.45 208.971 132.133 197.364L89.069 197.364C89.069 197.364 89.4703 215.049 90.553 230.567C91.6356 246.085 102.344 278.556 102.344 278.556L71.5076 344.383L106.542 344.383L133.206 309.188ZM133.206 309.188L119.02 240.85C120.273 254.507 136.889 305.279 133.206 309.188Z" stroke="#212121" stroke-width="1.62093" stroke-linecap="round" stroke-linejoin="round"/>
<path d="M86.9796 341.518C68.2303 357.373 63.2356 379.327 66.1909 383.416C67.1844 384.791 68.7431 386.026 70.6404 387.144M84.6856 368.095C79.9823 374.225 81.9753 383.249 92.3422 387.489C102.709 391.729 96.7193 396.671 89.0579 394.186C84.7757 392.798 78.0456 382.97 73.3951 380.933M70.6404 387.144C71.8548 387.86 71.9628 380.305 73.3951 380.933M70.6404 387.144L73.3951 380.933" stroke="#212121" stroke-width="1.62093" stroke-linecap="round" stroke-linejoin="round"/>
<path d="M139.063 348.801C138.811 377.393 138.308 394.382 143.025 396.44C144.611 397.131 146.623 397.393 148.873 397.368M151.415 372.774C150.435 380.787 156.852 387.771 168.181 385.964C179.509 384.156 176.781 391.802 168.745 393.718C164.253 394.789 153.245 389.643 148.093 390.334M148.873 397.368C150.313 397.352 146.506 390.546 148.093 390.334M148.873 397.368L148.093 390.334" stroke="#212121" stroke-width="1.62093" stroke-linecap="round" stroke-linejoin="round"/>
<path d="M119.029 271.905C113.277 273.91 102.086 278.128 103.341 278.965C104.596 279.801 112.405 281.579 116.153 282.363" stroke="white" stroke-width="1.62093" stroke-linecap="round" stroke-linejoin="round"/>
<path d="M150.098 272.106C145.092 273.677 135.646 277.187 137.916 278.66C140.186 280.134 144.813 281.989 146.843 282.732" stroke="white" stroke-width="1.62093" stroke-linecap="round" stroke-linejoin="round"/>
<path d="M111.136 231.366L121.944 249.014C125.46 255.44 132.866 270.948 134.362 281.569L132.48 341.461" stroke="white" stroke-width="1.62093" stroke-linecap="round" stroke-linejoin="round"/>
<path d="M65.3983 139.199C67.1055 139.705 73.8028 138.988 76.938 138.566L71.3262 146.945H66.5839C65.3983 146.945 64.0546 146.47 62.79 146.945C61.5253 147.419 57.8105 148.13 56.862 147.577C56.1032 147.134 54.2274 147.392 53.3843 147.577L56.862 141.175C58.9961 140.305 63.691 138.693 65.3983 139.199Z" fill="#1B4942"/>
<path d="M50.2227 154.69L45.4803 163.543C46.5078 162.515 49.1161 163.543 50.6969 163.543C52.2777 163.543 55.0441 163.069 56.862 163.543C58.3163 163.922 60.1026 164.07 60.814 164.096L65.3983 155.876C64.4498 155.37 54.886 154.875 50.2227 154.69Z" fill="#1B4942"/>
<path d="M48.7209 179.825C46.5711 179.825 44.7163 180.721 44.0576 181.169L51.8035 188.677C53.0418 188.388 55.7871 187.808 56.862 187.808C58.2057 187.808 61.9205 187.887 62.79 187.097C63.4855 186.464 66.8737 186.306 68.4808 186.306L59.6284 179.035C58.3374 179.008 55.5025 178.971 54.4908 179.035C53.2262 179.114 51.4083 179.825 48.7209 179.825Z" fill="#1B4942"/>
<path d="M40.9116 174.838C41.6175 168.211 61.3376 132.129 64.1256 129.403L85.033 126.3L83.229 131.982C78.2379 134.014 58.3489 166.398 56.7629 171.715C55.1768 177.032 66.1609 185.347 70.0851 187.401L66.9762 198.808C59.9828 196.588 40.2058 181.464 40.9116 174.838Z" stroke="#212121" stroke-width="1.62"/>
<path d="M80.7255 192.976C77.9178 190.909 72.8508 188.598 69.8584 187.417L67.3779 198.875L72.5752 203.009C72.2602 208.797 72.0318 220.798 73.6383 222.499C75.2447 224.199 75.5676 212.262 75.5282 206.08C77.9851 226.302 79.308 224.507 79.6624 221.081L78.5993 204.662C79.9774 210.214 82.9225 221.128 83.6785 220.372C84.4344 219.616 82.0248 207.615 80.7255 201.709C86.3007 214.466 87.3795 213.876 87.222 211.986C86.1407 208.16 84.1431 201.704 82.5086 197.382" stroke="#212121" stroke-width="1.62" stroke-linecap="round" stroke-linejoin="round"/>
<path d="M77.2288 190.798C80.1438 192.481 86.0023 196.213 86.1164 197.67C86.2306 199.126 78.3249 195.587 74.3578 193.636" stroke="#212121" stroke-width="1.62" stroke-linecap="round" stroke-linejoin="round"/>
<path fill-rule="evenodd" clip-rule="evenodd" d="M239.343 79.8947L199.325 59.5252C199.218 59.4704 199.121 59.3965 199.039 59.3071L180.731 39.188C180.118 38.515 180.65 37.4402 181.557 37.5187L207.965 39.8068C208.087 39.8174 208.207 39.8504 208.317 39.9043L237.362 54.072L239.343 79.8947ZM256.69 88.7249L281.956 101.586L282.793 101.975C283.255 102.189 283.804 102.023 284.069 101.588L287.62 95.7502C287.902 95.2859 287.762 94.6811 287.304 94.3882L277.794 88.3024C276.751 87.6346 277.613 86.0401 278.743 86.5479L289.494 91.3792C289.949 91.5838 290.486 91.4213 290.751 90.9985L295.388 83.6065C295.704 83.1031 295.513 82.4369 294.979 82.1763L253.142 61.7688L256.69 88.7249Z" fill="white"/>
<path d="M199.325 59.5252L198.958 60.2471L198.958 60.2471L199.325 59.5252ZM239.343 79.8947L238.975 80.6166C239.236 80.7494 239.549 80.731 239.792 80.5685C240.036 80.406 240.173 80.1247 240.15 79.8327L239.343 79.8947ZM199.039 59.3071L198.44 59.8523L198.44 59.8523L199.039 59.3071ZM180.731 39.188L181.33 38.6429L180.731 39.188ZM181.557 37.5187L181.487 38.3257L181.487 38.3257L181.557 37.5187ZM207.965 39.8068L207.895 40.6138L207.895 40.6138L207.965 39.8068ZM208.317 39.9043L207.962 40.6323L207.962 40.6323L208.317 39.9043ZM237.362 54.072L238.17 54.01C238.148 53.7234 237.976 53.47 237.717 53.344L237.362 54.072ZM256.69 88.7249L255.887 88.8306C255.922 89.0952 256.085 89.3257 256.323 89.4468L256.69 88.7249ZM281.956 101.586L281.589 102.307C281.597 102.312 281.606 102.316 281.615 102.32L281.956 101.586ZM282.793 101.975L283.134 101.24L283.134 101.24L282.793 101.975ZM284.069 101.588L284.761 102.009V102.009L284.069 101.588ZM287.62 95.7502L288.312 96.1711H288.312L287.62 95.7502ZM287.304 94.3882L286.868 95.0704L286.868 95.0705L287.304 94.3882ZM277.794 88.3024L277.358 88.9846L277.794 88.3024ZM278.743 86.5479L279.075 85.8091L278.743 86.5479ZM289.494 91.3792L289.826 90.6404V90.6404L289.494 91.3792ZM290.751 90.9985L290.065 90.5681V90.5681L290.751 90.9985ZM295.388 83.6065L296.074 84.0369L295.388 83.6065ZM294.979 82.1763L295.334 81.4483L294.979 82.1763ZM253.142 61.7688L253.497 61.0408C253.229 60.91 252.91 60.9372 252.668 61.1114C252.426 61.2857 252.3 61.5788 252.338 61.8745L253.142 61.7688ZM198.958 60.2471L238.975 80.6166L239.71 79.1728L199.693 58.8034L198.958 60.2471ZM198.44 59.8523C198.588 60.0141 198.763 60.1478 198.958 60.2471L199.693 58.8034C199.672 58.7929 199.654 58.7789 199.639 58.7619L198.44 59.8523ZM180.132 39.7332L198.44 59.8523L199.639 58.7619L181.33 38.6429L180.132 39.7332ZM181.627 36.7117C179.986 36.5696 179.023 38.515 180.132 39.7332L181.33 38.6429C181.292 38.6017 181.282 38.5675 181.279 38.5406C181.275 38.5088 181.281 38.4698 181.3 38.4307C181.319 38.3917 181.347 38.3635 181.375 38.3471C181.398 38.3332 181.431 38.3209 181.487 38.3257L181.627 36.7117ZM208.035 38.9998L181.627 36.7117L181.487 38.3257L207.895 40.6138L208.035 38.9998ZM208.672 39.1763C208.472 39.0788 208.256 39.019 208.035 38.9998L207.895 40.6138C207.918 40.6158 207.941 40.6221 207.962 40.6323L208.672 39.1763ZM237.717 53.344L208.672 39.1763L207.962 40.6323L237.007 54.8L237.717 53.344ZM240.15 79.8327L238.17 54.01L236.555 54.1339L238.535 79.9566L240.15 79.8327ZM256.323 89.4468L281.589 102.307L282.324 100.864L257.058 88.003L256.323 89.4468ZM281.615 102.32L282.451 102.709L283.134 101.24L282.298 100.851L281.615 102.32ZM282.451 102.709C283.287 103.098 284.282 102.796 284.761 102.009L283.377 101.167C283.327 101.249 283.222 101.281 283.134 101.24L282.451 102.709ZM284.761 102.009L288.312 96.1711L286.928 95.3292L283.377 101.167L284.761 102.009ZM288.312 96.1711C288.823 95.3308 288.57 94.2361 287.741 93.7059L286.868 95.0705C286.955 95.1261 286.981 95.241 286.928 95.3292L288.312 96.1711ZM287.741 93.7059L278.231 87.6201L277.358 88.9846L286.868 95.0704L287.741 93.7059ZM278.231 87.6201C278.185 87.5905 278.164 87.5656 278.154 87.552C278.145 87.5383 278.14 87.5258 278.137 87.5126C278.131 87.483 278.134 87.4298 278.166 87.3697C278.199 87.3095 278.242 87.2781 278.27 87.267C278.282 87.2621 278.296 87.2593 278.312 87.2598C278.329 87.2603 278.361 87.2643 278.411 87.2868L279.075 85.8091C277.03 84.89 275.469 87.776 277.358 88.9846L278.231 87.6201ZM278.411 87.2868L289.162 92.118L289.826 90.6404L279.075 85.8091L278.411 87.2868ZM289.162 92.118C289.986 92.4884 290.957 92.1943 291.437 91.4289L290.065 90.5681C290.014 90.6484 289.913 90.6793 289.826 90.6404L289.162 92.118ZM291.437 91.4289L296.074 84.0369L294.702 83.1761L290.065 90.5681L291.437 91.4289ZM296.074 84.0369C296.646 83.1257 296.301 81.9199 295.334 81.4483L294.624 82.9044C294.726 82.9539 294.762 83.0804 294.702 83.1761L296.074 84.0369ZM295.334 81.4483L253.497 61.0408L252.786 62.4968L294.624 82.9044L295.334 81.4483ZM252.338 61.8745L255.887 88.8306L257.493 88.6192L253.945 61.6631L252.338 61.8745Z" fill="#212121"/>
<path d="M196.837 48.6943C198.467 49.2831 202.299 51.1127 204.581 53.7214C207.434 56.9822 212.19 58.6126 214.5 59.6995C216.809 60.7864 222.516 63.7755 224.282 65.1341C225.695 66.2211 232.841 69.3913 236.238 70.8405M256.346 70.8405C258.475 71.5199 263.058 73.2861 264.362 74.9165M271.563 79.4001C273.955 80.161 277.632 81.8004 279.172 82.525" stroke="#212121" stroke-width="1.62" stroke-linecap="round" stroke-linejoin="round"/>
<ellipse cx="261.529" cy="335.401" rx="73.0365" ry="12.2865" fill="#E8F0F6"/>
<path d="M218.015 332.785C226.306 330.233 240.037 325.753 236.976 328.24C233.149 331.35 220.789 336.612 230.117 334.698C239.445 332.785 252.713 330.39 246.729 332.785C241.361 334.933 220.805 349.228 255.479 336.223C253.965 329.679 250.587 311.118 249.184 289.228C247.43 261.865 249.184 229.241 246.729 207.842C244.273 186.443 246.729 185.04 246.729 173.113C246.729 161.185 243.221 136.278 242.87 124.351C242.519 112.424 235.152 34.195 235.854 24.0218C236.555 13.8485 242.89 15.9533 249.184 15.6025C255.479 15.2517 251.991 38.7554 251.991 47.8763C251.991 56.9971 258.656 102.601 258.656 112.424C258.656 122.246 263.216 172.06 262.866 189.951C262.515 207.842 262.866 233.1 262.866 248.535C262.866 263.97 264.185 318.43 267.693 328.24C272.7 326.908 287.033 323.943 283.62 326.413C279.8 329.178 253.757 342.831 262.866 341.874C271.974 340.917 309.028 326.413 297.841 332.785C287.516 338.666 277.954 344.266 295.654 339.482" stroke="#212121" stroke-width="1.62" stroke-linecap="round" stroke-linejoin="round"/>
<path d="M239.47 33.4795C240.22 40.8652 241.789 56.433 242.066 59.6181C242.343 62.8032 243.336 84.2564 243.797 94.5849M247.606 50.9629C247.202 54.1942 246.636 61.3491 247.606 64.1188M249.337 70.8698C249.798 73.4086 250.721 78.9364 250.721 80.7367M253.145 124.012C253.607 128.802 254.53 139.765 254.53 145.304C254.53 150.843 255.222 157.537 255.568 160.191M250.721 195.015C251.161 202.723 252.04 219.066 252.04 222.777M252.04 231.152C252.04 232.526 252.04 236.28 252.04 240.299M252.04 247.643C252.04 249.92 252.168 255.863 252.684 261.429C253.328 268.387 254.488 287.971 254.874 295.186C255.261 302.401 254.745 310.26 256.163 316.96M257.193 192.113C257.537 192.886 258.018 195.385 257.193 199.199M257.193 205.383C256.85 210.451 256.369 221.824 257.193 226.771C258.224 232.955 258.997 246.87 258.997 250.478M260.414 298.793C260.801 301.198 261.548 307.348 261.445 312.708C261.342 318.068 262.519 325.85 263.12 329.071L270.206 327.654" stroke="#212121" stroke-width="1.62" stroke-linecap="round" stroke-linejoin="round"/>
<path d="M237.909 20.3525C238.922 21.0007 242.747 21.5923 249.942 18.7725" stroke="#212121" stroke-width="1.62" stroke-linecap="round" stroke-linejoin="round"/>
<path d="M299.774 73.9426L202.199 110.853L201.138 111.298C200.669 111.495 200.422 112.013 200.566 112.502L202.8 120.1C202.953 120.621 203.495 120.925 204.02 120.784L218.04 117.006C219.236 116.683 219.835 118.394 218.698 118.888L204.883 124.895C204.426 125.094 204.185 125.6 204.319 126.081L207.025 135.774C207.185 136.346 207.805 136.654 208.358 136.434L309.29 96.2781C309.404 96.2327 309.509 96.1666 309.599 96.0833L331.748 75.6123C332.417 74.9946 331.98 73.8779 331.07 73.8779H300.127C300.007 73.8779 299.887 73.8998 299.774 73.9426Z" fill="white" stroke="#212121" stroke-width="1.62" stroke-linecap="round" stroke-linejoin="round"/>
<path d="M290.706 33.6065L186.384 33.3307L185.235 33.3685C184.726 33.3853 184.311 33.782 184.271 34.2898L183.651 42.1853C183.609 42.7271 184.007 43.2036 184.547 43.2584L198.993 44.7235C200.226 44.8485 200.176 46.6606 198.938 46.7174L183.89 47.4078C183.391 47.4306 182.985 47.8177 182.94 48.3148L182.015 58.3357C181.96 58.9275 182.43 59.436 183.025 59.4275L291.641 57.8669C291.764 57.8651 291.885 57.8407 291.999 57.795L319.988 46.5586C320.832 46.2195 320.822 45.0204 319.972 44.6962L291.06 33.6721C290.947 33.629 290.827 33.6068 290.706 33.6065Z" fill="#1B4942" stroke="#212121" stroke-width="1.62" stroke-linecap="round" stroke-linejoin="round"/>
<path d="M231.464 52.0721C230.871 52.0721 230.39 51.5909 230.39 50.9973V40.9067C230.39 40.3623 230.831 39.921 231.375 39.921C231.717 39.921 232.034 40.0978 232.214 40.3884L236.6 47.4838L240.995 40.3879C241.175 40.0976 241.492 39.921 241.834 39.921C242.378 39.921 242.82 40.3625 242.82 40.9071V50.9905C242.82 51.5878 242.336 52.0721 241.738 52.0721C241.141 52.0721 240.657 51.5878 240.657 50.9905V44.675L237.607 49.5744C237.393 49.918 237.017 50.1269 236.613 50.1269C236.209 50.1269 235.834 49.919 235.619 49.5767L232.509 44.6052L232.539 50.9923C232.542 51.5879 232.06 52.0721 231.464 52.0721Z" fill="white"/>
<path d="M246.021 49.1761C245.457 48.2049 245.175 47.1465 245.175 46.0009C245.175 44.8553 245.457 43.7969 246.021 42.8258C246.585 41.8546 247.353 41.087 248.324 40.5229C249.295 39.9588 250.354 39.6768 251.499 39.6768C252.645 39.6768 253.703 39.9588 254.674 40.5229C255.646 41.087 256.413 41.8546 256.977 42.8258C257.541 43.7969 257.823 44.8553 257.823 46.0009C257.823 46.9663 257.623 47.8705 257.222 48.7138C256.82 49.5512 256.265 50.2665 255.555 50.8596L256.947 52.5296C257.315 52.9715 257.271 53.6248 256.846 54.0123C256.394 54.4243 255.69 54.3773 255.297 53.909L253.654 51.95C252.979 52.2 252.261 52.3251 251.499 52.3251C250.354 52.3251 249.295 52.043 248.324 51.4789C247.353 50.9149 246.585 50.1472 246.021 49.1761ZM247.897 43.8376C247.536 44.4947 247.356 45.2158 247.356 46.0009C247.356 46.786 247.536 47.51 247.897 48.1729C248.257 48.8301 248.754 49.3534 249.388 49.7431C250.028 50.1269 250.732 50.3188 251.499 50.3188C252.273 50.3188 252.979 50.1269 253.619 49.7431C254.259 49.3534 254.759 48.8301 255.119 48.1729C255.48 47.51 255.66 46.786 255.66 46.0009C255.66 45.2158 255.48 44.4947 255.119 43.8376C254.759 43.1747 254.259 42.6484 253.619 42.2588C252.979 41.8691 252.273 41.6743 251.499 41.6743C250.732 41.6743 250.028 41.8691 249.388 42.2588C248.754 42.6484 248.257 43.1747 247.897 43.8376Z" fill="white"/>
<path d="M259.42 51.1475C259.42 50.7986 259.542 50.5078 259.786 50.2752C260.03 50.0426 260.33 49.9263 260.685 49.9263C261.039 49.9263 261.342 50.0455 261.592 50.2839C261.842 50.5165 261.967 50.8044 261.967 51.1475C261.967 51.5022 261.842 51.7959 261.592 52.0285C261.342 52.2611 261.039 52.3774 260.685 52.3774C260.33 52.3774 260.03 52.2611 259.786 52.0285C259.542 51.7959 259.42 51.5022 259.42 51.1475Z" fill="white"/>
<path d="M224.46 115.91C225.828 114.87 229.091 112.79 231.193 112.79C233.82 112.79 235.463 110.819 237.926 110.162C239.896 109.637 242.579 108.849 243.673 108.52M292.282 81.7526C293.979 80.6578 298.227 78.4025 301.642 78.1398C305.912 77.8113 305.409 76.6556 307.938 76.4659C310.467 76.2763 314.766 75.0118 316.473 74.0635M283.471 98.5938C285.178 98.2566 289.717 96.8109 294.219 93.7256C299.845 89.8691 301.995 91.4496 306.041 89.1736C309.278 87.3528 311.183 87.1084 311.731 87.2137" stroke="#212121" stroke-width="1.62" stroke-linecap="round" stroke-linejoin="round"/>
<path d="M295.365 180.96L199.388 140.073L198.315 139.66C197.84 139.477 197.303 139.681 197.068 140.133L193.341 147.321C193.126 147.737 193.227 148.246 193.585 148.547L197.188 151.577C198.012 152.27 197.31 153.597 196.274 153.305L191.564 151.982C191.112 151.855 190.633 152.059 190.412 152.472L185.625 161.402C185.344 161.925 185.579 162.577 186.13 162.801L286.776 203.669C286.89 203.715 287.011 203.74 287.134 203.742L317.289 204.295C318.199 204.311 318.656 203.203 317.999 202.573L295.665 181.159C295.577 181.075 295.476 181.008 295.365 180.96Z" fill="white" stroke="#212121" stroke-width="1.62" stroke-linecap="round" stroke-linejoin="round"/>
<path d="M188.456 157.361C189.52 157.548 192.03 158.247 193.561 159.552C195.475 161.183 198.24 160.899 200.013 162.033C201.431 162.941 204.479 164.066 205.826 164.515M211.498 155.085C214.168 155.062 220.445 155.922 224.188 159.552C228.868 164.089 234.468 163.309 236.595 165.224C238.297 166.755 241.227 167.469 242.48 167.634M266.13 185.935C269.234 186.285 276.072 187.404 278.59 189.083C281.738 191.182 285.804 192.231 288.558 193.149C291.313 194.068 293.28 196.822 294.33 196.953C295.169 197.058 304.648 201.019 309.282 202.987L310.856 204.561" stroke="#212121" stroke-width="1.62" stroke-linecap="round" stroke-linejoin="round"/>
<path d="M54.2988 24.1434C51.7225 20.2275 48.6584 10.9889 57.0124 5.36131C67.4549 -1.67311 76.4931 4.94476 73.6076 21.5525C70.7222 38.1602 76.3731 40.0788 78.4594 41.0373" stroke="#FFB359" stroke-width="3" stroke-linecap="round" stroke-linejoin="round"/>
<circle cx="88.5128" cy="46.9084" r="1.35491" transform="rotate(-13.9825 88.5128 46.9084)" fill="#FFB359" stroke="#FFB359"/>
<path d="M96.7273 14.3978C97.0776 12.731 98.6758 9.57589 102.266 10.2897C106.753 11.182 107.36 15.2069 102.338 18.7141C97.3166 22.2212 98.2684 24.1697 98.5552 24.9531" stroke="#FFB359" stroke-width="3" stroke-linecap="round" stroke-linejoin="round"/>
<circle cx="99.7059" cy="30.7644" r="1.1009" transform="rotate(31.2299 99.7059 30.7644)" fill="#FFB359" stroke="#FFB359"/>
</g>
<defs>
<clipPath id="clip0">
<rect width="348" height="412" fill="white"/>
</clipPath>
</defs>
</svg>
