<svg width="42" height="18" viewBox="0 0 42 18" fill="none" xmlns="http://www.w3.org/2000/svg">
<g clip-path="url(#clip0)">
<path d="M7.95945 2.32031C8.44823 1.6875 8.79735 0.84375 8.69261 0C7.95945 0.0351563 7.08664 0.492188 6.56295 1.08984C6.10909 1.61719 5.69014 2.49609 5.79488 3.30469C6.63278 3.41016 7.43576 2.95313 7.95945 2.32031ZM8.69261 3.51563C7.50559 3.44531 6.49313 4.18359 5.93453 4.18359C5.37593 4.18359 4.50311 3.55078 3.56048 3.55078C2.33854 3.58594 1.22134 4.25391 0.592914 5.37891C-0.663936 7.59375 0.243789 10.8633 1.50064 12.6563C2.09415 13.5352 2.82731 14.5195 3.76995 14.4844C4.67768 14.4492 5.0268 13.8867 6.10909 13.8867C7.19138 13.8867 7.50559 14.4844 8.48314 14.4492C9.46069 14.4141 10.0891 13.5703 10.6826 12.6563C11.3809 11.6367 11.6602 10.6523 11.6602 10.6172C11.6253 10.582 9.73999 9.87891 9.73999 7.69922C9.70508 5.87109 11.2063 4.99219 11.2761 4.95703C10.4731 3.69141 9.14647 3.55078 8.69261 3.51563Z" fill="black"/>
<path d="M18.9576 1.01954C21.5411 1.01954 23.3216 2.8125 23.3216 5.37891C23.3216 7.98047 21.5062 9.77344 18.8878 9.77344H16.0598V14.3086H14V1.01954H18.9576ZM16.0598 8.05079H18.399C20.1795 8.05079 21.192 7.06641 21.192 5.41407C21.192 3.72657 20.1795 2.77735 18.399 2.77735H16.0249V8.05079H16.0598ZM23.8453 11.6016C23.8453 9.91407 25.1371 8.85938 27.4413 8.71875L30.0947 8.57813V7.83985C30.0947 6.75 29.3615 6.11719 28.1745 6.11719C27.0224 6.11719 26.3241 6.67969 26.1496 7.52344H24.2643C24.369 5.76563 25.8703 4.46485 28.2443 4.46485C30.5834 4.46485 32.0847 5.69532 32.0847 7.66407V14.3438H30.1994V12.7617H30.1645C29.6059 13.8516 28.384 14.5195 27.1271 14.5195C25.172 14.5195 23.8453 13.3242 23.8453 11.6016ZM30.0947 10.7227V9.94922L27.7206 10.0898C26.5336 10.1602 25.8703 10.6875 25.8703 11.5313C25.8703 12.375 26.5685 12.9375 27.6159 12.9375C29.0124 12.9375 30.0947 11.9883 30.0947 10.7227ZM33.8303 17.9297V16.3125C33.97 16.3477 34.3191 16.3477 34.4587 16.3477C35.3665 16.3477 35.8552 15.9609 36.1694 14.9766C36.1694 14.9414 36.344 14.3789 36.344 14.3789L32.8528 4.67578H34.9824L37.4263 12.5859H37.4612L39.9051 4.67578H41.9998L38.4038 14.9063C37.5659 17.2617 36.6233 18 34.6333 18C34.4936 17.9648 34.0049 17.9648 33.8303 17.9297Z" fill="black"/>
</g>
<defs>
<clipPath id="clip0">
<rect width="42" height="18" fill="white"/>
</clipPath>
</defs>
</svg>
