<svg width="18" height="19" viewBox="0 0 18 19" fill="none" xmlns="http://www.w3.org/2000/svg">
<circle cx="9" cy="9.5" r="9" fill="#D7D7D7"/>
<path fill-rule="evenodd" clip-rule="evenodd" d="M6.10886 5.28795C5.95723 5.05716 5.64722 4.99299 5.41643 5.14461C5.18564 5.29624 5.12147 5.60625 5.27309 5.83704C6.19356 7.23806 7.22633 8.3839 8.29046 9.45806C7.23997 10.4153 6.14293 11.3255 4.78801 12.2157C4.55722 12.3673 4.49305 12.6773 4.64468 12.9081C4.7963 13.1389 5.10631 13.2031 5.3371 13.0515C6.74793 12.1245 7.90624 11.161 9.00105 10.1631C9.19797 10.3558 9.39489 10.5471 9.59168 10.7382C10.4187 11.5414 11.2436 12.3425 12.057 13.2459C12.2417 13.4511 12.5579 13.4677 12.7631 13.283C12.9683 13.0982 12.9849 12.782 12.8001 12.5768C11.9631 11.6471 11.1004 10.8093 10.2639 9.99674L10.2638 9.99673C10.0862 9.82421 9.90977 9.65283 9.73499 9.48196C10.0512 9.18408 10.3656 8.88328 10.6831 8.5796L10.6831 8.5796C11.337 7.95404 12.0036 7.31631 12.7249 6.6669C12.9301 6.48213 12.9467 6.16598 12.7619 5.96076C12.5771 5.75554 12.261 5.73896 12.0558 5.92373C11.2872 6.61572 10.5962 7.27685 9.93051 7.91383L9.93051 7.91383C9.6246 8.20654 9.32403 8.49414 9.0237 8.77729C7.97326 7.71836 6.98427 6.62039 6.10886 5.28795Z" fill="#212121"/>
</svg>
