<svg width="80" height="80" viewBox="0 0 80 80" fill="none" xmlns="http://www.w3.org/2000/svg">
<circle cx="40" cy="40" r="39" stroke="#212121" stroke-width="2"/>
<path fill-rule="evenodd" clip-rule="evenodd" d="M58.0805 23.4298C58.4261 22.999 58.3571 22.3696 57.9264 22.024C57.4956 21.6784 56.8662 21.7474 56.5206 22.1781C52.48 27.2139 49.2367 32.9162 46.1491 38.8045C45.2462 40.5264 44.3581 42.261 43.4674 44.0007L43.4672 44.0012C41.4912 47.8607 39.5023 51.7454 37.3105 55.5717C35.7647 54.0687 34.1934 52.6782 32.6607 51.3219L32.6607 51.3218C31.9187 50.6653 31.1858 50.0167 30.4693 49.3673C27.9538 47.0875 25.5855 44.7522 23.5085 41.8717C23.1854 41.4237 22.5604 41.3224 22.1125 41.6454C21.6645 41.9685 21.5632 42.5935 21.8862 43.0414C24.085 46.0908 26.574 48.5362 29.1262 50.8492C29.8791 51.5315 30.633 52.1987 31.3864 52.8653L31.3867 52.8656L31.3867 52.8657C33.1911 54.4623 34.9922 56.0561 36.7678 57.8489C36.838 57.9302 36.9224 58.0015 37.0203 58.0588C37.1854 58.1555 37.3668 58.1995 37.5451 58.1958C37.7935 58.1918 38.0408 58.0957 38.2314 57.9073C38.3142 57.8255 38.3798 57.7328 38.428 57.6337C40.8935 53.4171 43.1069 49.094 45.2747 44.8599L45.275 44.8593C46.1597 43.1314 47.0368 41.4183 47.9204 39.7333C50.9946 33.8706 54.1654 28.3091 58.0805 23.4298Z" fill="#212121"/>
</svg>
