<svg width="18" height="19" viewBox="0 0 18 19" fill="none" xmlns="http://www.w3.org/2000/svg">
<circle cx="9" cy="9.5" r="9" fill="#1B4942"/>
<path fill-rule="evenodd" clip-rule="evenodd" d="M13.4238 5.04011C13.6013 4.82856 13.5737 4.51318 13.3622 4.3357C13.1506 4.15821 12.8352 4.18583 12.6578 4.39738C11.611 5.64501 10.7745 7.0534 9.98542 8.49259C9.75256 8.91731 9.52465 9.34306 9.29676 9.76876L9.29676 9.76877C8.84042 10.6212 8.38421 11.4735 7.88862 12.3167C7.55935 12.0197 7.22766 11.739 6.90619 11.4669L6.90612 11.4668C6.71853 11.3081 6.53442 11.1522 6.3563 10.9978C5.71949 10.4459 5.13143 9.89012 4.61802 9.20915C4.45178 8.98866 4.13827 8.94467 3.91777 9.11092C3.69728 9.27716 3.65329 9.59067 3.81954 9.81117C4.39611 10.5759 5.0463 11.1857 5.70131 11.7535C5.89797 11.924 6.09286 12.0889 6.28633 12.2526C6.74787 12.6432 7.20137 13.027 7.65181 13.463C7.7287 13.5374 7.82332 13.5822 7.92157 13.5976C7.95755 13.6033 7.99381 13.605 8.0297 13.6028C8.09935 13.5986 8.16825 13.5799 8.23148 13.5468C8.30914 13.5063 8.37714 13.4448 8.4262 13.3647C9.06291 12.3247 9.63586 11.2544 10.1928 10.2141L10.1928 10.2141C10.4175 9.7943 10.6396 9.37942 10.8623 8.97335C11.644 7.54759 12.4425 6.20983 13.4238 5.04011Z" fill="white"/>
</svg>
