<svg xmlns="http://www.w3.org/2000/svg" fill="none" viewBox="0 0 18 18"><path id="content" fill-rule="evenodd" d="M2.783.339a.75.75 0 10-1.254.822c2.121 3.237 4.514 5.865 6.987 8.35C6.063 11.765 3.511 13.91.338 16a.75.75 0 10.825 1.253c3.256-2.144 5.901-4.37 8.418-6.685.52.512 1.04 1.019 1.562 1.526 1.857 1.807 3.718 3.62 5.55 5.658a.75.75 0 101.115-1.002c-1.866-2.078-3.785-3.946-5.655-5.767-.495-.481-.986-.96-1.473-1.437a333.16 333.16 0 002.384-2.271c1.47-1.41 2.972-2.85 4.605-4.323a.75.75 0 00-1.005-1.114c-1.704 1.538-3.243 3.013-4.73 4.44-.782.75-1.55 1.486-2.32 2.21-2.455-2.465-4.78-5.02-6.83-8.15z" clip-rule="evenodd"/></svg>