<svg width="221" height="34" viewBox="0 0 221 34" fill="none" xmlns="http://www.w3.org/2000/svg">
<path d="M0.53125 23.5V1.73438H3.28125L11.6562 15.2812L20.0469 1.73438H22.7969V23.5H18.9219V10.25L12.8438 20.0156H10.5156L4.32812 10.125L4.39062 23.5H0.53125Z" fill="white"/>
<path d="M26.6562 15.9531C26.6562 13.6615 27.3958 11.7656 28.875 10.2656C30.3646 8.76562 32.3021 8.01562 34.6875 8.01562C36.0729 8.01562 37.3229 8.33854 38.4375 8.98438C39.5625 9.61979 40.4479 10.526 41.0938 11.7031C41.7396 12.8698 42.0677 14.1979 42.0781 15.6875C42.0781 16.4375 42.0469 17.0052 41.9844 17.3906H41.9531H30.375C30.6146 18.401 31.1042 19.2083 31.8438 19.8125C32.5833 20.4167 33.5625 20.7188 34.7812 20.7188C36.2812 20.7188 37.3073 20.25 37.8594 19.3125H41.7969C41.3698 20.6979 40.5104 21.8021 39.2188 22.625C37.9271 23.4479 36.4167 23.8594 34.6875 23.8594C32.3021 23.8594 30.3646 23.1094 28.875 21.6094C27.3958 20.1094 26.6562 18.224 26.6562 15.9531ZM30.3438 14.6406H38.3125C38.1875 13.5573 37.7917 12.7031 37.125 12.0781C36.4583 11.4531 35.5833 11.1406 34.5 11.1406C33.3646 11.1406 32.4427 11.4635 31.7344 12.1094C31.0365 12.7552 30.5729 13.599 30.3438 14.6406Z" fill="white"/>
<path d="M44.5 18.375L47.8906 18.4062C48.1927 20.1146 49.4271 20.9688 51.5938 20.9688C52.5 20.9688 53.2344 20.8229 53.7969 20.5312C54.3594 20.2292 54.6406 19.8229 54.6406 19.3125C54.6406 18.9062 54.4844 18.5625 54.1719 18.2812C53.8594 18 53.4062 17.8073 52.8125 17.7031L49.5156 17.1562C48.901 17.0417 48.3385 16.8854 47.8281 16.6875C47.3281 16.4792 46.8594 16.2083 46.4219 15.875C45.9948 15.5312 45.6562 15.099 45.4062 14.5781C45.1667 14.0573 45.0469 13.4688 45.0469 12.8125C45.0469 11.3125 45.625 10.1302 46.7812 9.26562C47.9479 8.39062 49.4896 7.95312 51.4062 7.95312C51.9792 7.95312 52.5312 7.99479 53.0625 8.07812C53.6042 8.15104 54.1719 8.30208 54.7656 8.53125C55.3594 8.76042 55.8802 9.05729 56.3281 9.42188C56.7865 9.77604 57.1771 10.2604 57.5 10.875C57.8229 11.4792 58.0208 12.1771 58.0938 12.9688L54.6719 13C54.6094 12.2708 54.276 11.724 53.6719 11.3594C53.0781 10.9844 52.3229 10.7969 51.4062 10.7969C50.5417 10.7969 49.8698 10.9531 49.3906 11.2656C48.9219 11.5677 48.6875 11.9531 48.6875 12.4219C48.6875 13.3281 49.401 13.9062 50.8281 14.1562L53.6406 14.6094C54.1406 14.7031 54.5938 14.8177 55 14.9531C55.4062 15.0781 55.8125 15.2552 56.2188 15.4844C56.625 15.7135 56.9635 15.9844 57.2344 16.2969C57.5052 16.599 57.724 16.9792 57.8906 17.4375C58.0677 17.8958 58.1562 18.4115 58.1562 18.9844C58.1562 20.5573 57.5365 21.7865 56.2969 22.6719C55.0677 23.5469 53.4688 23.9844 51.5 23.9844C50.5938 23.9844 49.7552 23.8802 48.9844 23.6719C48.2135 23.474 47.5 23.1667 46.8438 22.75C46.1979 22.3229 45.6667 21.7396 45.25 21C44.8333 20.25 44.5833 19.375 44.5 18.375Z" fill="white"/>
<path d="M87.0469 16.7188V8.35938H90.7188V16.4844C90.7188 17.7865 91.0469 18.8021 91.7031 19.5312C92.3698 20.2604 93.2812 20.625 94.4375 20.625C95.1146 20.625 95.7969 20.4323 96.4844 20.0469C97.1719 19.651 97.8021 19.0938 98.375 18.375V8.35938H102.047V23.5H98.375V22.2188C97 23.3958 95.4323 23.9844 93.6719 23.9844C91.6823 23.9844 90.0781 23.3229 88.8594 22C87.651 20.6667 87.0469 18.9062 87.0469 16.7188Z" fill="white"/>
<path d="M105.656 15.9531C105.656 13.6615 106.396 11.7656 107.875 10.2656C109.365 8.76562 111.302 8.01562 113.688 8.01562C115.073 8.01562 116.323 8.33854 117.438 8.98438C118.562 9.61979 119.448 10.526 120.094 11.7031C120.74 12.8698 121.068 14.1979 121.078 15.6875C121.078 16.4375 121.047 17.0052 120.984 17.3906H120.953H109.375C109.615 18.401 110.104 19.2083 110.844 19.8125C111.583 20.4167 112.562 20.7188 113.781 20.7188C115.281 20.7188 116.307 20.25 116.859 19.3125H120.797C120.37 20.6979 119.51 21.8021 118.219 22.625C116.927 23.4479 115.417 23.8594 113.688 23.8594C111.302 23.8594 109.365 23.1094 107.875 21.6094C106.396 20.1094 105.656 18.224 105.656 15.9531ZM109.344 14.6406H117.312C117.188 13.5573 116.792 12.7031 116.125 12.0781C115.458 11.4531 114.583 11.1406 113.5 11.1406C112.365 11.1406 111.443 11.4635 110.734 12.1094C110.036 12.7552 109.573 13.599 109.344 14.6406Z" fill="white"/>
<path d="M123.5 18.375L126.891 18.4062C127.193 20.1146 128.427 20.9688 130.594 20.9688C131.5 20.9688 132.234 20.8229 132.797 20.5312C133.359 20.2292 133.641 19.8229 133.641 19.3125C133.641 18.9062 133.484 18.5625 133.172 18.2812C132.859 18 132.406 17.8073 131.812 17.7031L128.516 17.1562C127.901 17.0417 127.339 16.8854 126.828 16.6875C126.328 16.4792 125.859 16.2083 125.422 15.875C124.995 15.5312 124.656 15.099 124.406 14.5781C124.167 14.0573 124.047 13.4688 124.047 12.8125C124.047 11.3125 124.625 10.1302 125.781 9.26562C126.948 8.39062 128.49 7.95312 130.406 7.95312C130.979 7.95312 131.531 7.99479 132.062 8.07812C132.604 8.15104 133.172 8.30208 133.766 8.53125C134.359 8.76042 134.88 9.05729 135.328 9.42188C135.786 9.77604 136.177 10.2604 136.5 10.875C136.823 11.4792 137.021 12.1771 137.094 12.9688L133.672 13C133.609 12.2708 133.276 11.724 132.672 11.3594C132.078 10.9844 131.323 10.7969 130.406 10.7969C129.542 10.7969 128.87 10.9531 128.391 11.2656C127.922 11.5677 127.688 11.9531 127.688 12.4219C127.688 13.3281 128.401 13.9062 129.828 14.1562L132.641 14.6094C133.141 14.7031 133.594 14.8177 134 14.9531C134.406 15.0781 134.812 15.2552 135.219 15.4844C135.625 15.7135 135.964 15.9844 136.234 16.2969C136.505 16.599 136.724 16.9792 136.891 17.4375C137.068 17.8958 137.156 18.4115 137.156 18.9844C137.156 20.5573 136.536 21.7865 135.297 22.6719C134.068 23.5469 132.469 23.9844 130.5 23.9844C129.594 23.9844 128.755 23.8802 127.984 23.6719C127.214 23.474 126.5 23.1667 125.844 22.75C125.198 22.3229 124.667 21.7396 124.25 21C123.833 20.25 123.583 19.375 123.5 18.375Z" fill="white"/>
<path d="M138.781 11.4688V8.35938H142.234V2.82812H145.922V8.35938H151.516V11.4688H145.922V17.6719C145.922 19.599 146.88 20.5625 148.797 20.5625C149.557 20.5625 150.411 20.4323 151.359 20.1719L151.875 23.3438C151.031 23.6042 150.354 23.776 149.844 23.8594C149.333 23.9427 148.75 23.9844 148.094 23.9844C146.292 23.9844 144.865 23.4219 143.812 22.2969C142.76 21.1615 142.234 19.6198 142.234 17.6719V11.4688H138.781Z" fill="white"/>
<path d="M154.859 2.89062C154.859 2.24479 155.078 1.70833 155.516 1.28125C155.964 0.84375 156.51 0.625 157.156 0.625C157.802 0.625 158.349 0.84375 158.797 1.28125C159.245 1.70833 159.469 2.24479 159.469 2.89062C159.469 3.51562 159.245 4.04167 158.797 4.46875C158.349 4.88542 157.802 5.09375 157.156 5.09375C156.51 5.09375 155.964 4.88542 155.516 4.46875C155.078 4.04167 154.859 3.51562 154.859 2.89062ZM155.344 23.5V8.35938H159.016V23.5H155.344Z" fill="white"/>
<path d="M162.688 15.9531C162.688 13.6719 163.453 11.7812 164.984 10.2812C166.516 8.77083 168.438 8.01562 170.75 8.01562C173.042 8.01562 174.953 8.77083 176.484 10.2812C178.016 11.7812 178.781 13.6719 178.781 15.9531C178.781 18.2552 178.016 20.1719 176.484 21.7031C174.953 23.224 173.042 23.9844 170.75 23.9844C168.448 23.9844 166.526 23.224 164.984 21.7031C163.453 20.1719 162.688 18.2552 162.688 15.9531ZM166.375 15.9531C166.375 17.276 166.781 18.3854 167.594 19.2812C168.406 20.1771 169.458 20.625 170.75 20.625C172.031 20.625 173.078 20.1771 173.891 19.2812C174.703 18.3854 175.109 17.276 175.109 15.9531C175.109 14.651 174.703 13.5625 173.891 12.6875C173.078 11.8125 172.031 11.375 170.75 11.375C169.458 11.375 168.406 11.8125 167.594 12.6875C166.781 13.5625 166.375 14.651 166.375 15.9531Z" fill="white"/>
<path d="M182.078 23.5V8.35938H185.797V9.60938C187.172 8.46354 188.729 7.89062 190.469 7.89062C192.458 7.89062 194.057 8.55208 195.266 9.875C196.484 11.1979 197.094 12.9531 197.094 15.1406V23.5H193.406V15.375C193.406 14.0625 193.078 13.0469 192.422 12.3281C191.766 11.6094 190.859 11.25 189.703 11.25C189.036 11.25 188.359 11.4375 187.672 11.8125C186.995 12.1875 186.37 12.724 185.797 13.4219V23.5H182.078Z" fill="white"/>
<path d="M200.062 18.375L203.453 18.4062C203.755 20.1146 204.99 20.9688 207.156 20.9688C208.062 20.9688 208.797 20.8229 209.359 20.5312C209.922 20.2292 210.203 19.8229 210.203 19.3125C210.203 18.9062 210.047 18.5625 209.734 18.2812C209.422 18 208.969 17.8073 208.375 17.7031L205.078 17.1562C204.464 17.0417 203.901 16.8854 203.391 16.6875C202.891 16.4792 202.422 16.2083 201.984 15.875C201.557 15.5312 201.219 15.099 200.969 14.5781C200.729 14.0573 200.609 13.4688 200.609 12.8125C200.609 11.3125 201.188 10.1302 202.344 9.26562C203.51 8.39062 205.052 7.95312 206.969 7.95312C207.542 7.95312 208.094 7.99479 208.625 8.07812C209.167 8.15104 209.734 8.30208 210.328 8.53125C210.922 8.76042 211.443 9.05729 211.891 9.42188C212.349 9.77604 212.74 10.2604 213.062 10.875C213.385 11.4792 213.583 12.1771 213.656 12.9688L210.234 13C210.172 12.2708 209.839 11.724 209.234 11.3594C208.641 10.9844 207.885 10.7969 206.969 10.7969C206.104 10.7969 205.432 10.9531 204.953 11.2656C204.484 11.5677 204.25 11.9531 204.25 12.4219C204.25 13.3281 204.964 13.9062 206.391 14.1562L209.203 14.6094C209.703 14.7031 210.156 14.8177 210.562 14.9531C210.969 15.0781 211.375 15.2552 211.781 15.4844C212.188 15.7135 212.526 15.9844 212.797 16.2969C213.068 16.599 213.286 16.9792 213.453 17.4375C213.63 17.8958 213.719 18.4115 213.719 18.9844C213.719 20.5573 213.099 21.7865 211.859 22.6719C210.63 23.5469 209.031 23.9844 207.062 23.9844C206.156 23.9844 205.318 23.8802 204.547 23.6719C203.776 23.474 203.062 23.1667 202.406 22.75C201.76 22.3229 201.229 21.7396 200.812 21C200.396 20.25 200.146 19.375 200.062 18.375Z" fill="white"/>
<path d="M216.281 21.8438C216.281 21.2188 216.5 20.6979 216.938 20.2812C217.375 19.8646 217.911 19.6562 218.547 19.6562C219.182 19.6562 219.724 19.8698 220.172 20.2969C220.62 20.7135 220.844 21.2292 220.844 21.8438C220.844 22.4792 220.62 23.0052 220.172 23.4219C219.724 23.8385 219.182 24.0469 218.547 24.0469C217.911 24.0469 217.375 23.8385 216.938 23.4219C216.5 23.0052 216.281 22.4792 216.281 21.8438Z" fill="#FFB359"/>
<path d="M62.5312 18.3125C61.5208 16.5729 61.0156 14.6771 61.0156 12.625C61.0156 10.5729 61.5208 8.67708 62.5312 6.9375C63.5417 5.19792 64.9167 3.82292 66.6562 2.8125C68.3958 1.80208 70.2917 1.29688 72.3438 1.29688C74.3958 1.29688 76.2917 1.80208 78.0312 2.8125C79.7708 3.82292 81.1458 5.19792 82.1562 6.9375C83.1667 8.67708 83.6719 10.5729 83.6719 12.625C83.6719 14.3542 83.3125 15.974 82.5938 17.4844C81.875 18.9844 80.8802 20.2656 79.6094 21.3281L86.2812 31.7344L83 34L76.2031 23.2812C74.9948 23.7292 73.7083 23.9531 72.3438 23.9531C70.2917 23.9531 68.3958 23.4479 66.6562 22.4375C64.9167 21.4271 63.5417 20.0521 62.5312 18.3125ZM65.8906 8.75C65.2448 9.92708 64.9219 11.2188 64.9219 12.625C64.9219 14.0312 65.2448 15.3281 65.8906 16.5156C66.5365 17.6927 67.4271 18.6302 68.5625 19.3281C69.7083 20.0156 70.9688 20.3594 72.3438 20.3594C73.7292 20.3594 74.9948 20.0156 76.1406 19.3281C77.2865 18.6302 78.1823 17.6927 78.8281 16.5156C79.474 15.3281 79.7969 14.0312 79.7969 12.625C79.7969 11.2188 79.474 9.92708 78.8281 8.75C78.1823 7.5625 77.2865 6.61979 76.1406 5.92188C74.9948 5.22396 73.7292 4.875 72.3438 4.875C70.9688 4.875 69.7083 5.22396 68.5625 5.92188C67.4271 6.61979 66.5365 7.5625 65.8906 8.75Z" fill="#FFB359"/>
</svg>
